<?xml version="1.0" encoding="utf-8"?>
<!-- Generator: Adobe Illustrator 27.8.0, SVG Export Plug-In . SVG Version: 6.00 Build 0)  -->
<svg version="1.1" id="Layer_1" xmlns="http://www.w3.org/2000/svg" xmlns:xlink="http://www.w3.org/1999/xlink" x="0px" y="0px"
	 viewBox="0 0 257.7 583.2" style="enable-background:new 0 0 257.7 583.2;" xml:space="preserve">
<style type="text/css">
	.st0{display:none;fill:#30302F;}
	.st1{fill:#30302F;}
	.st2{display:none;}
	.st3{display:inline;fill:#FFFFFF;}
	.st4{display:inline;}
	.st5{fill:#FFFFFF;}
	.st6{fill:none;stroke:#FFFFFF;stroke-width:3;stroke-miterlimit:10;}
	.st7{fill:#2658A8;}
	.st8{fill:#F8E02A;}
	.st9{fill:none;}
	.st10{display:none;enable-background:new    ;}
	.st11{font-family:'Ayuthaya';}
	.st12{font-size:22px;}
</style>
<g id="Layer_1_00000067196964310729227420000000810147444967137928_">
	<path class="st0" d="M233.8,580.6H20.4c-8.1,0-14.6-6.6-14.6-14.6V15.1C5.8,7,12.4,0.5,20.4,0.5h213.4c8.1,0,14.6,6.6,14.6,14.6
		v550.8C248.5,574,241.9,580.6,233.8,580.6z"/>
	<path class="st0" d="M260.7,45.9c-3.1-11.7-7.3-27.7-7.3-27.7C248.9,4,236.1,0.5,228.3,0.5H23.2c-7.8,0-21,2.7-25.1,18.7
		c0,0-4.7,15.6-6.4,26.9s-3.2,121.1-3.2,122.6v75.5c0,4.5,0.6,9,1.9,13.3l6.2,21.6c1.9,6.6,2.4,13.5,1.6,20.3l-1,8.1
		c-0.2,1.8-0.4,3.7-0.4,5.6v36.2c0,5.7,1.1,11.4,3.3,16.7l0,0c3.7,9,4.3,19,1.7,28.3L1.3,396c-1,3.8-1.6,7.7-1.6,11.6v36.7
		c0,4.1,0.6,8.2,1.7,12.2l4.3,14.8h0.1v95.1c0,8.1,6.6,14.6,14.6,14.6h213.4c8.1,0,14.6-6.6,14.6-14.6v-95.6l4.1-16.2
		c0.9-3.5,1.3-7.1,1.3-10.7v-36.8c0-3.6-0.4-7.2-1.3-10.7l-1.2-5c-1.9-7.6-1.7-15.6,0.5-23.2l1.3-4.3c1.2-4.1,1.8-8.3,1.8-12.5V313
		c0-2-0.1-3.9-0.4-5.9l-0.9-6.7c-1-7.2-0.4-14.5,1.7-21.4l6.5-21.2c1.4-4.5,2.1-9.3,2.1-14v-74.9C264,167.2,263.8,57.6,260.7,45.9z"
		/>
	<path class="st1" d="M7,80.9c0,0,6-39.3,11.1-53.2C20.8,19.9,31.6,9,44.3,4c10.2-4,28.1-2.7,45.9-3.5s95.2-0.9,109.3,0.7
		s16,2.5,21,6.5c4.1,3.3,19.4,16,22.3,29.9s8.4,43,8.4,43l6.5,104.7l-3.2,116.4c0,0-3,16-3.7,28.2s1.1,32,0.1,38.3
		s-4.5,31.7-4.5,35.4c0,3.7-0.5,37-0.4,41.6s-2.7,23.5-2.7,23.5l-2.5,65.9c0,0-0.8,14.4-7.3,23.9c-8,11.7-17.1,19.4-26.5,21.6
		c-9.4,2.2-16,2.4-33.1,2.7c-43.7,0.9-115-0.6-123.6-3.3C38.2,575.6,33,573,27.6,567S14,550.5,13.3,537.8
		C12.6,525,11.6,465,11.6,465l-1-4.9c0,0-1.2-18.7-1.3-26.1c-0.1-7.5,1.5-20.6,0.8-31.6c-0.6-11-1.9-18.2-1.9-18.2
		S6.5,369.5,6.3,364s0.5-14.5,0.4-20.1s-0.9-18.5-0.9-18.5S5.1,307.5,4,301.5S0,183.6,0,183.6L7,80.9z"/>
	<g class="st2">
		<path class="st3" d="M104.1,98.6c0.1-1,0.3-6.5-2.5-9.6c-1.2-1.3-2.8-2-4.8-2l0,0c-5.9,0-8.1,5.8-10.1,11.6h-7.4
			c-0.3,0.2-0.6,0.4-1,0.6h-0.1l0.3,0.4h7.9c-2.1,5.9-4.1,11.2-9.9,11.2c-2.4,0-4-1-5.1-3.2c-1-2.1-1.4-4.9-1.8-7.7
			c0-0.1,0-0.2,0-0.2h4.7c0.3-0.2,0.7-0.3,1-0.5h0.1v-0.1c-0.1-0.2-0.2-0.3-0.3-0.5h-5.6c-0.8-5.6-2.1-11.3-8.6-11.3
			c-0.1,0-0.2,0-0.2,0c-3.3,0.1-6.3,2.1-8.5,5.9c-0.6,1-1.1,2-1.5,2.9V83.7h-1v14.9h-8.3v1h8.3v14.5h1V99.6h17.8
			c0,0.1,0,0.3,0.1,0.4c0.8,5.9,1.7,12,8,12c6.7,0,9-6.2,11.1-12.4h3.8l0.3-1h-3.7C90,93.1,92,88.2,97,88.2c1.6,0,3,0.5,4,1.6
			c2.6,2.8,2.2,8.2,2.2,8.8h-3.3c-0.2,0.1-0.4,0.3-0.7,0.4l-1,0.4l0.1,0.3h104.2v-1h-98.4V98.6z M50.8,98.6c0.6-2.1,3.5-10,9.7-10.2
			c0.1,0,0.1,0,0.2,0c5.5,0,6.6,4.8,7.4,10.2H50.8z"/>
		<path class="st3" d="M98.9,99c0.2-0.1,0.5-0.2,0.7-0.4c1.1-0.7,1.7-1.8,1.7-3.1c0-1.8-1.2-2.8-2.6-3c-0.5-0.1-1.1-0.2-1.6-0.2
			h-5.6L91.3,93l0.7,0.1l0.3,0.1c0.1,0,0.2,0.1,0.3,0.1c0,0,0.1,0.1,0.1,0.2c0,0.3,0,0.7-0.1,1.1l0,0l0,0c-0.1,0.4-0.2,0.9-0.3,1.3
			l-0.7,2.9l-0.3,1l-0.6,2.3l-0.5,1.7l-0.1,0.4l0,0c0,0,0,0.1-0.1,0.1v0.1c-0.3,1.1-1.4,1.2-1.8,1.3H88l-0.1,0.3l-0.1,0.4l6.5,0.1
			l0.3-0.7l-0.8-0.1l-0.3-0.1c-0.1,0-0.2-0.1-0.3-0.1c-0.1-0.1-0.2-0.3-0.2-0.5c0-0.5,0.1-0.8,0.2-1.3l1.2-4l0,0h0.1h0.1
			c0,0,0,0,0.1,0s0.1,0,0.1,0l1.8,6.7h4.3v-0.7l-0.7-0.1c-0.2,0-0.4-0.1-0.5-0.3c-0.1-0.1-0.2-0.3-0.2-0.4c-0.5-1.6-1-3.2-1.4-4.8
			L98,99.7l-0.1-0.3L98.9,99z M96.2,93.4h0.2c0.5,0,0.9,0.1,1.2,0.5c0.3,0.4,0.4,0.8,0.4,1.4c0,1.1-0.3,1.9-0.9,2.6
			c-0.4,0.4-0.8,0.7-1.4,0.9c-0.2,0.1-0.5,0.1-0.7,0.1h-0.5v-0.1L96.2,93.4z"/>
		<path class="st3" d="M75.3,99.1L75.3,99.1c-0.4,0.2-0.7,0.3-1.1,0.5s-0.8,0.5-1.1,0.8c0,0-2.3,2.2-0.4,4.8
			c0.6,0.9,1.7,1.3,2.8,1.3h0.2c1.4,0,2.3-0.4,3.5-1.3l0.7,1.3H83l-1.9-2.9c0.2-0.2,1.1-1.1,1.6-1.9l-1.2-1.3
			c-0.6,1.6-0.9,1.7-1.2,2l0,0l-2-2.8L78,99.2h0.1c0.4-0.2,0.7-0.4,1-0.6c0.7-0.6,1.1-1.3,1.1-2.1c0-0.5-0.2-1-0.5-1.4
			c-0.5-0.6-1.3-0.9-2.1-0.9h-0.2c-1,0-2,0.4-2.5,1.1c-0.4,0.5-0.6,1-0.6,1.6c0,0.5,0.2,1,0.6,1.7C75.1,98.7,75.2,98.9,75.3,99.1
			L75.3,99.1z M78.6,104.1c-0.3,0.2-0.6,0.5-0.9,0.6s-0.7,0.2-1.1,0.2c-0.6,0-1.2-0.2-1.6-0.6c-0.4-0.5-0.7-1.1-0.7-1.7
			s0.3-1.2,0.7-1.6c0.3-0.3,0.7-0.5,1-0.7l0,0L78.6,104.1L78.6,104.1z M77,95.7c0.2-0.2,0.5-0.3,0.8-0.3s0.5,0.1,0.7,0.3
			c0.5,0.5,0.3,1.3-0.1,1.8c-0.1,0.1-0.2,0.3-0.4,0.4l-0.6,0.3c-0.2-0.3-0.4-0.6-0.6-0.9C76.5,96.7,76.6,96.2,77,95.7z"/>
		<path class="st3" d="M66.5,98c0.1-1.6-0.5-3.3-1.7-4.3c-0.6-0.6-1.6-1-2.5-1.2s-1.8-0.3-2.7-0.3h-0.2h-4.7l-0.2,0.7l1.2,0.1
			c0.1,0,0.2,0.1,0.3,0.1c0.4,0.4,0.1,1.4,0,1.9l-1,3.6l-0.3,1l-1.2,4.3l-0.3,0.7c-0.1,0.3-0.3,0.5-0.5,0.7
			c-0.5,0.4-1.6,0.4-1.6,0.3l-0.1,0.7h5.8c0.1,0,0.3,0,0.4,0c1.7,0,3.5-0.4,4.8-1.1c0.7-0.4,3.5-2.1,4.1-5.7c0.1-0.3,0.1-0.7,0.1-1
			C66.4,98.4,66.5,98.2,66.5,98z M62.2,101.5c-0.5,1.2-1.2,2.2-2.1,3c-0.5,0.4-1.4,0.9-2.3,0.9c-0.4,0-0.6-0.1-0.9-0.2
			c-0.1-0.1-0.2-0.2-0.2-0.3c0-0.3,0.6-2.6,1.2-5.2c0.1-0.3,0.2-0.7,0.2-1c0.6-2.3,1.1-4.6,1.3-5.3l0,0h0.3c0.5,0,1.1,0.2,1.5,0.4
			c0.6,0.3,1,0.9,1.2,1.5c0.4,1.1,0.5,2.3,0.4,3.5c0,0.4-0.1,0.7-0.2,1C62.5,100.4,62.3,101,62.2,101.5z"/>
		<g class="st4">
			<polygon class="st5" points="108.8,97.4 110.6,90 117.2,90 116.9,91.2 112.2,91.2 111.7,92.9 116.3,92.9 116,94.1 111.4,94.1 
				110.9,96.2 116,96.2 115.7,97.4 			"/>
			<polygon class="st5" points="117.1,97.4 118.9,90 120.7,90 119.2,96.2 123.6,96.2 123.3,97.4 			"/>
			<polygon class="st5" points="124.5,97.4 126.4,90 132.9,90 132.6,91.2 127.9,91.2 127.4,92.9 132,92.9 131.7,94.1 127.1,94.1 
				126.6,96.2 131.7,96.2 131.4,97.4 			"/>
			<path class="st5" d="M139.1,94.7l1.8,0.2c-0.4,0.8-0.9,1.5-1.6,1.9c-0.7,0.4-1.5,0.7-2.5,0.7c-1.1,0-1.9-0.3-2.5-0.8
				s-0.9-1.3-0.9-2.4c0-0.8,0.2-1.6,0.6-2.3c0.4-0.7,1-1.2,1.7-1.6s1.5-0.6,2.4-0.6c1,0,1.7,0.2,2.3,0.6s0.9,1,1,1.8l-1.7,0.1
				c-0.1-0.4-0.3-0.7-0.6-0.9c-0.3-0.2-0.6-0.3-1.1-0.3s-1,0.1-1.4,0.4s-0.8,0.7-1,1.2c-0.3,0.5-0.4,1.1-0.4,1.6
				c0,0.6,0.2,1.1,0.5,1.4s0.8,0.5,1.3,0.5s0.9-0.1,1.3-0.4C138.6,95.6,138.9,95.2,139.1,94.7z"/>
			<polygon class="st5" points="145.4,97.4 143.6,97.4 145.1,91.2 142.6,91.2 142.9,90 149.8,90 149.5,91.2 146.9,91.2 			"/>
			<path class="st5" d="M150.9,97.4h-1.8L151,90h3.9c0.7,0,1.2,0.1,1.6,0.2c0.4,0.1,0.7,0.3,0.9,0.6c0.2,0.3,0.3,0.7,0.3,1.1
				c0,0.6-0.2,1.2-0.7,1.6c-0.4,0.4-1.1,0.7-2,0.8c0.2,0.2,0.4,0.4,0.7,0.7c0.4,0.6,0.9,1.4,1.4,2.5H155c-0.2-0.4-0.5-1.1-0.9-2
				c-0.2-0.5-0.5-0.8-0.8-1c-0.2-0.1-0.5-0.1-0.9-0.1h-0.7L150.9,97.4z M152,93.2h1c1,0,1.6,0,1.9-0.1c0.3-0.1,0.6-0.3,0.7-0.5
				c0.2-0.2,0.3-0.4,0.3-0.7c0-0.3-0.1-0.5-0.4-0.6c-0.2-0.1-0.5-0.1-1-0.1h-2L152,93.2z"/>
			<path class="st5" d="M158.5,94.5c0-0.4,0.1-0.9,0.2-1.4c0.2-0.7,0.5-1.2,0.9-1.7s0.9-0.9,1.6-1.1c0.6-0.3,1.4-0.4,2.2-0.4
				c1.1,0,2,0.3,2.6,0.9c0.7,0.6,1,1.3,1,2.3c0,0.8-0.2,1.5-0.7,2.3c-0.4,0.7-1,1.3-1.8,1.7c-0.7,0.4-1.6,0.6-2.5,0.6
				c-0.8,0-1.5-0.2-2.1-0.5s-0.9-0.7-1.2-1.2C158.6,95.4,158.5,95,158.5,94.5z M160.3,94.5c0,0.5,0.2,0.9,0.6,1.3
				c0.4,0.3,0.9,0.5,1.5,0.5c0.5,0,1-0.1,1.4-0.4s0.8-0.7,1.1-1.2c0.3-0.6,0.4-1.1,0.4-1.6c0-0.6-0.2-1-0.6-1.4
				c-0.4-0.3-0.8-0.5-1.4-0.5c-0.9,0-1.6,0.3-2.2,1C160.6,92.9,160.3,93.6,160.3,94.5z"/>
			<polygon class="st5" points="174.5,97.4 172.9,97.4 170.5,92.4 169.2,97.4 167.6,97.4 169.4,90 171.1,90 173.5,94.9 174.7,90 
				176.4,90 			"/>
			<polygon class="st5" points="176.3,97.4 178.2,90 180,90 178.1,97.4 			"/>
			<path class="st5" d="M186.2,94.7L188,95c-0.4,0.8-0.9,1.5-1.6,1.9c-0.7,0.4-1.5,0.7-2.5,0.7c-1.1,0-1.9-0.3-2.5-0.8
				s-0.9-1.3-0.9-2.4c0-0.8,0.2-1.6,0.6-2.3c0.4-0.7,1-1.2,1.7-1.6s1.5-0.6,2.3-0.6c1,0,1.7,0.2,2.3,0.6s0.9,1,1,1.8l-1.7,0.1
				c-0.1-0.4-0.3-0.7-0.6-0.9c-0.3-0.2-0.6-0.3-1.1-0.3s-1,0.1-1.4,0.4s-0.8,0.7-1,1.2c-0.3,0.5-0.4,1.1-0.4,1.6
				c0,0.6,0.2,1.1,0.5,1.4s0.8,0.5,1.3,0.5s0.9-0.1,1.3-0.4C185.7,95.6,186,95.2,186.2,94.7"/>
			<path class="st5" d="M189,95l1.7-0.1c0,0.5,0.1,0.8,0.3,0.9c0.3,0.3,0.8,0.4,1.5,0.4c0.6,0,1-0.1,1.3-0.3
				c0.3-0.2,0.4-0.4,0.4-0.6s-0.1-0.4-0.3-0.6c-0.2-0.1-0.6-0.3-1.3-0.5s-1.2-0.5-1.5-0.6c-0.3-0.2-0.6-0.4-0.7-0.7
				c-0.2-0.3-0.3-0.6-0.3-0.9c0-0.6,0.3-1.1,0.8-1.6c0.5-0.4,1.3-0.6,2.3-0.6s1.8,0.2,2.4,0.6c0.6,0.4,0.9,1,0.9,1.6l-1.7,0.1
				c0-0.4-0.2-0.6-0.5-0.8c-0.3-0.2-0.6-0.3-1.2-0.3c-0.5,0-0.9,0.1-1.1,0.2c-0.2,0.1-0.3,0.3-0.3,0.6c0,0.2,0.1,0.4,0.3,0.5
				s0.6,0.3,1.3,0.6c1,0.4,1.7,0.7,1.9,0.9c0.4,0.3,0.6,0.8,0.6,1.3c0,0.7-0.3,1.2-0.9,1.7c-0.6,0.5-1.5,0.7-2.6,0.7
				c-0.8,0-1.4-0.1-2-0.3c-0.6-0.2-0.9-0.5-1.2-0.9C189,95.9,188.9,95.5,189,95"/>
		</g>
		<g class="st4">
			<path class="st5" d="M108.8,103.6h0.7c0,0.2,0,0.3,0.1,0.4c0,0.1,0.1,0.1,0.2,0.2c0.1,0,0.2,0.1,0.4,0.1c0.2,0,0.4,0,0.5-0.1
				s0.2-0.2,0.2-0.3c0-0.1,0-0.2-0.1-0.2c-0.1-0.1-0.2-0.2-0.5-0.3c-0.4-0.1-0.6-0.3-0.7-0.3c-0.1-0.1-0.2-0.2-0.3-0.3
				s-0.1-0.3-0.1-0.4c0-0.3,0.1-0.6,0.3-0.7c0.2-0.2,0.5-0.3,0.9-0.3s0.7,0.1,1,0.3c0.2,0.2,0.4,0.4,0.4,0.8h-0.7
				c0-0.3-0.3-0.5-0.7-0.5c-0.2,0-0.3,0-0.4,0.1s-0.1,0.2-0.1,0.3c0,0.1,0,0.2,0.1,0.3c0.1,0.1,0.3,0.2,0.5,0.3
				c0.3,0.1,0.6,0.3,0.7,0.3c0.1,0.1,0.2,0.2,0.3,0.3c0.1,0.1,0.1,0.2,0.1,0.4c0,0.3-0.1,0.6-0.4,0.8c-0.3,0.2-0.6,0.3-1,0.3
				c-0.3,0-0.6-0.1-0.8-0.2c-0.2-0.1-0.4-0.3-0.5-0.4C108.8,104,108.8,103.8,108.8,103.6z"/>
			<path class="st5" d="M112.3,103.4c0-0.3,0.1-0.6,0.2-0.9c0.2-0.4,0.4-0.7,0.7-0.9c0.3-0.2,0.7-0.3,1.1-0.3s0.8,0.1,1.1,0.4
				c0.3,0.3,0.4,0.6,0.4,1.1c0,0.4-0.1,0.8-0.3,1.1c-0.2,0.3-0.5,0.6-0.8,0.8c-0.3,0.2-0.6,0.2-1,0.2s-0.8-0.1-1-0.4
				C112.5,104.2,112.3,103.8,112.3,103.4z M113,103.4c0,0.3,0.1,0.5,0.2,0.6c0.2,0.2,0.4,0.2,0.6,0.2s0.4-0.1,0.5-0.2
				c0.2-0.1,0.3-0.3,0.5-0.6c0.1-0.3,0.2-0.5,0.2-0.8s-0.1-0.5-0.2-0.7c-0.1-0.1-0.3-0.2-0.6-0.2c-0.2,0-0.4,0.1-0.6,0.2
				s-0.3,0.3-0.5,0.6C113.1,102.8,113,103.1,113,103.4z"/>
			<path class="st5" d="M116,104.8l0.8-3.5h0.7l-0.6,2.9h1.8l-0.1,0.6H116z"/>
			<path class="st5" d="M119.8,101.3h0.7l-0.4,1.9l-0.1,0.5v0.1c0,0.1,0.1,0.3,0.2,0.3c0.1,0.1,0.3,0.1,0.4,0.1c0.2,0,0.3,0,0.4-0.1
				s0.2-0.1,0.3-0.3c0.1-0.1,0.1-0.3,0.2-0.7l0.4-1.9h0.7l-0.4,1.9c-0.1,0.4-0.2,0.7-0.3,0.9c-0.1,0.3-0.3,0.5-0.5,0.6
				s-0.5,0.2-0.9,0.2s-0.7-0.1-0.9-0.3s-0.3-0.4-0.3-0.8c0-0.1,0-0.3,0.1-0.6L119.8,101.3z"/>
			<path class="st5" d="M124.3,104.8h-0.7l0.6-2.9h-1.1l0.1-0.6h2.9l-0.1,0.6h-1L124.3,104.8z"/>
			<path class="st5" d="M125.7,104.8l0.8-3.5h0.7l-0.8,3.5H125.7z"/>
			<path class="st5" d="M127.5,103.4c0-0.3,0.1-0.6,0.2-0.9c0.2-0.4,0.4-0.7,0.7-0.9c0.3-0.2,0.7-0.3,1.1-0.3c0.4,0,0.8,0.1,1.1,0.4
				s0.4,0.6,0.4,1.1c0,0.4-0.1,0.8-0.3,1.1s-0.5,0.6-0.8,0.8c-0.3,0.2-0.6,0.2-1,0.2s-0.8-0.1-1-0.4
				C127.6,104.2,127.5,103.8,127.5,103.4z M128.2,103.4c0,0.3,0.1,0.5,0.2,0.6c0.2,0.2,0.4,0.2,0.6,0.2c0.2,0,0.4-0.1,0.5-0.2
				c0.2-0.1,0.3-0.3,0.5-0.6c0.1-0.3,0.2-0.5,0.2-0.8s-0.1-0.5-0.2-0.7c-0.1-0.1-0.3-0.2-0.6-0.2c-0.2,0-0.4,0.1-0.6,0.2
				s-0.3,0.3-0.5,0.6C128.3,102.8,128.2,103.1,128.2,103.4z"/>
			<path class="st5" d="M134,104.8h-0.7l-1-2.3l-0.5,2.3h-0.7l0.8-3.5h0.7l1,2.3l0.5-2.3h0.7L134,104.8z"/>
			<path class="st5" d="M134.9,103.6h0.7c0,0.2,0,0.3,0.1,0.4c0,0.1,0.1,0.1,0.2,0.2s0.2,0.1,0.4,0.1s0.4,0,0.5-0.1s0.2-0.2,0.2-0.3
				c0-0.1,0-0.2-0.1-0.2c-0.1-0.1-0.2-0.2-0.5-0.3c-0.4-0.1-0.6-0.3-0.7-0.3c-0.1-0.1-0.2-0.2-0.3-0.3s-0.1-0.3-0.1-0.4
				c0-0.3,0.1-0.6,0.3-0.7s0.5-0.3,0.9-0.3s0.7,0.1,1,0.3c0.2,0.2,0.4,0.4,0.4,0.8h-0.7c0-0.3-0.3-0.5-0.7-0.5c-0.2,0-0.3,0-0.4,0.1
				c-0.1,0.1-0.1,0.2-0.1,0.3c0,0.1,0,0.2,0.1,0.3c0.1,0.1,0.3,0.2,0.5,0.3c0.3,0.1,0.6,0.3,0.7,0.3c0.1,0.1,0.2,0.2,0.3,0.3
				c0.1,0.1,0.1,0.2,0.1,0.4c0,0.3-0.1,0.6-0.4,0.8c-0.3,0.2-0.6,0.3-1,0.3c-0.3,0-0.6-0.1-0.8-0.2s-0.4-0.3-0.5-0.4
				C134.9,104,134.9,103.8,134.9,103.6z"/>
			<path class="st5" d="M141.1,104.8h-0.7l0.6-2.9h-1.1l0.1-0.6h2.9l-0.1,0.6h-1L141.1,104.8z"/>
			<path class="st5" d="M145.1,103.2h-1.4l-0.3,1.5h-0.7l0.8-3.5h0.7l-0.3,1.3h1.4l0.3-1.3h0.7l-0.8,3.5h-0.7L145.1,103.2z"/>
			<path class="st5" d="M147.1,104.8h-0.7l0.8-3.5h1.6c0.3,0,0.5,0,0.7,0.1c0.1,0.1,0.3,0.2,0.4,0.3c0.1,0.1,0.1,0.3,0.1,0.5
				c0,0.3-0.1,0.6-0.3,0.7c-0.2,0.2-0.5,0.3-0.8,0.3c0.1,0.1,0.2,0.2,0.3,0.4c0.2,0.3,0.3,0.6,0.5,1.1h-0.8c0-0.1-0.1-0.4-0.3-0.8
				c-0.1-0.2-0.2-0.4-0.3-0.5s-0.1-0.1-0.2-0.1c-0.1,0-0.2,0-0.3,0h-0.3L147.1,104.8z M147.5,102.8h0.4c0.4,0,0.6,0,0.8-0.1
				c0.1,0,0.2-0.1,0.3-0.2s0.1-0.2,0.1-0.3c0-0.1-0.1-0.2-0.2-0.3c-0.1,0-0.2-0.1-0.4-0.1h-0.8L147.5,102.8z"/>
			<path class="st5" d="M150.2,103.4c0-0.3,0.1-0.6,0.2-0.9c0.2-0.4,0.4-0.7,0.7-0.9c0.3-0.2,0.7-0.3,1.1-0.3c0.4,0,0.8,0.1,1.1,0.4
				s0.4,0.6,0.4,1.1c0,0.4-0.1,0.8-0.3,1.1c-0.2,0.3-0.5,0.6-0.8,0.8c-0.3,0.2-0.6,0.2-1,0.2s-0.8-0.1-1-0.4
				C150.3,104.2,150.2,103.8,150.2,103.4z M150.9,103.4c0,0.3,0.1,0.5,0.2,0.6c0.2,0.2,0.4,0.2,0.6,0.2c0.2,0,0.4-0.1,0.5-0.2
				c0.2-0.1,0.3-0.3,0.5-0.6c0.1-0.3,0.2-0.5,0.2-0.8s-0.1-0.5-0.2-0.7c-0.1-0.1-0.3-0.2-0.6-0.2c-0.2,0-0.4,0.1-0.6,0.2
				s-0.3,0.3-0.5,0.6C151,102.8,150.9,103.1,150.9,103.4z"/>
			<path class="st5" d="M154.6,101.3h0.7l-0.4,1.9l-0.1,0.5v0.1c0,0.1,0.1,0.3,0.2,0.3c0.1,0.1,0.3,0.1,0.4,0.1c0.2,0,0.3,0,0.4-0.1
				c0.1-0.1,0.2-0.1,0.3-0.3c0.1-0.1,0.1-0.3,0.2-0.7l0.4-1.9h0.7l-0.4,1.9c-0.1,0.4-0.2,0.7-0.3,0.9c-0.1,0.3-0.3,0.5-0.5,0.6
				s-0.5,0.2-0.9,0.2s-0.7-0.1-0.9-0.3s-0.3-0.4-0.3-0.8c0-0.1,0-0.3,0.1-0.6L154.6,101.3z"/>
			<path class="st5" d="M159.5,102.9h1.6l-0.3,1.5c-0.2,0.1-0.4,0.2-0.7,0.3c-0.3,0.1-0.6,0.1-0.8,0.1c-0.5,0-0.8-0.1-1.1-0.3
				c-0.3-0.3-0.4-0.6-0.4-1.1c0-0.4,0.1-0.8,0.3-1.1c0.2-0.3,0.4-0.6,0.7-0.8c0.3-0.2,0.6-0.2,1-0.2s0.7,0.1,1,0.3
				c0.3,0.2,0.4,0.5,0.5,0.8l-0.7,0.1c-0.1-0.4-0.4-0.6-0.8-0.6c-0.2,0-0.4,0.1-0.6,0.2c-0.2,0.1-0.4,0.3-0.5,0.5s-0.2,0.5-0.2,0.9
				c0,0.3,0.1,0.5,0.2,0.6c0.1,0.1,0.3,0.2,0.6,0.2c0.1,0,0.3,0,0.4-0.1c0.2,0,0.4-0.1,0.5-0.2l0.1-0.5h-0.9L159.5,102.9z"/>
			<path class="st5" d="M163.9,103.2h-1.4l-0.3,1.5h-0.7l0.8-3.5h0.7l-0.3,1.3h1.4l0.3-1.3h0.7l-0.8,3.5h-0.7L163.9,103.2z"/>
			<path class="st5" d="M169.1,103.5l0.7,0.1c-0.2,0.4-0.4,0.7-0.7,0.9c-0.3,0.2-0.6,0.3-1,0.3s-0.8-0.1-1-0.4
				c-0.3-0.2-0.4-0.6-0.4-1.1c0-0.4,0.1-0.8,0.3-1.1c0.2-0.3,0.4-0.6,0.7-0.7c0.3-0.2,0.6-0.2,0.9-0.2c0.4,0,0.7,0.1,0.9,0.3
				s0.4,0.5,0.4,0.8l-0.7,0.1c0-0.2-0.1-0.4-0.2-0.4c-0.1-0.1-0.3-0.1-0.4-0.1c-0.2,0-0.4,0.1-0.5,0.2c-0.2,0.1-0.3,0.3-0.4,0.5
				c-0.1,0.2-0.2,0.5-0.2,0.8s0.1,0.5,0.2,0.6c0.1,0.1,0.3,0.2,0.5,0.2s0.4-0.1,0.5-0.2C168.9,103.9,169.1,103.8,169.1,103.5z"/>
			<path class="st5" d="M170.9,104.8h-0.7l0.8-3.5h1.6c0.3,0,0.5,0,0.7,0.1c0.1,0.1,0.3,0.2,0.4,0.3c0.1,0.1,0.1,0.3,0.1,0.5
				c0,0.3-0.1,0.6-0.3,0.7c-0.2,0.2-0.5,0.3-0.8,0.3c0.1,0.1,0.2,0.2,0.3,0.4c0.2,0.3,0.3,0.6,0.5,1.1h-0.8c0-0.1-0.1-0.4-0.3-0.8
				c-0.1-0.2-0.2-0.4-0.3-0.5s-0.1-0.1-0.2-0.1c-0.1,0-0.2,0-0.3,0h-0.3L170.9,104.8z M171.3,102.8h0.4c0.4,0,0.6,0,0.8-0.1
				c0.1,0,0.2-0.1,0.3-0.2s0.1-0.2,0.1-0.3c0-0.1-0.1-0.2-0.2-0.3c-0.1,0-0.2-0.1-0.4-0.1h-0.8L171.3,102.8z"/>
			<path class="st5" d="M173.8,104.8l0.8-3.5h2.7l-0.1,0.6h-1.9l-0.2,0.8h1.9l-0.1,0.6H175l-0.2,0.9h2.1l-0.1,0.6H173.8z"/>
			<path class="st5" d="M179.5,104h-1.4l-0.4,0.8h-0.8l2-3.5h0.8l0.6,3.5h-0.7L179.5,104z M179.4,103.4l-0.2-1.4l-0.8,1.4H179.4z"/>
			<path class="st5" d="M181.9,104.8h-0.7l0.6-2.9h-1.1l0.1-0.6h2.9l-0.1,0.6h-1L181.9,104.8z"/>
			<path class="st5" d="M183.4,104.8l0.8-3.5h0.7l-0.8,3.5H183.4z"/>
			<path class="st5" d="M186.7,104.8h-0.8l-0.6-3.5h0.7l0.5,2.6l1.5-2.6h0.7L186.7,104.8z"/>
			<path class="st5" d="M188.1,104.8l0.8-3.5h0.7l-0.8,3.5H188.1z"/>
			<path class="st5" d="M191.2,104.8h-0.7l0.6-2.9H190l0.1-0.6h2.9l-0.1,0.6h-1L191.2,104.8z"/>
			<path class="st5" d="M194.5,104.8h-0.7l0.3-1.4l-1-2.1h0.8l0.5,1c0.1,0.2,0.2,0.4,0.2,0.5c0.1-0.1,0.1-0.2,0.2-0.3l0.3-0.5
				l0.5-0.7h0.9l-1.7,2.2L194.5,104.8z"/>
		</g>
	</g>
	<circle class="st6" cx="127.5" cy="34.2" r="14.5"/>
	<circle class="st6" cx="127.2" cy="34.3" r="6.1"/>
	<rect x="59.6" y="63.8" class="st7" width="134.9" height="49.1"/>
	<path class="st5" d="M110.9,199.3h-77c-5.7,0-10.3-4.6-10.3-10.3v-37.5c0-5.7,4.6-10.3,10.3-10.3h77c5.7,0,10.3,4.6,10.3,10.3V189
		C121.1,194.8,116.5,199.3,110.9,199.3z"/>
	<path class="st5" d="M217.2,198.4h-75.9c-5.7,0-10.3-4.6-10.3-10.3v-37.5c0-5.7,4.6-10.3,10.3-10.3h75.9c5.7,0,10.3,4.6,10.3,10.3
		v37.5C227.4,193.8,222.8,198.4,217.2,198.4z"/>
	<path class="st5" d="M110.9,336.3h-77c-5.7,0-10.3-4.6-10.3-10.3v-37.5c0-5.7,4.6-10.3,10.3-10.3h77c5.7,0,10.3,4.6,10.3,10.3V326
		C121.1,331.7,116.5,336.3,110.9,336.3z"/>
	<path class="st5" d="M218.3,336.4h-77c-5.7,0-10.3-4.6-10.3-10.3v-37.5c0-5.7,4.6-10.3,10.3-10.3h77c5.7,0,10.3,4.6,10.3,10.3v37.5
		C228.6,331.8,224,336.4,218.3,336.4z"/>
	<path class="st5" d="M78.1,404.3H36.8c-5.7,0-10.3-4.6-10.3-10.3v-37.5c0-5.7,4.6-10.3,10.3-10.3H78c5.7,0,10.3,4.6,10.3,10.3V394
		C88.4,399.7,83.8,404.3,78.1,404.3z"/>
	<path class="st5" d="M148.2,404.3H107c-5.7,0-10.3-4.6-10.3-10.3v-37.5c0-5.7,4.6-10.3,10.3-10.3h41.2c5.7,0,10.3,4.6,10.3,10.3
		V394C158.5,399.7,153.9,404.3,148.2,404.3z"/>
	<path class="st5" d="M218.3,404.3h-41.2c-5.7,0-10.3-4.6-10.3-10.3v-37.5c0-5.7,4.6-10.3,10.3-10.3h41.2c5.7,0,10.3,4.6,10.3,10.3
		V394C228.6,399.7,224,404.3,218.3,404.3z"/>
	<path class="st5" d="M78.1,471.2H36.8c-5.7,0-10.3-4.6-10.3-10.3v-37.5c0-5.7,4.6-10.3,10.3-10.3H78c5.7,0,10.3,4.6,10.3,10.3V461
		C88.4,466.6,83.8,471.2,78.1,471.2z"/>
	<path class="st5" d="M148.2,471.2H107c-5.7,0-10.3-4.6-10.3-10.3v-37.5c0-5.7,4.6-10.3,10.3-10.3h41.2c5.7,0,10.3,4.6,10.3,10.3
		V461C158.5,466.6,153.9,471.2,148.2,471.2z"/>
	<path class="st5" d="M218.3,471.2h-41.2c-5.7,0-10.3-4.6-10.3-10.3v-37.5c0-5.7,4.6-10.3,10.3-10.3h41.2c5.7,0,10.3,4.6,10.3,10.3
		V461C228.6,466.6,224,471.2,218.3,471.2z"/>
	<path class="st5" d="M78.1,535.6H36.8c-5.7,0-10.3-4.6-10.3-10.3v-37.5c0-5.7,4.6-10.3,10.3-10.3H78c5.7,0,10.3,4.6,10.3,10.3v37.5
		C88.4,531,83.8,535.6,78.1,535.6z"/>
	<path class="st5" d="M148.2,535.6H107c-5.7,0-10.3-4.6-10.3-10.3v-37.5c0-5.7,4.6-10.3,10.3-10.3h41.2c5.7,0,10.3,4.6,10.3,10.3
		v37.5C158.5,531,153.9,535.6,148.2,535.6z"/>
	<path class="st5" d="M218.3,535.6h-41.2c-5.7,0-10.3-4.6-10.3-10.3v-37.5c0-5.7,4.6-10.3,10.3-10.3h41.2c5.7,0,10.3,4.6,10.3,10.3
		v37.5C228.6,531,224,535.6,218.3,535.6z"/>
	<path class="st5" d="M161.7,267.8H84.4c-5.7,0-10.3-4.6-10.3-10.3V220c0-5.7,4.6-10.3,10.3-10.3h77.3c5.7,0,10.3,4.6,10.3,10.3
		v37.5C172,263.2,167.4,267.8,161.7,267.8z"/>
	<circle class="st8" cx="107.7" cy="557.5" r="8.3"/>
	<circle class="st8" cx="127.2" cy="556.3" r="8.3"/>
	<circle class="st8" cx="146.5" cy="556.3" r="8.3"/>
	<rect x="30.8" y="144.1" class="st9" width="24.5" height="26.2"/>
	<text transform="matrix(1 0 0 1 36.4032 165.9095)" class="st10 st11 st12">1</text>
	<rect x="108.9" y="212.2" class="st9" width="24.5" height="26.2"/>
	<text transform="matrix(1 0 0 1 114.5211 233.9678)" class="st10 st11 st12">2</text>
	<rect x="174.3" y="144.1" class="st9" width="24.5" height="26.2"/>
	<text transform="matrix(1 0 0 1 179.9478 165.9095)" class="st10 st11 st12">3</text>
	<rect x="33" y="279.9" class="st9" width="24.5" height="26.2"/>
	<text transform="matrix(1 0 0 1 38.6199 301.6615)" class="st10 st11 st12">4</text>
	<rect x="184.2" y="281" class="st9" width="24.5" height="26.2"/>
	<text transform="matrix(1 0 0 1 189.8924 302.8188)" class="st10 st11 st12">5</text>
	<rect x="32" y="347.7" class="st9" width="24.5" height="26.2"/>
	<text transform="matrix(1 0 0 1 37.6877 369.4817)" class="st10 st11 st12">6</text>
	<rect x="110.8" y="347.7" class="st9" width="24.5" height="26.2"/>
	<text transform="matrix(1 0 0 1 116.4271 369.4817)" class="st10 st11 st12">7</text>
	<rect x="181.7" y="347.7" class="st9" width="24.5" height="26.2"/>
	<text transform="matrix(1 0 0 1 187.3227 369.4817)" class="st10 st11 st12">8</text>
	<rect x="33.9" y="421.4" class="st9" width="24.5" height="26.2"/>
	<text transform="matrix(1 0 0 1 39.5469 443.1262)" class="st10 st11 st12">9</text>
	<rect x="113.1" y="421.4" class="st9" width="32.8" height="26.2"/>
	<text transform="matrix(1 0 0 1 116.3194 443.1262)" class="st10 st11 st12">10</text>
	<rect x="185.4" y="421.4" class="st9" width="32.8" height="26.2"/>
	<text transform="matrix(1 0 0 1 188.6381 443.1262)" class="st10 st11 st12">11</text>
	<rect x="46.1" y="481.2" class="st9" width="32.8" height="26.2"/>
	<text transform="matrix(1 0 0 1 49.3417 502.9857)" class="st10 st11 st12">12</text>
	<rect x="113.1" y="481.2" class="st9" width="32.8" height="26.2"/>
	<text transform="matrix(1 0 0 1 116.3194 502.9857)" class="st10 st11 st12">13</text>
	<rect x="185.4" y="481.2" class="st9" width="32.8" height="26.2"/>
	<text transform="matrix(1 0 0 1 188.6381 502.9857)" class="st10 st11 st12">14</text>
</g>
</svg>
