<svg version="1.1" id="Layer_2_00000029748993242864800400000008688331941077024651_" x="0" y="0" xml:space="preserve" width="748.8" height="324.4" xmlns="http://www.w3.org/2000/svg"><style type="text/css" id="style2">.st0{fill:#fff}.st2{fill:#fcd92d}.st3{fill:#fbd82b}.st4{fill:#b3b3b4}.st5{fill:#e8262a}</style><path id="rect4" d="M0 0h748.8v324.4H0z"/><g id="g16" transform="translate(-20.3 -145.7)"><path class="st0" d="M279.9 257.9h3.1c.6 0 1.1.3 1.1 1s-.5 1-1.1 1h-8.3c-.6 0-1.1-.3-1.1-1s.5-1 1.1-1h3.1v-11.7h-3.1c-.6 0-1.1-.3-1.1-1s.5-1 1.1-1h8.3c.6 0 1.1.3 1.1 1s-.5 1-1.1 1h-3.1z" id="path6"/><path class="st0" d="M293.9 258.1l-1.4 1.1c-.6.5-1.1.7-1.9.7-.7 0-1.4-.3-1.9-.8-.6-.6-.7-1.1-.7-2v-5.3c0-1.5.6-2.4 1.7-3.3l4.3-3.5c.6-.4 1.1-.9 1.8-.9 1.6 0 2.6 1.1 2.6 2.6v5.3c0 1.6-.4 2.4-1.7 3.5l-1.3 1.1.5 1.2h1.3c.6 0 1.1.4 1.1 1 0 .9-.6 1-1.4 1h-2.4zm1-3.4l.5-.4c1-.8 1.1-1.1 1.1-2.3v-5c0-.3.1-.8-.4-.8-.3 0-.4.2-.6.4l-4.3 3.5c-.7.6-.9 1-.9 1.9v5.3c0 .4 0 .7.4.7.2 0 .5-.1.6-.3l1.9-1.5-.6-1.4c-.1-.3-.3-.6-.3-.9 0-.6.5-1 1.1-1 .9 0 .9.7 1.2 1.3z" id="path8"/><path class="st0" d="M318.5 258.8c0 .6-.3 1-1 1s-1-.4-1-1v-14.7h6.8c.9 0 1.6.1 2.3.9.9.8 1 1.6 1 2.6v2.7c0 1-.1 1.8-.9 2.6-.8.9-1.6 1-2.8 1h-4.5v4.9zm0-6.9h4.6c1.2 0 1.5-.3 1.5-1.4v-2.8c0-1.1-.3-1.4-1.5-1.4h-4.6z" id="path10"/><path class="st0" d="M333.4 258.8c0 .6-.3 1-1 1s-1-.4-1-1v-14.7h6.9c1.6 0 3.2 1.1 3.2 2.9v1.4c0 1.9-1.6 2.8-3.2 2.8h-1.9l4.6 6.5c.2.3.5.7.5 1.1 0 .6-.5.9-1.1.9-.4 0-.7-.2-.9-.6l-5.6-7.9h-.5zm0-9.4h4.6c.6 0 1.5-.1 1.5-.9v-1.4c0-.8-.9-.9-1.4-.9h-4.6z" id="path12"/><path class="st0" d="M355.1 249.8c.4.8.6 1.4.6 2.2 0 1-.3 1.6-.7 2.4l-1.9 3.7c-.5 1-1.3 1.6-2.5 1.6s-2-.7-2.5-1.6l-1.9-3.7c-.4-.9-.7-1.4-.7-2.4 0-.9.1-1.4.6-2.2l2.1-4c.5-.9 1.4-1.6 2.5-1.6s2 .7 2.5 1.6zm-3.9-3c-.1-.3-.3-.6-.7-.6-.4 0-.6.3-.7.6l-1.9 3.6c-.3.6-.5 1-.5 1.6 0 .5.1.9.4 1.4l2 3.8c.1.3.3.6.7.6.4 0 .6-.4.7-.6l2-3.8c.2-.4.4-.8.4-1.4 0-.6-.1-1.1-.5-1.6z" id="path14"/></g><g id="g32" transform="translate(-20.3 -145.7)"><path class="st0" id="polygon18" d="M403.6 240.9h3.8l-3.9 16h6.2l-1.1 4.4h-10z"/><path class="st0" id="polygon20" d="M414.8 240.9l-1 4.1h2.4l-3.1 12.6h-2.4l-1 3.7h8.5l.9-3.7H417l3.1-12.6h2.4l1-4.1z"/><path class="st0" id="polygon22" d="M441.6 240.9l-5 20.4h10.2l1-4.3h-6.2l1-4.4h5.8l1-4.3h-5.7l.7-3.1h6l1-4.3z"/><path class="st0" d="M431.5 240.9h-6l-5 20.3h6.6c4.7 0 8.2-4.7 9.5-9.5 1.3-4.7 1.5-10.8-5.1-10.8zm.7 11.1c-1.4 3.9-3.4 5.3-4.8 5.3h-2.1l3-12.2h2.3c2.4-.1 3.1 3 1.6 6.9z" id="path24"/><path class="st0" d="M399.5 247.3l1.7-5s-1.1-1-2.7-1.4c-1.4-.4-3.5-.8-5.7.3-3 1.5-4.4 3.4-5.1 6.7-.7 3.3 1.1 4.7 2.9 5.4 1.8.7 4.4.5 2.7 3.2-2.2 3.5-7.5-1.5-7.5-1.5l-1.4 5s2.7 2.6 6.5 1.9c3.8-.7 6.6-3.6 7.2-6.8.6-3.1.2-5-2.2-6.2-2.4-1.2-3.9-.8-3.5-2.4.6-2.3 3.1-1.8 4.1-1.5 1.8.4 3 2.3 3 2.3z" id="path26"/><path class="st0" d="M455.2 261.3h10.9l1.5-4h-6.2s7.3-6.1 8.1-9.5c.8-3.3 1-7.3-4.1-7.3-3.8 0-5.4 1.8-5.4 1.8l-.8 4.4s3.6-2.7 5.2-1.9c1.5.8 1.3 3-.5 5.2-2.8 3.6-8 7.6-8 7.6z" id="path28"/><path class="st0" d="M480.2 240.5c-3.5-.8-7.3 1.9-9.7 9.6-2 6.5-1.5 11 2.2 11.6 3.7.6 8.1-3.3 9.5-10.1 1.4-6.7 1.2-10.4-2-11.1zm-2.2 11.2c-.7 2.4-2.2 6.3-3.8 6.1-1.5-.2-.8-4 0-7.3s2.8-6.4 4.1-6.1c1.3.3.3 4.9-.3 7.3z" id="path30"/></g><path class="st0" id="key-1" d="M26 13.9h78.1v74H26z"/><path class="st0" id="key-2" d="M113.4 13.9h78.1v74h-78.1z"/><path class="st0" id="key-3" d="M200.9 13.9H279v74h-78.1z"/><path class="st0" id="key-4" d="M289.3 13.9h78.1v74h-78.1z"/><path class="st0" id="key-5" d="M377.9 13.9H456v74h-78.1z"/><path class="st0" id="key-6" d="M466.4 13.9h78.1v74h-78.1z"/><path class="st0" id="key-7" d="M555 13.9h78.1v74H555z"/><path class="st0" id="key-8" d="M642.6 13.9h78.1v74h-78.1z"/><path class="st0" id="key-9" d="M200.9 127.2H279V200h-78.1z"/><path class="st0" id="key-10" d="M289.3 127.6h78.1V200h-78.1z"/><path class="st0" id="key-11" d="M377.9 127.6H456V200h-78.1z"/><path class="st0" id="key-12" d="M466.4 127.6h78.1V200h-78.1z"/><path class="st0" id="key-13" d="M555 127.6h77.3V200H555z"/><path class="st0" id="key-14" d="M642.6 126.7h77.1v73.2h-77.1z"/><path class="st0" id="key-15" d="M202.9 224.2H281v73.2h-78.1z"/><path class="st0" id="key-16" d="M291.3 224.2h79v73.2h-79z"/><path class="st0" id="key-17" d="M379.9 225.1h78.6v72.3h-78.6z"/><path class="st0" id="key-18" d="M469.5 225.1h77.1v72.3h-77.1z"/><path class="st0" id="key-19" d="M558 225.1h77.1v72.3H558z"/><path class="st0" id="key-20" d="M645.6 225.1h77.1v72.3h-77.1z"/><path id="rect74" fill="#3b59a8" d="M29.3 113.5h116.6V163H29.3z"/><circle class="st2" cx="39.2" cy="193.9" r="9.9" id="circle76"/><circle class="st2" cx="60.8" cy="193.9" r="9.9" id="circle78"/><circle class="st2" cx="82.8" cy="193.5" r="9.9" id="circle80"/><circle class="st2" cx="104.4" cy="193.5" r="9.9" id="circle82"/><circle class="st2" cx="125.9" cy="192.8" r="9.9" id="circle84"/><circle class="st2" cx="147.5" cy="193.1" r="9.9" id="circle86"/><g id="g122" transform="translate(-20.3 -145.7)"><circle class="st3" cx="98.3" cy="434.4" r="10.2" id="key-22"/><circle class="st3" cx="132.8" cy="433.6" r="10.2" id="key-23"/><circle class="st3" cx="167.3" cy="433.6" r="10.2" id="key-24"/><g id="g106"><path class="st0" d="M55.6 382.3c-2.9 0-5.2 2.4-5.2 5.3s2.3 5.3 5.2 5.3c2.9 0 5.2-2.4 5.2-5.3-.1-2.8-2.4-5.3-5.2-5.3zm0 8.3c-1.3 0-2.4-1.3-2.4-2.9 0-1.6 1.1-2.9 2.4-2.9 1.3 0 2.4 1.3 2.4 2.9 0 1.6-1.1 2.9-2.4 2.9z" id="path94"/><path class="st0" id="polygon96" d="M99.5 382.3h-2.2l-2.7 2.1v1.6h2.7v7h2.2z"/><path class="st0" d="M128.7 383.8v2h1.3s.7-1.4 2.1-1c1.3.5.2 2.1-1.2 3-1.3 1-2.1 2.8-2.1 2.8v2.1h7v-1.9h-4.1s.8-1.2 2.1-2.1c1.2-1 2.3-1.9 2.1-3.7-.2-1.7-1.6-2.5-4-2.5-2.1-.1-3.2 1.3-3.2 1.3z" id="path98"/><path class="st0" d="M163.3 383.3v1.8h1.2s.3-.7 1-.7 1.5.2 1.5 1-.9 1.1-1.3 1.1h-1.6v2.1h1.8c.9 0 1.2.9 1.2 1.4 0 .5-.7 1-1.9 1s-1.9-.9-1.9-.9v2.6s1.4.6 3.2.4c1.8-.3 3.4-1.3 3.3-3.2-.1-1.9-1.5-2.4-1.5-2.4s1.7-.9 1.5-2.4c-.2-1.5-1.5-2.4-3.7-2.5-2.2-.3-2.8.7-2.8.7z" id="path100"/><path class="st0" id="polygon102" d="M64.4 388.9h3.2v-2h-3.1v-2h3.1v-2.6h-6.3V393h3.1z"/><path class="st0" id="polygon104" d="M71.8 388.9H75v-2h-3.1v-2H75v-2.6h-6.3V393h3.1z"/></g><g id="g120"><path class="st4" id="rect108" d="M50.4 398.8h128.8v2H50.4z"/><path class="st4" id="rect110" d="M50.4 416.2h128.8v2H50.4z"/><path class="st5" id="polygon112" d="M69 400.8H57.4V416.2H69V404z"/><path class="st5" id="polygon114" d="M103.3 400.8H91.8V416.2h11.5V404z"/><path class="st5" id="polygon116" d="M137.9 400.8h-11.6V416.2h11.6V404z"/><path class="st5" id="polygon118" d="M160.9 400.8V416.2h11.6V400.8z"/></g></g></svg>