<svg version="1.1" id="Layer_1" x="0" y="0" xml:space="preserve" width="716.8" height="332.1" xmlns="http://www.w3.org/2000/svg"><style type="text/css" id="style900">.st0{fill:#fff}.st2{fill:#3d88c8}.st3{fill:#fdd92d}.st4{display:none}.st5{fill:#fdd92d}.st5,.st6{display:inline}.st8{fill:#727272}.st10{fill:#737374}.st11{display:inline;fill:#fff}</style><g id="Layer_2_00000168090033872021454770000002385812206243383204_" transform="translate(-35.2 -138.1)"><path id="rect902" d="M35.2 138.1H752v332.1H35.2z"/><path class="st0" id="key-1" d="M69.4 155.3h73.4v73.4H69.4z"/><path class="st0" id="key-15" d="M66.8 373.2h73.4v73.4H66.8z"/><path class="st0" id="key-2" d="M153.8 156.3h73.4v73.4h-73.4z"/><path class="st0" id="key-3" d="M235.9 156.3h73.4v73.4h-73.4z"/><path class="st0" id="key-4" d="M320.4 156.3H393v73.4h-72.6z"/><path class="st0" id="key-5" d="M402.6 157.7H476v72h-73.4z"/><path class="st0" id="key-6" d="M485.9 157.7h72.9v72h-72.9z"/><path class="st0" id="key-7" d="M568.6 157.7h72.6v71.7h-72.6z"/><path class="st0" id="key-8" d="M651.3 157.7h72.5v71.6h-72.5z"/><path class="st0" id="key-9" d="M485.9 273.6h72v72h-72z"/><path class="st0" id="key-10" d="M568.2 273.6h72.6v71.7h-72.6z"/><path class="st0" id="key-11" d="M650.7 272.7h72.5v71.6h-72.5z"/><path class="st0" id="key-12" d="M487.9 378.2h72v72h-72z"/><path class="st0" id="key-13" d="M570.2 378.2h72.6v71.7h-72.6z"/><path class="st0" id="key-14" d="M652.7 377.3h72.5v71.6h-72.5z"/><path id="rect934" fill="#3958a8" d="M65.7 262.3h108.7V313H65.7z"/><g id="g946"><path class="st0" d="M147 341.1c.1-1.4.4-9.3-3.6-13.6-1.7-1.9-4-2.9-6.9-2.9-8.4 0-11.5 8.3-14.4 16.5h-10.6c-.4.3-.9.6-1.4.9h-.1l.4.5h11.2c-2.9 8.3-5.9 15.9-14.1 15.9-3.4 0-5.7-1.5-7.2-4.6-1.4-2.9-2-7-2.6-11 0-.1 0-.2-.1-.4h6.7c.5-.2 1-.5 1.5-.7h.1l-.1-.1c-.2-.2-.3-.5-.4-.7h-8c-1.2-7.9-3-16.1-12.2-16.1h-.3c-4.7.1-8.9 3-12.2 8.4-.9 1.5-1.6 2.9-2.1 4.2V320h-1.5v21.2H57.5v1.5h11.9v20.7h1.5v-20.7h25.4c0 .2.1.4.1.6 1.2 8.4 2.4 17 11.4 17 9.5 0 12.8-8.9 15.8-17.6h5.4l.4-1.5H124c2.7-7.8 5.5-14.8 12.6-14.8 2.3 0 4.2.8 5.6 2.3 3.6 4 3.2 11.7 3.1 12.5h-4.7c-.3.2-.6.4-1 .5l-1.5.5.1.4h33l49.5-93.7h82.9v-1.4H220l-49.7 93.7zm-75.8 0c.9-2.9 5.1-14.3 13.8-14.5h.3c7.8 0 9.4 6.8 10.6 14.5z" id="path936"/><path class="st2" d="M139.6 341.6c.4-.1.7-.3 1-.5 1.5-1 2.5-2.6 2.5-4.5.1-2.5-1.8-4-3.6-4.3-.8-.2-1.6-.2-2.4-.2l-7.9-.1-.3 1 1 .1.4.1c.1 0 .3.1.4.2.1.1.1.1.1.2 0 .5 0 1-.1 1.5-.1.6-.3 1.2-.5 1.9l-1.1 4.1-.4 1.5-.8 3.3-.7 2.4-.2.6c0 .1-.1.1-.1.2l-.1.2c-.5 1.6-1.9 1.8-2.5 1.8h-.2l-.1.5-.1.6 9.2.1.4-1-1.1-.1-.4-.1c-.1 0-.3-.1-.4-.2-.2-.2-.3-.4-.3-.7.1-.7.2-1.2.3-1.8l1.6-5.8h.5l2.5 9.5h6.2l.1-1-1.1-.1c-.3 0-.5-.2-.7-.4-.1-.2-.3-.4-.4-.6-.8-2.3-1.4-4.5-2.1-6.9l-.2-.6-.1-.4zm-3.8-7.9h.3c.7 0 1.2.1 1.8.6.4.5.6 1.1.6 2 0 1.6-.4 2.6-1.2 3.6-.5.6-1.2 1-1.9 1.2-.3.1-.7.1-1 .1h-.6v-.1z" id="path938"/><path class="st2" d="M106.1 341.9c-.6.2-1.1.5-1.5.7-.6.3-1.1.6-1.6 1.1 0 0-3.3 3.1-.6 6.8.9 1.2 2.4 1.8 4 1.8h.3c1.9 0 3.2-.6 5-1.8l1 1.8h4.4l-2.7-4.1c.3-.3 1.5-1.6 2.3-2.8l-1.7-1.8c-.8 2.3-1.2 2.5-1.7 2.9l-.1.1-2.8-4-.4-.5h.1c.6-.3 1-.6 1.4-.9 1-.8 1.6-1.8 1.5-3 0-.8-.2-1.5-.7-2-.7-.8-1.8-1.3-3-1.3h-.3c-1.4 0-2.8.6-3.6 1.6-.6.7-.8 1.5-.8 2.3 0 .7.3 1.5.9 2.5.2.1.4.3.6.6zm4.6 7c-.4.4-.9.6-1.3.9-.5.2-1 .3-1.5.3-.9 0-1.8-.3-2.3-.9-.6-.6-1-1.5-.9-2.4 0-.9.4-1.7 1-2.3.4-.4.9-.7 1.5-1zm-2.2-11.8c.3-.3.7-.4 1.1-.4.4 0 .8.1 1 .4.7.7.5 1.9-.1 2.6-.2.2-.3.4-.6.5l-.8.4c-.3-.4-.6-.9-.8-1.3-.5-.9-.4-1.6.2-2.2z" id="path940"/><path class="st2" d="M93.5 340.3c.1-2.3-.8-4.6-2.3-6.1-.9-.8-2.2-1.5-3.5-1.8-1.3-.3-2.6-.4-3.9-.4h-6.9l-.3 1 1.7.2c.2 0 .3.1.5.2.5.5.2 2 0 2.7l-1.4 5.1-.4 1.5-1.7 6.1-.4 1.1c-.2.4-.4.7-.7 1-.7.5-2.2.5-2.3.5l-.2 1h8.9c2.4 0 5-.6 6.8-1.6 1-.6 4.9-3 5.9-8 .1-.5.1-1 .2-1.5v-1zm-6.1 5c-.7 1.7-1.6 3.1-3 4.2-.7.6-2.1 1.2-3.3 1.2-.5 0-.9-.1-1.3-.3-.1-.1-.2-.3-.2-.5 0-.4.8-3.8 1.7-7.4l.3-1.5c.8-3.3 1.6-6.5 1.8-7.5v-.1h.4c.7 0 1.6.2 2.1.5.8.5 1.4 1.2 1.8 2.1.6 1.6.7 3.3.5 5-.1.5-.1 1-.2 1.5-.1 1.2-.4 2.1-.6 2.8z" id="path942"/><path class="st0" id="rect944" d="M435.3 247.4h27.9v1.5h-27.9z"/></g><circle class="st3" cx="339.1" cy="439.1" r="9.9" id="circle948"/><circle class="st3" cx="362.1" cy="438.2" r="9.9" id="circle950"/><circle class="st3" cx="385.2" cy="437.5" r="9.9" id="circle952"/><circle class="st3" cx="408.2" cy="437.1" r="9.9" id="circle954"/><circle class="st3" cx="430.6" cy="437.1" r="9.9" id="circle956"/><circle class="st3" cx="453.1" cy="437.5" r="9.9" id="circle958"/><g id="g1000"><path class="st0" d="M321.9 257.9h4.4c.8 0 1.5.4 1.5 1.4 0 1-.7 1.4-1.5 1.4h-11.7c-.8 0-1.5-.4-1.5-1.4 0-1 .7-1.4 1.5-1.4h4.4v-16.4h-4.4c-.8 0-1.5-.4-1.5-1.4 0-1 .7-1.4 1.5-1.4h11.7c.8 0 1.5.4 1.5 1.4 0 1-.7 1.4-1.5 1.4h-4.4z" id="path960"/><path class="st0" d="M341.6 258.1l-2 1.6c-.8.7-1.5 1-2.7 1-1 0-1.9-.4-2.6-1.1-.8-.9-1-1.6-1-2.8v-7.4c0-2.1.8-3.4 2.4-4.7l6.1-4.9c.8-.6 1.5-1.2 2.5-1.2 2.3 0 3.7 1.6 3.7 3.7v7.5c0 2.2-.6 3.4-2.4 4.9l-1.8 1.5.7 1.7h1.8c.9 0 1.6.5 1.6 1.4 0 1.2-.9 1.4-2 1.4h-3.4zm1.3-4.7l.7-.5c1.4-1.1 1.6-1.5 1.6-3.2v-7.1c0-.4.1-1.1-.6-1.1-.4 0-.6.3-.8.5l-6 4.9c-1 .8-1.3 1.4-1.3 2.6v7.4c0 .5 0 1 .6 1 .3 0 .7-.2.9-.4l2.6-2.1-.8-1.9c-.2-.4-.4-.9-.4-1.3 0-.8.7-1.4 1.5-1.4 1.2 0 1.3 1 1.7 1.8z" id="path962"/><path class="st0" d="M376.1 259.1c0 .9-.4 1.4-1.4 1.4-1 0-1.4-.5-1.4-1.4v-20.6h9.5c1.3 0 2.3.2 3.3 1.2 1.2 1.1 1.4 2.2 1.4 3.7v3.8c0 1.4-.1 2.5-1.2 3.6-1.1 1.2-2.3 1.4-3.9 1.4h-6.3zm0-9.7h6.4c1.7 0 2.1-.4 2.1-2v-3.9c0-1.6-.4-2-2.1-2h-6.4z" id="path964"/><path class="st0" d="M396.3 259.2c0 .9-.4 1.4-1.4 1.4-1 0-1.4-.5-1.4-1.4v-20.6h9.7c2.3 0 4.5 1.6 4.5 4.1v1.9c0 2.6-2.2 4-4.5 4h-2.6l6.5 9.1c.3.4.7 1 .7 1.5 0 .8-.7 1.3-1.5 1.3-.6 0-1-.3-1.3-.8l-7.9-11.1h-.7zm0-13.3h6.4c.8 0 2.1-.1 2.1-1.2v-1.9c0-1.1-1.2-1.3-2-1.3h-6.4v4.4z" id="path966"/><path class="st0" d="M427 246.6c.5 1.1.8 1.9.8 3.1 0 1.4-.4 2.2-1 3.4l-2.6 5.2c-.7 1.4-1.8 2.3-3.5 2.3s-2.8-1-3.5-2.3l-2.6-5.2c-.6-1.2-1-2-1-3.4 0-1.2.2-2 .8-3.1l2.9-5.6c.7-1.3 1.9-2.3 3.5-2.3s2.8 1 3.5 2.3zm-5.4-4.2c-.2-.4-.4-.9-1-.9s-.8.4-1 .9l-2.6 5.1c-.4.8-.7 1.4-.7 2.3 0 .7.2 1.2.5 1.9l2.8 5.4c.2.4.4.9 1 .9s.8-.5 1-.9l2.8-5.4c.3-.6.5-1.1.5-1.9 0-.9-.2-1.5-.7-2.3z" id="path968"/><g id="g998"><path class="st0" d="M660.6 247.9l.3-2.9c2.2-.5 6.2-1.5 6.2-1.5h1.9l-3.9 15.3h-3.6l2.6-11.4c-.8.4-3.5.5-3.5.5z" id="path970"/><path class="st0" d="M670.7 256.2l2.6-.2s.7.9 1.9.6c1.2-.3 2.3-.7 2.5-2.2.2-1.5-.1-2-1.7-2.1-1-.1-3.7.1-3.7.1l1.8-8.7h9.2l-.6 2.7h-5.5l-.2 2.3s2.4.6 3.7 1.6c1 .7 1.9 3.6.9 5.5-1 1.9-2.8 3.2-5.6 3.6-2.9.4-5.8-.4-5.3-3.2z" id="path972"/><path class="st0" d="M577.7 254.5h-3.4l-1.1-5.8-2 10.3h-4.3l3.6-15.6h4.2l2.4 6.1 4.9-6.1h4.4l-2.9 15.6h-3.9l2-10.2z" id="path974"/><path class="st0" d="M596.2 255.6H591l-1.8 3.4h-4.6l8.6-15.6h5.1l1.9 15.6h-3.9zm-.7-3l.1-5.2-3 5.2z" id="path976"/><path class="st0" d="M528.6 255.6h-5.2l-1.8 3.4H517l8.6-15.6h5.1l1.9 15.6h-3.9zm-.8-3l.1-5.2-3 5.2z" id="path978"/><path class="st0" d="M604.6 255.8s0 1 2.3.8c.9-.1 1.1-.7 1.3-1.7.2-1-1.3-1.8-2.3-2.3-1-.5-2.6-1.6-2.9-3.6-.3-2 .3-3.3 1.1-4.2.8-.9 3.1-1.8 5.2-1.6 2.8.2 4.6 1.4 4.6 1.4l-1.1 2.6s-1.8-.8-3.3-.8c-1.5-.1-2.1.5-2.2 1.2-.1.7.1 1.6 1.1 2.1 1.6.8 2.6 1.4 3 1.9.6.7 1 1.6 1 2.7 0 1.4-.5 2.6-1.4 3.5-.9.9-2.3 1.5-4 1.5-1.2 0-3.1-.2-3.9-.6-.9-.5-1.7-1.5-1.3-3.2z" id="path980"/><path class="st0" d="M620.3 259h-3.5l2.4-12.5H615l.5-3.1H628l-.4 3.1h-4.9z" id="path982"/><path class="st0" d="M512.6 259H509l2.4-12.5h-4.2l.5-3.1h12.6l-.4 3.1H515z" id="path984"/><path class="st0" d="M626.5 259l2.9-15.6h9.2l-.5 3.2h-5.3l-.7 2.9h5l-.6 3.2h-5l-.6 3.2h5.9l-.6 3h-9.7z" id="path986"/><path class="st0" d="M641.8 259h-3.9l2.9-15.6h6.1c1 0 1.9.1 2.5.4.6.2 1.3.8 1.7 1.4.4.6.7 1.4.7 2.4 0 1.3 0 2.1-.7 3-.7.9-1.6 1.5-3 1.7.5.2.8.5 1.5 2.2.7 1.7.8 4.5.8 4.5H646c.1-1-.1-2.6-.3-3.6-.2-1-.8-1.9-1-2.1-.2-.2-.8-.2-1.4-.2h-.1zm2.1-8.7c1.5 0 2.1-.1 2.6-.3.5-.2 1.3-.7 1.3-1.9 0-.6-.1-1-.5-1.3-.2-.2-.4-.3-1.2-.3h-1.5z" id="path988"/><path class="st0" d="M478.9 259H475l2.9-15.6h6.1c1 0 1.9.1 2.5.4.6.2 1.3.8 1.7 1.4.4.6.7 1.4.7 2.4 0 1.3 0 2.1-.7 3-.7.9-1.6 1.5-3 1.7.5.2.8.5 1.5 2.2.7 1.7.8 4.5.8 4.5h-4.4c.1-1-.1-2.6-.3-3.6-.2-1-.8-1.9-1-2.1-.2-.2-.8-.2-1.4-.2h-.4zm2.1-8.7c1.5 0 2.1-.1 2.6-.3.5-.2 1.3-.7 1.3-1.9 0-.6-.1-1-.5-1.3-.2-.2-.4-.3-1.2-.3h-1.5z" id="path990"/><path class="st0" d="M538 259h-3.9l2.9-15.6h6.1c1 0 1.9.1 2.5.4.6.2 1.3.8 1.7 1.4.4.6.7 1.4.7 2.4 0 1.3 0 2.1-.7 3-.7.9-1.6 1.5-3 1.7.5.2.8.5 1.5 2.2.7 1.7.8 4.5.8 4.5H542c.1-1-.1-2.6-.3-3.6-.2-1-.8-1.9-1-2.1-.2-.2-.8-.2-1.4-.2h-.1zm2-8.7c1.5 0 2.1-.1 2.6-.3.5-.2 1.3-.7 1.3-1.9 0-.6-.1-1-.5-1.3-.2-.2-.4-.3-1.2-.3h-1.5z" id="path992"/><path class="st0" id="polygon994" d="M555.3 249.3l3.5-5.4h4.5l-6.5 9.4-1.5 6h-4.6l1.6-6.7-2.9-9.1h4.4z"/><path class="st0" d="M501.4 243.9c-3.7-1.9-8.4 0-10.5 4.2-2.1 4.2-.9 9.1 2.8 11 3.7 1.9 8.4 0 10.5-4.2 2.2-4.3.9-9.2-2.8-11zm-.6 8.6c-.8 2.4-2.9 4-4.6 3.4-1.8-.6-2.6-3.1-1.8-5.5s2.9-3.9 4.6-3.4c1.8.6 2.6 3.1 1.8 5.5z" id="path996"/></g></g><g class="st4" id="g1038"><circle class="st5" cx="240.9" cy="358.2" r="9.9" id="circle1002"/><circle class="st5" cx="249.9" cy="324.8" r="9.9" id="circle1004"/><circle class="st5" cx="273.6" cy="302.1" r="9.9" id="circle1006"/><circle class="st5" cx="304.5" cy="294.2" r="9.9" id="circle1008"/><circle class="st5" cx="333.1" cy="300.4" r="9.9" id="circle1010"/><circle class="st5" cx="361.2" cy="327.6" r="9.9" id="circle1012"/><circle class="st5" cx="367.9" cy="357.7" r="9.9" id="circle1014"/><circle class="st5" cx="364.3" cy="381.5" r="9.9" id="circle1016"/><g class="st6" id="g1036"><circle cx="304.5" cy="358.2" r="46.8" id="circle1018" fill="#bababa"/><path class="st8" id="rect1020" d="M257.7 357.7h19v2.2h-19z"/><path class="st8" id="rect1022" d="M332.3 357.7h19v2.2h-19z"/><path class="st8" id="rect1024" d="M303.3 311.4h2.2v19h-2.2z"/><path transform="rotate(-59.982 272.599 339.144)" class="st8" id="rect1026" d="M271.5 329.7h2.2v19h-2.2z"/><path transform="rotate(-68.438 339.218 371.631)" class="st8" id="rect1028" d="M338.1 362.1h2.2v19h-2.2z"/><path transform="rotate(-29.75 285.894 325.901)" class="st8" id="rect1030" d="M284.8 316.4h2.2v19h-2.2z"/><path transform="rotate(-27.247 337.601 341.101)" class="st8" id="rect1032" d="M328.1 340h19v2.2h-19z"/><path transform="rotate(-63.679 321.107 324.803)" class="st8" id="rect1034" d="M311.6 323.7h19v2.2h-19z"/></g></g><g id="g1092"><circle class="st3" cx="334.8" cy="300.9" r="10.1" id="key-21"/><circle transform="rotate(-71.567 248.832 323.812)" class="st3" cx="248.8" cy="323.8" id="key-18" r="10.1"/><circle class="st3" cx="239.5" cy="357" r="10.1" id="key-17"/><circle class="st3" cx="272.4" cy="300.9" r="10.1" id="key-19"/><circle class="st3" cx="303.6" cy="293" r="10.1" id="key-20"/><circle class="st3" cx="359.3" cy="325.1" r="10.1" id="key-22"/><circle class="st3" cx="367.7" cy="357.2" r="10.1" id="key-23"/><circle class="st3" cx="358.4" cy="390.5" r="10.1" id="key-24"/><g id="g1090"><circle cx="304.1" cy="357" r="48.5" id="circle1056" fill="#bbb"/><g id="g1060"><path class="st10" d="M303.6 318.9h2.4v-10.3h-4.7v10.3h2.3z" id="path1058"/></g><g id="g1064"><path class="st10" d="M265.9 357.2v-2.4h-10.3v4.7h10.3v-2.3z" id="path1062"/></g><g id="g1068"><path class="st10" d="M352.5 357.2v-2.4h-10.3v4.7h10.3v-2.3z" id="path1066"/></g><g id="g1072"><path class="st10" d="M271.4 337.5c.4-.7.9-1.4 1.3-2.1l-8.9-5.3-2.4 4 8.9 5.3c.3-.5.7-1.2 1.1-1.9z" id="path1070"/></g><g id="g1076"><path class="st10" d="M345.2 382.7c.4-.7.9-1.4 1.3-2.1l-8.8-5.4-2.5 4 8.8 5.4c.4-.6.8-1.3 1.2-1.9z" id="path1074"/></g><g id="g1080"><path class="st10" d="M327.3 314.4c-.7-.4-1.4-.7-2.1-1.1l-4.9 9.1 4.1 2.3 4.9-9.1c-.6-.4-1.3-.8-2-1.2z" id="path1078"/></g><g id="g1084"><path class="st10" d="M285 324l2.1-1.2-5.1-8.9-4 2.3 5.1 8.9c.5-.3 1.2-.7 1.9-1.1z" id="path1082"/></g><g id="g1088"><path class="st10" d="M346.2 332.8l-1.2-2.1-8.9 5.1 2.3 4 8.9-5.1c-.3-.5-.7-1.2-1.1-1.9z" id="path1086"/></g></g></g><g class="st4" id="g1106"><path class="st11" id="rect1094" d="M229.6 356.8h24.1v2.1h-24.1z"/><g class="st6" id="g1104"><g id="g1102"><path class="st0" d="M206 362c-.7 0-1.4-.1-1.9-.5-.5-.3-.9-.8-1.2-1.3-.3-.6-.4-1.3-.4-2.1s.1-1.5.4-2.1c.3-.6.7-1 1.2-1.3.5-.3 1.1-.5 1.9-.5.7 0 1.4.1 1.9.5.5.3.9.7 1.2 1.3.3.6.4 1.2.4 2s-.1 1.5-.4 2.1c-.3.6-.7 1.1-1.2 1.4-.5.3-1.2.5-1.9.5zm0-.6c.6 0 1.1-.3 1.4-.8.3-.5.4-1.4.4-2.6 0-.7-.1-1.3-.2-1.8s-.4-.8-.6-1.1c-.2-.3-.6-.4-1-.4-.6 0-1 .3-1.3.8-.3.5-.5 1.4-.5 2.4 0 1.1.1 1.9.4 2.5.3.7.8 1 1.4 1z" id="path1096"/><path class="st0" d="M214 361.8h-3.6v-.5c.3 0 .5 0 .6-.1.1 0 .2-.1.3-.3.1-.1.1-.4.1-.6v-4.5c0-.3 0-.5-.1-.6-.1-.1-.1-.2-.3-.3-.1 0-.4-.1-.6-.1v-.5h5.9l.1 2.1h-.6c0-.3-.1-.5-.1-.7 0-.2-.1-.3-.2-.4-.1-.1-.3-.2-.5-.2s-.5-.1-.8-.1h-1.3v2.7h.8c.3 0 .5 0 .7-.1.2 0 .3-.1.4-.3.1-.2.1-.4.1-.7h.5v2.7h-.5c0-.3 0-.5-.1-.7-.1-.2-.2-.2-.4-.3-.2-.1-.4-.1-.7-.1h-.8v2.1c0 .3 0 .5.1.6l.3.3c.1.1.4.1.7.1z" id="path1098"/><path class="st0" d="M220.5 361.8h-3.6v-.5c.3 0 .5 0 .6-.1.1 0 .2-.1.3-.3.1-.1.1-.4.1-.6v-4.5c0-.3 0-.5-.1-.6-.1-.1-.1-.2-.3-.3-.1 0-.4-.1-.6-.1v-.5h5.9l.1 2.1h-.6c0-.3-.1-.5-.1-.7 0-.2-.1-.3-.2-.4-.1-.1-.3-.2-.5-.2s-.5-.1-.8-.1h-1.3v2.7h.8c.3 0 .5 0 .7-.1.2 0 .3-.1.4-.3.1-.2.1-.4.1-.7h.5v2.7h-.5c0-.3 0-.5-.1-.7-.1-.2-.2-.2-.4-.3-.2-.1-.4-.1-.7-.1h-.8v2.1c0 .3 0 .5.1.6l.3.3c.1.1.4.1.7.1z" id="path1100"/></g></g></g><g class="st4" id="g1122"><path transform="rotate(-60 252.337 327.59)" class="st11" id="rect1108" d="M251.3 316.8h2.1v21.5h-2.1z"/><g class="st6" id="g1120"><g id="g1118"><path class="st0" d="M213.9 326h-.5l-.1-2.4h.6c.1.5.2.8.4 1.1.2.3.3.4.5.5.2.1.5.1.8.1.2 0 .5 0 .7-.1.2-.1.4-.2.5-.3.1-.1.2-.3.2-.6s-.1-.6-.2-.8c-.2-.2-.4-.4-.6-.5-.2-.1-.5-.3-.8-.4-.3-.2-.7-.4-1-.5-.3-.2-.5-.4-.7-.7-.2-.3-.3-.6-.3-1.1 0-.4.1-.8.3-1 .2-.2.5-.5.9-.6.4-.1.8-.2 1.3-.2.3 0 .5 0 .7.1.2 0 .3.1.4.1.1 0 .2.1.3.1h.2c.1 0 .1-.1.1-.2h.4l.1 2.3h-.5c-.2-.7-.4-1.1-.6-1.4-.3-.3-.6-.4-1-.4s-.7.1-.9.2c-.2.1-.3.4-.3.6 0 .3.1.5.2.7.2.2.4.3.6.5.3.1.5.3.8.4.3.1.5.2.8.4.3.2.5.3.7.5.2.2.4.4.5.7.1.3.2.6.2.9 0 .5-.1.8-.4 1.1-.2.3-.6.5-1 .7-.4.2-.9.2-1.5.2-.4 0-.6 0-.8-.1-.2-.1-.3-.1-.4-.2-.1-.1-.2-.1-.3-.1-.1 0-.1 0-.2.1-.1.2-.1.2-.1.3z" id="path1110"/><path class="st0" d="M224.5 325.9h-3.8v-.5c.3 0 .6 0 .7-.1.1 0 .2-.1.3-.3.1-.2.1-.4.1-.7v-5h-.5c-.4 0-.7 0-.9.1-.2.1-.4.3-.4.5s-.2.5-.3.9h-.7l.1-2.2h6.8l.1 2.2h-.6c-.1-.4-.2-.7-.3-.9-.1-.2-.2-.4-.4-.5-.2-.1-.5-.1-.9-.1h-.5v5c0 .3 0 .6.1.7.1.1.1.3.3.3.1 0 .4.1.7.1z" id="path1112"/><path class="st0" d="M230.6 325.9h-4v-.5c.3 0 .5 0 .7-.1.1 0 .2-.1.3-.3.1-.1.1-.4.1-.6v-4.3c0-.3 0-.5-.1-.6-.1-.1-.1-.2-.3-.3-.2-.1-.4-.1-.7-.1v-.5h3.7c.7 0 1.2.1 1.6.2.4.1.7.3.8.6.2.2.2.5.2.9 0 .5-.1.9-.5 1.1-.4.2-.7.5-1.2.6v.1c.3 0 .6.1.9.2.3.1.6.3.8.6.2.3.3.6.3 1 0 .6-.2 1.1-.7 1.5-.5.4-1 .5-1.9.5zm-1.3-6.6v2.5h.6c.6 0 .9-.1 1.1-.3.2-.2.3-.5.3-1 0-.4-.1-.8-.3-1-.2-.2-.6-.3-1.1-.3h-.2s-.3.1-.4.1zm.7 6h.6c.2 0 .4-.1.5-.2.1-.1.2-.2.3-.4.1-.2.1-.5.1-.8 0-.5-.1-.8-.2-1-.1-.2-.3-.4-.6-.4s-.5-.1-.8-.1h-.6v2.9h.7z" id="path1114"/><path class="st0" d="M239.5 325.9h-3.9v-.5h.7c.2 0 .3-.1.3-.3.1-.1.1-.4.1-.7v-1.2l-1.5-2.5c-.2-.4-.4-.6-.5-.8-.1-.2-.3-.3-.4-.4-.1-.1-.2-.2-.3-.2h-.4v-.5h3.5v.5c-.3 0-.5 0-.6.1-.1.1-.1.1-.1.2s.1.3.2.5l.9 1.7.4.9h.1l1.4-2.6s.1-.1.1-.2v-.2c0-.1 0-.1-.1-.2-.1 0-.2-.1-.5-.1v-.5h2.5v.5c-.2 0-.4 0-.5.1-.1.1-.3.1-.4.3-.1.2-.3.3-.4.6l-1.7 3.1v1.2c0 .3 0 .5.1.7l.3.3c.1.1.4.1.7.1z" id="path1116"/></g></g></g><g class="st4" id="g1138"><path transform="rotate(-39.004 273.258 307.594)" class="st11" id="rect1124" d="M272.2 297.4h2.1v20.4h-2.1z"/><g class="st6" id="g1136"><g id="g1134"><path class="st0" d="M237.7 301.1h-1l-2.4-5.8c-.2-.4-.3-.7-.4-.8-.1-.1-.3-.2-.6-.3v-.5h3.4v.5c-.3 0-.5 0-.6.1-.1.1-.1.1-.1.3 0 .1 0 .3.1.5l1.2 3 .3.9h.1l1.3-3.1.5 1.2h-.2zm4.2 0h-1.1l-1.6-4.4-.1-.4-.4-1c-.1-.3-.2-.5-.3-.7l-.3-.3c-.1 0-.3-.1-.5-.1v-.5h3.5v.5c-.6 0-.8.1-.8.4 0 .1 0 .2.1.3 0 .1.1.2.1.3l1.1 2.8.3.9h.1l1.1-3.4c.1-.2.1-.3.1-.4v-.3c0-.2-.1-.4-.2-.5-.1-.1-.3-.1-.6-.1v-.5h2.5v.5c-.2 0-.4.1-.6.2-.1.1-.2.3-.3.6z" id="path1126"/><path class="st0" d="M247.5 301.1H245v-.5c.2 0 .4 0 .5-.1l.3-.3c.1-.1.2-.4.3-.7l2.4-5.7h1.2l2.4 5.8c.1.4.3.6.5.8.2.2.4.3.6.3v.5h-3.6v-.5h.3c.1 0 .2 0 .3-.1.1-.1.1-.1.1-.2s0-.2-.1-.4c0-.2-.1-.3-.2-.5l-.3-.8-.1-.3-1.1-2.9-1.2 2.9-.1.3-.4.9c0 .1-.1.2-.1.3 0 .1-.1.2-.1.3 0 .2.1.3.2.3s.3.1.6.1v.5zm2.5-2.3h-2.9l.2-.6h2.5z" id="path1128"/><path class="st0" d="M257.4 301.1h-3.7v-.5c.3 0 .6 0 .7-.1.1 0 .2-.2.3-.3 0-.2.1-.4.1-.7v-4c0-.3 0-.5-.1-.7-.1-.2-.1-.3-.3-.4-.2-.1-.4-.1-.7-.1v-.5h3.7v.5c-.3 0-.6 0-.7.1-.1.1-.2.2-.3.4-.1.2 0 .4 0 .7v4.7c0 .2.1.3.3.3.1 0 .4.1.7.1z" id="path1130"/><path class="st0" d="M264.6 301.1h-6.4v-.5c.3 0 .5 0 .7-.1.2-.1.2-.1.3-.3.1-.2.1-.4.1-.6v-4.2c0-.3 0-.5-.1-.6 0-.1-.1-.3-.3-.3-.1-.1-.4-.1-.7-.1v-.5h3.8v.5c-.3 0-.6 0-.7.1-.1.1-.3.2-.3.3 0 .1-.1.4-.1.7v4.3c0 .3.1.5.2.5.1.1.3.1.7.1h.7c.3 0 .6 0 .8-.1.2 0 .4-.1.5-.3.1-.2.2-.3.3-.5.1-.2.2-.5.3-.8h.6z" id="path1132"/></g></g></g><g class="st4" id="g1154"><path class="st11" id="rect1140" d="M303.4 284.2h2.1v24.1h-2.1z"/><g class="st6" id="g1152"><g id="g1150"><path class="st0" d="M293.9 281.5H290v-.5h.7c.2 0 .3-.1.3-.3 0-.1.1-.4.1-.7v-1.2l-1.5-2.5c-.2-.4-.4-.6-.5-.8-.1-.2-.3-.3-.4-.4-.1-.1-.2-.2-.3-.2h-.4v-.5h3.5v.5c-.3 0-.5 0-.6.1-.1.1-.1.1-.1.2s.1.3.2.5l.9 1.7.4.9h.1l1.4-2.6s.1-.1.1-.2v-.2c0-.1 0-.1-.1-.2-.1 0-.2-.1-.5-.1v-.5h2.5v.5c-.2 0-.4 0-.5.1-.1.1-.3.1-.4.3-.1.2-.3.3-.4.6l-1.7 3.1v1.2c0 .3 0 .5.1.7l.3.3c.1.1.4.1.7.1z" id="path1142"/><path class="st0" d="M302.4 281.5H296v-.5c.2 0 .5 0 .6-.1.1-.1.3-.1.3-.2.1-.1.1-.3.1-.6v-4.4c0-.3 0-.5-.1-.6 0-.1-.1-.2-.3-.3-.1 0-.4-.1-.7-.1v-.5h6.3l.1 2h-.6c0-.3-.1-.6-.2-.8-.1-.2-.2-.3-.5-.4-.2-.1-.5-.1-.9-.1h-1.5v2.5h1.8c.2 0 .3-.1.3-.2s.1-.3.1-.6h.5v2.5h-.5c0-.3 0-.5-.1-.7 0-.1-.2-.2-.3-.3-.2 0-.4-.1-.8-.1h-1v2.7h1.3c.4 0 .7 0 .9-.1.2-.1.4-.1.6-.2.1-.1.3-.3.4-.5.1-.2.2-.4.3-.7h.5z" id="path1144"/><path class="st0" d="M309.8 281.5h-6.4v-.5c.3 0 .5 0 .7-.1.2-.1.2-.1.3-.3.1-.2.1-.4.1-.6v-4.2c0-.3 0-.5-.1-.6 0-.1-.1-.3-.3-.3-.1-.1-.4-.1-.7-.1v-.5h3.8v.5c-.3 0-.6 0-.7.1-.1.1-.3.2-.3.3 0 .1-.1.4-.1.7v4.3c0 .3.1.5.2.5.1.1.3.1.7.1h.7c.3 0 .6 0 .8-.1.2 0 .4-.1.5-.3.1-.2.2-.3.3-.5.1-.2.2-.5.3-.8h.6z" id="path1146"/><path class="st0" d="M314.6 281.5h-4v-.5c.3 0 .5 0 .7-.1.1 0 .2-.1.3-.3.1-.2.1-.4.1-.7v-4.3c0-.4-.1-.6-.2-.7-.1-.1-.4-.2-.8-.2v-.5h3.6c.4 0 .8 0 1.1.1.3.1.7.1.9.3.3.1.5.3.6.6.2.2.2.6.2 1s-.1.8-.2 1.1c-.2.3-.4.5-.7.7-.3.2-.6.3-1 .4-.4.1-.7.1-1.1.1h-.4c-.1 0-.3-.1-.4-.1v1.6c0 .3 0 .5.1.7 0 .1.2.2.3.3.2 0 .5.1.8.1zm-.6-3.6c.3 0 .6 0 .9-.1.2-.1.4-.2.5-.5.1-.3.2-.6.2-1 0-.5-.1-.9-.4-1.1-.2-.2-.6-.4-1.2-.4h-.6v3h.2c.1.1.2.1.4.1z" id="path1148"/></g></g></g><g class="st4" id="g1176"><path transform="rotate(-56.365 333.54 303.261)" class="st11" id="rect1156" d="M322.1 302.2H345v2.1h-22.9z"/><g class="st6" id="g1174"><g id="g1172"><path class="st0" d="M341.6 298.7h-.5l-.1-2.4h.6c.1.5.2.8.4 1.1.1.2.3.4.5.5.2.1.5.1.8.1.2 0 .5 0 .7-.1.2-.1.4-.2.5-.3.1-.1.2-.3.2-.6s-.1-.6-.2-.8c-.2-.2-.4-.4-.6-.5-.2-.1-.5-.3-.8-.4-.3-.2-.7-.4-1-.5-.3-.1-.5-.4-.7-.7-.2-.3-.3-.6-.3-1.1 0-.4.1-.8.3-1 .2-.2.5-.5.9-.6.4-.1.8-.2 1.3-.2.3 0 .5 0 .7.1.2 0 .3.1.5.1.1 0 .2.1.3.1h.2c.1 0 .1-.1.1-.2h.4l.1 2.3h-.5c-.2-.7-.4-1.1-.6-1.4-.2-.3-.6-.4-1-.4s-.7.1-.9.2c-.2.1-.3.4-.3.6 0 .3.1.5.2.7.2.2.4.3.6.5.3.1.5.3.8.4.3.1.5.2.8.4.3.2.5.3.7.5.2.2.4.4.5.7.1.3.2.6.2.9 0 .5-.1.8-.4 1.1-.2.3-.6.5-1 .7-.4.2-.9.2-1.5.2-.4 0-.6 0-.8-.1-.2-.1-.3-.1-.4-.2-.1-.1-.2-.1-.3-.1-.1 0-.1 0-.2.1s-.2.2-.2.3z" id="path1158"/><path class="st0" d="M352.2 298.5h-3.8v-.5c.3 0 .6 0 .7-.1.1 0 .2-.1.3-.3.1-.2.1-.4.1-.7v-5h-.5c-.4 0-.7 0-.9.1-.2.1-.4.3-.4.5-.1.2-.2.5-.3.9h-.6l.1-2.2h6.8l.1 2.2h-.6c-.1-.4-.2-.7-.3-.9-.1-.2-.2-.4-.4-.5-.2-.1-.5-.1-.9-.1h-.5v5c0 .3 0 .6.1.7 0 .2.1.3.3.3.1 0 .4.1.7.1z" id="path1160"/><path class="st0" d="M358.1 298.5h-3.7v-.5c.3 0 .6 0 .7-.1l.3-.3c.1-.1.1-.4.1-.7v-4c0-.3 0-.5-.1-.7-.1-.2-.1-.3-.3-.4-.1-.1-.4-.1-.7-.1v-.5h3.7v.5c-.3 0-.6 0-.7.1-.1.1-.2.2-.3.4-.1.2 0 .4 0 .7v4.7c0 .2.1.3.3.3.1 0 .4.1.7.1z" id="path1162"/><path class="st0" d="M366.2 298.6h-1.3l-4.3-5.7h-.4l-.3-.5c-.1-.2-.2-.3-.4-.4-.1-.1-.2-.1-.3-.2-.1-.1-.3 0-.4 0v-.5h2.7l3.9 5.2h.1v-3.3-.8c0-.2-.1-.4-.3-.5-.1-.1-.4-.2-.7-.2v-.5h2.8v.5c-.3 0-.5.1-.7.2-.1.1-.2.3-.3.5-.1.2 0 .5 0 .8zm-4.6-.1h-2.8v-.5c.3 0 .5-.1.7-.3.1-.2.2-.5.3-.8 0-.3.1-.7.1-1v-3.8h.7v4.6c0 .4 0 .6.1.8 0 .2.1.3.3.4.2.1.4.1.6.1z" id="path1164"/><path class="st0" d="M371.6 298.6c-1.3 0-2.2-.3-2.8-1-.6-.6-.9-1.6-.9-2.7 0-.9.2-1.6.5-2.1s.8-1 1.3-1.2c.6-.3 1.2-.4 1.9-.4.4 0 .7 0 .9.1.2.1.4.1.6.2.2.1.3.1.4.1.1 0 .2 0 .2-.1s.1-.2.1-.3h.5v2.6h-.5c-.1-.7-.4-1.2-.8-1.6-.4-.4-.8-.5-1.4-.5-.7 0-1.2.2-1.5.8-.3.6-.5 1.2-.5 2.2 0 1.1.1 1.9.5 2.4.3.5.8.8 1.5.8.3 0 .6 0 .8-.1.2-.1.4-.2.6-.4v-1c0-.3 0-.5-.1-.6-.1-.1-.1-.2-.3-.3-.2-.1-.4-.1-.6-.1v-.5h3.2v.5c-.3 0-.5 0-.6.2-.1.1-.1.3-.1.7v1.5c-.4.2-.8.4-1.3.5-.4.3-1 .3-1.6.3z" id="path1166"/><path class="st0" d="M382.4 298.5H376v-.5c.2 0 .5 0 .6-.1.1-.1.3-.1.3-.2s.1-.3.1-.6v-4.4c0-.3 0-.5-.1-.6 0-.1-.1-.2-.3-.3-.1 0-.4-.1-.7-.1v-.5h6.3l.1 2h-.6c0-.3-.1-.6-.2-.8-.1-.2-.2-.3-.5-.4-.2-.1-.5-.1-.9-.1h-1.5v2.5h1.8c.2 0 .3-.1.3-.2s.1-.3.1-.6h.5v2.5h-.5c0-.3 0-.5-.1-.7 0-.1-.2-.2-.3-.3-.2 0-.4-.1-.8-.1h-1v2.7h1.3c.4 0 .7 0 .9-.1.2-.1.4-.1.6-.2.1-.1.3-.3.4-.5.1-.2.2-.4.3-.7h.5z" id="path1168"/><path class="st0" d="M387.2 298.5h-3.8v-.5c.3 0 .5 0 .6-.1.1 0 .2-.1.3-.3.1-.2.1-.4.1-.7v-4.4c0-.2 0-.4-.1-.5-.1-.1-.1-.2-.3-.3-.1 0-.4-.1-.7-.1v-.5h3.6c.5 0 1 .1 1.5.2s.8.3 1.1.6c.3.3.4.6.4 1.1 0 .4-.1.7-.2 1l-.6.6c-.2.2-.6.2-.9.3l.4.4c.1.2.3.4.5.7.2.3.5.8 1 1.3l.5.5c.1.1.4.1.6.1v.5h-2.5c-.2-.4-.5-.8-.6-1.1-.2-.3-.3-.5-.4-.7-.1-.2-.2-.4-.3-.5-.1-.1-.2-.3-.3-.5-.1-.2-.2-.3-.3-.3-.1 0-.2-.1-.4-.1h-.2v1.7c0 .3 0 .5.1.7.1.2.2.2.3.3.1.1.4.1.7.1zm-1.1-3.7h.4c.4 0 .7-.1.9-.2.2-.1.5-.2.6-.5.1-.2.2-.5.2-.9s-.1-.8-.3-1c-.2-.2-.6-.4-1.1-.4h-.7z" id="path1170"/></g></g></g><g class="st4" id="g1204"><path transform="rotate(-27.675 360.47 329.437)" class="st11" id="rect1178" d="M349 328.4h22.9v2.1H349z"/><g class="st6" id="g1202"><g id="g1200"><path class="st0" d="M376.5 326h-3.7v-.5c.3 0 .6 0 .7-.1l.3-.3c0-.2.1-.4.1-.7v-4c0-.3 0-.5-.1-.7-.1-.2-.1-.3-.3-.4-.2-.1-.4-.1-.7-.1v-.5h3.7v.5c-.3 0-.6 0-.7.1-.1.1-.2.2-.3.4-.1.2 0 .4 0 .7v4.7c0 .2.1.3.3.3.1 0 .4.1.7.1z" id="path1180"/><path class="st0" d="M384.6 326.1h-1.3l-4.3-5.7h-.4l-.3-.5c-.1-.2-.2-.3-.4-.4-.2-.1-.2-.1-.3-.2-.1-.1-.3 0-.4 0v-.5h2.7l3.9 5.2h.1v-3.3-.8c0-.2-.1-.4-.3-.5-.1-.1-.4-.2-.7-.2v-.5h2.8v.5c-.3 0-.5.1-.7.2-.1.1-.2.3-.3.5-.1.2 0 .5 0 .8zm-4.6-.1h-2.8v-.5c.3 0 .5-.1.7-.3.2-.2.2-.5.3-.8 0-.3.1-.7.1-1v-3.8h.7v4.6c0 .4 0 .6.1.8.1.2.1.3.3.4.2.1.4.1.6.1z" id="path1182"/><path class="st0" d="M391.4 326h-3.8v-.5c.3 0 .6 0 .7-.1.1 0 .2-.1.3-.3.1-.2.1-.4.1-.7v-5h-.5c-.4 0-.7 0-.9.1-.2.1-.4.3-.4.5s-.2.5-.3.9h-.6l.1-2.2h6.8l.1 2.2h-.6c-.1-.4-.2-.7-.3-.9-.1-.2-.2-.4-.4-.5-.2-.1-.5-.1-.9-.1h-.5v5c0 .3 0 .6.1.7.1.1.1.3.3.3.1 0 .4.1.7.1z" id="path1184"/><path class="st0" d="M400 326h-6.4v-.5c.2 0 .5 0 .6-.1.1-.1.3-.1.3-.2.1-.1.1-.3.1-.6v-4.4c0-.3 0-.5-.1-.6 0-.1-.1-.2-.3-.3-.1 0-.4-.1-.7-.1v-.5h6.3l.1 2h-.6c0-.3-.1-.6-.2-.8-.1-.2-.2-.3-.5-.4-.2-.1-.5-.1-.9-.1h-1.5v2.5h1.8c.2 0 .3-.1.3-.2s.1-.3.1-.6h.5v2.5h-.5c0-.3 0-.5-.1-.7 0-.1-.2-.2-.3-.3-.2 0-.4-.1-.8-.1h-1v2.7h1.3c.4 0 .7 0 .9-.1.2-.1.4-.1.6-.2.1-.1.3-.3.4-.5.1-.2.2-.4.3-.7h.5z" id="path1186"/><path class="st0" d="M404.8 326H401v-.5c.3 0 .5 0 .6-.1.1 0 .2-.1.3-.3.1-.2.1-.4.1-.7V320c0-.2 0-.4-.1-.5 0-.1-.1-.2-.3-.3-.1 0-.4-.1-.7-.1v-.5h3.6c.5 0 1 .1 1.5.2.4.1.8.3 1.1.6.3.3.4.6.4 1.1 0 .4-.1.7-.2 1l-.6.6-.9.3.4.4c.2.2.3.4.5.7.2.3.5.8 1 1.3l.5.5c.1.1.4.1.6.1v.5h-2.5c-.2-.4-.5-.8-.6-1.1-.1-.3-.3-.5-.4-.7-.1-.2-.2-.4-.3-.5-.1-.1-.2-.3-.3-.5-.1-.2-.2-.3-.3-.3-.1 0-.2-.1-.4-.1h-.2v1.7c0 .3 0 .5.1.7.1.2.2.2.3.3.1.1.4.1.7.1zm-1.1-3.7h.4c.4 0 .7-.1.9-.2.2-.1.4-.2.6-.5.1-.2.2-.5.2-.9s-.1-.8-.3-1c-.2-.2-.6-.4-1.1-.4h-.7z" id="path1188"/><path class="st0" d="M415.4 326.1c-.8 0-1.5-.2-2-.5s-.9-.8-1.2-1.3c-.2-.5-.4-1.2-.4-1.9 0-.8.2-1.5.5-2.1.3-.6.8-1 1.3-1.3.5-.3 1.2-.4 2-.4.4 0 .7 0 .9.1.2.1.4.1.5.2.1.1.2.1.4.1.1 0 .2 0 .3-.1 0-.1.1-.2.1-.2h.5v2.7h-.5c-.1-.7-.4-1.2-.8-1.6-.4-.4-.8-.5-1.4-.5-.7 0-1.2.2-1.5.8-.3.5-.5 1.2-.5 2.2 0 .7.1 1.2.2 1.7s.4.7.8.9c.4.2.8.3 1.3.3s1-.1 1.4-.3c.4-.2.7-.5 1-.8l.4.3c-.2.3-.5.7-.8.9-.3.3-.6.5-1 .7-.4.1-.9.1-1.5.1z" id="path1190"/><path class="st0" d="M425.7 326h-6.4v-.5c.3 0 .5 0 .7-.1.2-.1.2-.1.3-.3.1-.2.1-.4.1-.6v-4.2c0-.3 0-.5-.1-.6 0-.1-.1-.3-.3-.3-.2 0-.4-.1-.7-.1v-.5h3.8v.5c-.3 0-.6 0-.7.1-.2.1-.3.2-.3.3 0 .1-.1.4-.1.7v4.3c0 .3.1.5.2.5.1.1.3.1.7.1h.7c.3 0 .6 0 .8-.1.2-.1.4-.1.5-.3.1-.2.2-.3.3-.5.1-.2.2-.5.3-.8h.6z" id="path1192"/><path class="st0" d="M433 326h-6.4v-.5c.2 0 .5 0 .6-.1.1-.1.3-.1.3-.2.1-.1.1-.3.1-.6v-4.4c0-.3 0-.5-.1-.6 0-.1-.1-.2-.3-.3-.1 0-.4-.1-.7-.1v-.5h6.3l.1 2h-.6c0-.3-.1-.6-.2-.8-.1-.2-.2-.3-.5-.4-.2-.1-.5-.1-.9-.1h-1.5v2.5h1.8c.2 0 .3-.1.3-.2s.1-.3.1-.6h.5v2.5h-.5c0-.3 0-.5-.1-.7-.1-.2-.2-.2-.3-.3-.2 0-.4-.1-.8-.1h-1v2.7h1.3c.4 0 .7 0 .9-.1.2-.1.4-.1.6-.2.1-.1.3-.3.4-.5.1-.2.2-.4.3-.7h.5z" id="path1194"/><path class="st0" d="M436.2 326h-2.5v-.5c.2 0 .4 0 .5-.1l.3-.3c.1-.1.2-.4.3-.7l2.4-5.7h1.2l2.4 5.8c.1.4.3.6.5.8.2.2.4.3.6.3v.5h-3.6v-.5h.3c.1 0 .2 0 .3-.1.1-.1.1-.1.1-.2s0-.2-.1-.4c0-.2-.1-.3-.2-.5l-.3-.8-.1-.3-1-2.9-1.2 2.9-.1.3-.4.9c0 .1-.1.2-.1.3 0 .1-.1.2-.1.3 0 .2.1.3.2.3s.3.1.6.1zm2.4-2.3h-2.9l.2-.6h2.5z" id="path1196"/><path class="st0" d="M446.2 326h-3.8v-.5c.3 0 .5 0 .6-.1.1 0 .2-.1.3-.3.1-.2.1-.4.1-.7V320c0-.2 0-.4-.1-.5-.1-.1-.1-.2-.3-.3-.1 0-.4-.1-.7-.1v-.5h3.6c.5 0 1 .1 1.5.2s.8.3 1.1.6c.3.3.4.6.4 1.1 0 .4-.1.7-.2 1l-.6.6c-.2.2-.6.2-.9.3l.4.4c.1.2.3.4.5.7.2.3.5.8 1 1.3l.5.5c.1.1.4.1.6.1v.5h-2.5c-.2-.4-.5-.8-.6-1.1-.2-.3-.3-.5-.4-.7-.1-.2-.2-.4-.3-.5-.1-.1-.2-.3-.3-.5-.1-.2-.2-.3-.3-.3-.1 0-.2-.1-.4-.1h-.2v1.7c0 .3 0 .5.1.7.1.2.2.2.3.3.1.1.4.1.7.1zm-1.1-3.7h.4c.4 0 .7-.1.9-.2.2-.1.5-.2.6-.5.1-.2.2-.5.2-.9s-.1-.8-.3-1c-.2-.2-.6-.4-1.1-.4h-.7z" id="path1198"/></g></g></g><g class="st4" id="g1224"><path class="st11" id="rect1206" d="M354.1 358.1h25.1v2.1h-25.1z"/><g class="st6" id="g1222"><g id="g1220"><path class="st0" d="M385.1 362.7h-3.7v-.5c.3 0 .5 0 .7-.1.1 0 .2-.1.3-.3.1-.2.1-.4.1-.7v-4-.7c0-.2-.1-.3-.3-.4-.2-.1-.4-.1-.7-.1v-.5h3.8v.5c-.3 0-.6 0-.7.1-.1.1-.2.2-.3.4 0 .2-.1.4-.1.7v1.7h3.2v-1.7c0-.3 0-.5-.1-.7-.1-.2-.1-.3-.3-.4-.2-.1-.4-.1-.7-.1v-.5h3.8v.5c-.3 0-.6 0-.7.1-.1.1-.2.2-.3.4-.1.2-.1.4-.1.7v4c0 .3 0 .5.1.7 0 .2.1.3.3.3.1 0 .4.1.7.1v.5h-3.8v-.5c.3 0 .6 0 .7-.1l.3-.3c.1-.1.1-.4.1-.7v-1.8h-3.2v1.8c0 .3 0 .6.1.7.1.1.1.3.3.3.1 0 .4.1.7.1z" id="path1208"/><path class="st0" d="M394.5 362.7h-3.7v-.5c.3 0 .6 0 .7-.1l.3-.3c0-.2.1-.4.1-.7v-4c0-.3 0-.5-.1-.7-.1-.2-.1-.3-.3-.4-.2-.1-.4-.1-.7-.1v-.5h3.7v.5c-.3 0-.6 0-.7.1-.1.1-.2.2-.3.4-.1.2 0 .4 0 .7v4.7c0 .2.1.3.3.3.1 0 .4.1.7.1z" id="path1210"/><path class="st0" d="M398 360.4h-2.6v-.9h2.6z" id="path1212"/><path class="st0" d="M405.2 362.7h-6.4v-.5c.3 0 .5 0 .7-.1.2-.1.2-.1.3-.3.1-.2.1-.4.1-.6V357c0-.3 0-.5-.1-.6 0-.1-.1-.3-.3-.3-.2 0-.4-.1-.7-.1v-.5h3.8v.5c-.3 0-.6 0-.7.1-.2.1-.3.2-.3.3 0 .1-.1.4-.1.7v4.3c0 .3.1.5.2.5.1.1.3.1.7.1h.7c.3 0 .6 0 .8-.1.2-.1.4-.1.5-.3.1-.2.2-.3.3-.5.1-.2.2-.5.3-.8h.6z" id="path1214"/><path class="st0" d="M409.9 362.8c-.8 0-1.5-.1-2-.4-.5-.3-1-.7-1.2-1.3-.2-.6-.4-1.2-.4-2s.1-1.4.4-2c.3-.6.7-1 1.3-1.3.5-.3 1.2-.5 2-.5s1.5.1 2 .4c.5.3 1 .7 1.2 1.2.2.5.4 1.2.4 2s-.1 1.5-.4 2.1c-.3.6-.7 1-1.2 1.3-.7.4-1.3.5-2.1.5zm0-.5c.6 0 1.1-.3 1.5-.8.4-.5.5-1.4.5-2.5 0-.7-.1-1.2-.2-1.7s-.4-.8-.7-1c-.3-.2-.6-.4-1-.4-.6 0-1 .3-1.4.8-.3.5-.5 1.3-.5 2.3 0 1 .2 1.8.5 2.4.3.6.6.9 1.3.9z" id="path1216"/><path class="st0" d="M418.5 362.8h-1l-2.4-5.8c-.2-.4-.3-.7-.4-.8-.1-.1-.3-.2-.6-.3v-.5h3.5v.5c-.3 0-.5 0-.6.1-.1.1-.1.1-.1.3 0 .1 0 .3.1.5l1.2 3 .3.9h.1l1.3-3.1.5 1.2h-.4zm4.2 0h-1l-1.6-4.4-.1-.4-.4-1c-.1-.3-.2-.5-.3-.7l-.3-.3c-.1 0-.3-.1-.5-.1v-.5h3.5v.5c-.5 0-.8.1-.8.4 0 .1 0 .2.1.3 0 .1.1.2.1.3l1.1 2.8.3.9h.1l1.1-3.4c0-.2.1-.3.1-.4v-.3c0-.2-.1-.4-.2-.5-.1-.1-.3-.1-.5-.1v-.5h2.5v.5c-.2 0-.4.1-.6.2-.1.1-.2.3-.3.6z" id="path1218"/></g></g></g><g class="st4" id="g1242"><path transform="rotate(-60 361.764 382.981)" class="st11" id="rect1226" d="M360.7 370.4h2.1v25.1h-2.1z"/><g class="st6" id="g1240"><g id="g1238"><path class="st0" d="M380.8 394.7H377v-.5c.3 0 .5 0 .6-.1.1-.1.2-.1.3-.3.1-.2.1-.4.1-.7v-4.4c0-.2 0-.4-.1-.5 0-.1-.1-.2-.3-.3-.1 0-.4-.1-.7-.1v-.5h3.6c.5 0 1 .1 1.5.2.4.1.8.3 1.1.6.3.3.4.6.4 1.1 0 .4-.1.7-.2 1l-.6.6-.9.3.4.4c.1.2.3.4.5.7.2.3.5.8 1 1.3l.5.5c.1.1.4.1.6.1v.5h-2.5c-.2-.4-.5-.8-.6-1.1-.2-.3-.3-.5-.4-.7-.1-.2-.2-.4-.3-.5-.1-.1-.2-.3-.3-.5-.1-.2-.2-.3-.3-.3-.1 0-.2-.1-.4-.1h-.2v1.7c0 .3 0 .5.1.7.1.2.2.2.3.3.1.1.4.1.7.1zm-1.1-3.7h.4c.4 0 .7-.1.9-.2.2-.1.4-.2.6-.5.1-.2.2-.5.2-.9s-.1-.8-.3-1c-.2-.2-.6-.4-1.1-.4h-.7z" id="path1228"/><path class="st0" d="M387.3 394.7h-2.5v-.5c.2 0 .4 0 .5-.1l.3-.3c.1-.1.2-.4.3-.7l2.4-5.7h1.2l2.4 5.8c.1.4.3.6.5.8.2.2.4.3.6.3v.5h-3.6v-.5h.3c.1 0 .2 0 .3-.1.1-.1.1-.1.1-.2s0-.2-.1-.4c0-.2-.1-.3-.2-.5l-.3-.8-.1-.3-1-2.9-1.2 2.9-.1.3-.4.9c0 .1-.1.2-.1.3 0 .1-.1.2-.1.3 0 .2.1.3.2.3s.3.1.6.1zm2.5-2.3h-2.9l.2-.6h2.5z" id="path1230"/><path class="st0" d="M396.8 394.7h-3.3v-.5c.3 0 .5 0 .7-.1.1 0 .2-.1.3-.3.1-.2.1-.4.1-.7v-4.3c0-.3 0-.5-.1-.6-.1-.1-.2-.2-.3-.2-.1 0-.4-.1-.6-.1v-.5h3.2c.6 0 1.1 0 1.6.1s1 .3 1.4.5c.4.2.8.6 1 1 .2.5.4 1 .4 1.8 0 .7-.1 1.3-.3 1.8-.2.5-.5.9-1 1.1-.5.2-.9.5-1.4.6-.6.4-1.1.4-1.7.4zm-.1-.6c.6 0 1-.1 1.4-.2.4-.1.7-.5.9-.9.2-.4.3-1 .3-1.9 0-1-.2-1.7-.7-2.2-.5-.5-1.1-.8-2.1-.8h-.4v5.9h.3c.1 0 .2.1.3.1z" id="path1232"/><path class="st0" d="M405.8 394.7h-3.7v-.5c.3 0 .6 0 .7-.1l.3-.3c.1-.1.1-.4.1-.7v-4c0-.3 0-.5-.1-.7-.1-.2-.1-.3-.3-.4-.1-.1-.4-.1-.7-.1v-.5h3.7v.5c-.3 0-.6 0-.7.1-.1.1-.2.2-.3.4-.1.2 0 .4 0 .7v4.7c0 .2.1.3.3.3.1 0 .4.1.7.1z" id="path1234"/><path class="st0" d="M410.4 394.9c-.8 0-1.5-.1-2-.4-.5-.3-1-.7-1.2-1.3-.2-.6-.4-1.2-.4-2s.1-1.4.4-2c.3-.6.7-1 1.3-1.3.5-.3 1.2-.5 2-.5s1.5.1 2 .4c.5.3 1 .7 1.2 1.2.3.5.4 1.2.4 2s-.1 1.5-.4 2.1c-.3.6-.7 1-1.2 1.3-.5.3-1.3.5-2.1.5zm0-.6c.6 0 1.1-.3 1.5-.8.4-.5.5-1.4.5-2.5 0-.7-.1-1.2-.2-1.7s-.4-.8-.7-1c-.3-.2-.6-.4-1-.4-.6 0-1 .3-1.4.8-.3.5-.5 1.3-.5 2.3 0 1 .2 1.8.5 2.4.3.6.6.9 1.3.9z" id="path1236"/></g></g></g></g></svg>