<svg version="1.1" id="Layer_1" x="0" y="0" xml:space="preserve" width="676.76" height="259.94" xmlns="http://www.w3.org/2000/svg"><style type="text/css" id="style2">.st0{display:none;fill:#30302f}.st3{fill:#fff}.st3,.st4{display:inline}.st5{fill:#fff}.st6{fill:none;stroke:#fff;stroke-width:3;stroke-miterlimit:10}.st8{fill:#f8e02a}.st9{fill:none}.st10{display:none;enable-background:new}.st11{font-family:&apos;Ayuthaya&apos;}.st12{font-size:22px}</style><g id="Layer_1_00000067196964310729227420000000810147444967137928_"><path class="st0" d="M233.8 580.6H20.4c-8.1 0-14.6-6.6-14.6-14.6V15.1C5.8 7 12.4.5 20.4.5h213.4c8.1 0 14.6 6.6 14.6 14.6v550.8c.1 8.1-6.5 14.7-14.6 14.7z" id="path4"/><path class="st0" d="M260.7 45.9c-3.1-11.7-7.3-27.7-7.3-27.7C248.9 4 236.1.5 228.3.5H23.2c-7.8 0-21 2.7-25.1 18.7 0 0-4.7 15.6-6.4 26.9-1.7 11.3-3.2 121.1-3.2 122.6v75.5c0 4.5.6 9 1.9 13.3l6.2 21.6c1.9 6.6 2.4 13.5 1.6 20.3l-1 8.1c-.2 1.8-.4 3.7-.4 5.6v36.2c0 5.7 1.1 11.4 3.3 16.7 3.7 9 4.3 19 1.7 28.3l-.5 1.7c-1 3.8-1.6 7.7-1.6 11.6v36.7c0 4.1.6 8.2 1.7 12.2l4.3 14.8h.1v95.1c0 8.1 6.6 14.6 14.6 14.6h213.4c8.1 0 14.6-6.6 14.6-14.6v-95.6l4.1-16.2c.9-3.5 1.3-7.1 1.3-10.7v-36.8c0-3.6-.4-7.2-1.3-10.7l-1.2-5c-1.9-7.6-1.7-15.6.5-23.2l1.3-4.3c1.2-4.1 1.8-8.3 1.8-12.5V313c0-2-.1-3.9-.4-5.9l-.9-6.7c-1-7.2-.4-14.5 1.7-21.4l6.5-21.2c1.4-4.5 2.1-9.3 2.1-14v-74.9c.1-1.7-.1-111.3-3.2-123z" id="path6"/><path d="M287.27 47.392s2.517-15.41 4.656-20.86c1.132-3.059 5.662-7.333 10.99-9.294 4.278-1.568 11.786-1.058 19.252-1.372 7.466-.314 39.932-.353 45.846.275 5.914.627 6.711.98 8.809 2.548 1.72 1.294 8.137 6.274 9.353 11.724 1.217 5.45 3.524 16.861 3.524 16.861l2.726 41.054-1.342 45.642s-1.258 6.274-1.552 11.058c-.294 4.783.461 12.547.042 15.017-.42 2.47-1.888 12.43-1.888 13.881 0 1.451-.21 14.508-.167 16.312.042 1.804-1.133 9.215-1.133 9.215l-1.049 25.84s-.335 5.646-3.062 9.371c-3.355 4.588-7.172 7.607-11.115 8.47-3.943.863-6.711.941-13.884 1.059-18.33.353-48.237-.236-51.844-1.294-5.075-1.53-7.256-2.55-9.521-4.902-2.265-2.352-5.705-6.47-5.999-11.45-.293-5.018-.713-28.545-.713-28.545l-.42-1.921s-.502-7.333-.544-10.235c-.042-2.94.629-8.077.335-12.39-.251-4.314-.797-7.137-.797-7.137s-.713-5.764-.797-7.92c-.084-2.157.21-5.686.168-7.882-.042-2.196-.377-7.254-.377-7.254s-.294-7.019-.755-9.371c-.462-2.353-1.678-46.23-1.678-46.23z" id="path8" stroke-width="1" fill="#30302f"/><ellipse class="st6" cx="337.814" cy="29.08" id="circle98" rx="6.082" ry="5.686"/><ellipse class="st6" cx="337.688" cy="29.119" id="circle100" rx="2.559" ry="2.392"/><path id="rect102" stroke-width="1" fill="#2658a8" d="M309.333 40.687h56.584V59.94h-56.584z"/><path class="st5" d="M330.85 93.818h-32.297c-2.39 0-4.32-1.804-4.32-4.039V75.075c0-2.235 1.93-4.039 4.32-4.039h32.298c2.39 0 4.32 1.804 4.32 4.039v14.704c-.042 2.274-1.971 4.039-4.32 4.039z" id="key-1" stroke-width="1"/><path class="st5" d="M375.438 93.465h-31.836c-2.39 0-4.32-1.804-4.32-4.039V74.722c0-2.235 1.93-4.039 4.32-4.039h31.836c2.391 0 4.32 1.804 4.32 4.039v14.704c-.041 2.235-1.97 4.039-4.32 4.039z" id="key-2" stroke-width="1"/><path class="st5" d="M330.85 147.537h-32.297c-2.39 0-4.32-1.804-4.32-4.039v-14.704c0-2.235 1.93-4.039 4.32-4.039h32.298c2.39 0 4.32 1.804 4.32 4.04v14.703c-.042 2.235-1.971 4.04-4.32 4.04z" id="key-4" stroke-width="1"/><path class="st5" d="M375.9 147.576h-32.298c-2.39 0-4.32-1.803-4.32-4.038v-14.705c0-2.235 1.93-4.038 4.32-4.038H375.9c2.39 0 4.32 1.803 4.32 4.038v14.705c0 2.235-1.93 4.038-4.32 4.038z" id="key-5" stroke-width="1"/><path class="st5" d="M317.093 174.2H299.77c-2.391 0-4.32-1.803-4.32-4.038v-14.704c0-2.235 1.929-4.039 4.32-4.039h17.281c2.39 0 4.32 1.804 4.32 4.039v14.704c.042 2.235-1.887 4.039-4.278 4.039z" id="key-6" stroke-width="1"/><path class="st5" d="M346.496 174.2h-17.281c-2.39 0-4.32-1.803-4.32-4.038v-14.704c0-2.235 1.93-4.039 4.32-4.039h17.281c2.391 0 4.32 1.804 4.32 4.039v14.704c0 2.235-1.929 4.039-4.32 4.039z" id="key-7" stroke-width="1"/><path class="st5" d="M375.9 174.2h-17.281c-2.391 0-4.32-1.803-4.32-4.038v-14.704c0-2.235 1.929-4.039 4.32-4.039h17.28c2.392 0 4.321 1.804 4.321 4.039v14.704c0 2.235-1.93 4.039-4.32 4.039z" id="key-8" stroke-width="1"/><path class="st5" d="M317.093 200.433H299.77c-2.391 0-4.32-1.804-4.32-4.039V181.69c0-2.235 1.929-4.039 4.32-4.039h17.281c2.39 0 4.32 1.804 4.32 4.039v14.743c.042 2.196-1.887 4-4.278 4z" id="key-9" stroke-width="1"/><path class="st5" d="M346.496 200.433h-17.281c-2.39 0-4.32-1.804-4.32-4.039V181.69c0-2.235 1.93-4.039 4.32-4.039h17.281c2.391 0 4.32 1.804 4.32 4.039v14.743c0 2.196-1.929 4-4.32 4z" id="key-10" stroke-width="1"/><path class="st5" d="M375.9 200.433h-17.281c-2.391 0-4.32-1.804-4.32-4.039V181.69c0-2.235 1.929-4.039 4.32-4.039h17.28c2.392 0 4.321 1.804 4.321 4.039v14.743c0 2.196-1.93 4-4.32 4z" id="key-11" stroke-width="1"/><path class="st5" d="M317.093 225.685H299.77c-2.391 0-4.32-1.804-4.32-4.039v-14.704c0-2.235 1.929-4.039 4.32-4.039h17.281c2.39 0 4.32 1.804 4.32 4.039v14.704c.042 2.235-1.887 4.039-4.278 4.039z" id="key-12" stroke-width="1"/><path class="st5" d="M346.496 225.685h-17.281c-2.39 0-4.32-1.804-4.32-4.039v-14.704c0-2.235 1.93-4.039 4.32-4.039h17.281c2.391 0 4.32 1.804 4.32 4.039v14.704c0 2.235-1.929 4.039-4.32 4.039z" id="key-13" stroke-width="1"/><path class="st5" d="M375.9 225.685h-17.281c-2.391 0-4.32-1.804-4.32-4.039v-14.704c0-2.235 1.929-4.039 4.32-4.039h17.28c2.392 0 4.321 1.804 4.321 4.039v14.704c0 2.235-1.93 4.039-4.32 4.039z" id="key-14" stroke-width="1"/><path class="st5" d="M352.159 120.677h-32.424c-2.39 0-4.32-1.803-4.32-4.038v-14.704c0-2.235 1.93-4.04 4.32-4.04h32.424c2.39 0 4.32 1.805 4.32 4.04v14.704c0 2.235-1.93 4.038-4.32 4.038z" id="key-3" stroke-width="1"/><ellipse class="st8" cx="329.509" cy="234.272" id="circle132" rx="3.481" ry="3.255" stroke-width="1"/><ellipse class="st8" cx="337.688" cy="233.802" id="circle134" rx="3.481" ry="3.255" stroke-width="1"/><ellipse class="st8" cx="345.783" cy="233.802" id="circle136" rx="3.481" ry="3.255" stroke-width="1"/><path class="st9" id="rect138" stroke-width="1" d="M297.253 72.173h10.277v10.273h-10.277z"/><text transform="translate(36.403 165.91)" class="st10 st11 st12" id="text140">1</text><path class="st9" id="rect142" stroke-width="1" d="M330.012 98.876h10.277v10.273h-10.277z"/><text transform="translate(114.521 233.968)" class="st10 st11 st12" id="text144">2</text><path class="st9" id="rect146" stroke-width="1" d="M357.444 72.173h10.277v10.273h-10.277z"/><text transform="translate(179.948 165.91)" class="st10 st11 st12" id="text148">3</text><path class="st9" id="rect150" stroke-width="1" d="M298.176 125.422h10.277v10.273h-10.277z"/><text transform="translate(38.62 301.661)" class="st10 st11 st12" id="text152">4</text><path class="st9" id="rect154" stroke-width="1" d="M361.597 125.853h10.277v10.273h-10.277z"/><text transform="translate(189.892 302.819)" class="st10 st11 st12" id="text156">5</text><path class="st9" id="rect158" stroke-width="1" d="M297.756 152.007h10.277v10.273h-10.277z"/><text transform="translate(37.688 369.482)" class="st10 st11 st12" id="text160">6</text><path class="st9" id="rect162" stroke-width="1" d="M330.809 152.007h10.277v10.273h-10.277z"/><text transform="translate(116.427 369.482)" class="st10 st11 st12" id="text164">7</text><path class="st9" id="rect166" stroke-width="1" d="M360.548 152.007h10.277v10.273h-10.277z"/><text transform="translate(187.323 369.482)" class="st10 st11 st12" id="text168">8</text><path class="st9" id="rect170" stroke-width="1" d="M298.553 180.906h10.277v10.273h-10.277z"/><text transform="translate(39.547 443.126)" class="st10 st11 st12" id="text172">9</text><path class="st9" id="rect174" stroke-width="1" d="M331.774 180.906h13.758v10.273h-13.758z"/><text transform="translate(116.32 443.126)" class="st10 st11 st12" id="text176">10</text><path class="st9" id="rect178" stroke-width="1" d="M362.1 180.906h13.758v10.273H362.1z"/><text class="st10 st11 st12" id="text180" x="335.829" y="220.096" transform="scale(1.03427 .96686)" stroke-width="1">11</text><path class="st9" id="rect182" stroke-width="1" d="M303.67 204.354h13.758v10.273H303.67z"/><text class="st10 st11 st12" id="text184" x="279.338" y="244.372" transform="scale(1.03427 .96686)" stroke-width="1">12</text><path class="st9" id="rect186" display="inline" stroke-width="1" d="M331.774 204.354h13.758v10.273h-13.758z"/><text class="st10 st11 st12" id="text188" x="306.501" y="244.372" transform="scale(1.03427 .96686)" stroke-width="1">13</text><path class="st9" id="rect190" stroke-width="1" d="M362.1 204.354h13.758v10.273H362.1z"/><text class="st10 st11 st12" id="text192" x="335.829" y="244.372" transform="scale(1.03427 .96686)" stroke-width="1">14</text></g></svg>