<svg version="1.1" x="0" y="0" xml:space="preserve" id="svg84" width="676.76" height="259.94" xmlns="http://www.w3.org/2000/svg"><style type="text/css" id="style2">.st0{fill:#fff}.st1{fill:#3d88c8}.st2{fill:#fdd92d}</style><g id="Layer_1" transform="translate(-62.16 -174)"><path id="rect5" d="M62.16 174h676.76v259.94H62.16z"/><g id="g15"><path class="st0" d="M130.25 287.08c.06-.96.28-6.22-2.4-9.14-1.17-1.27-2.71-1.92-4.59-1.92-5.66 0-7.71 5.57-9.63 11.06h-7.1c-.27.21-.59.41-.96.59l-.05.02.25.36h7.52c-1.96 5.58-3.95 10.69-9.42 10.69-2.29 0-3.83-.98-4.84-3.08-.95-1.96-1.33-4.71-1.71-7.37l-.03-.24h4.5c.33-.17.66-.32.98-.46l.05-.02-.03-.05c-.11-.16-.2-.3-.28-.45h-5.35c-.78-5.3-2-10.81-8.2-10.81h-.22c-3.16.06-5.98 2-8.15 5.61-.59.98-1.06 1.95-1.41 2.8v-11.79h-.98v14.19h-7.96v.98h7.96v13.85h.98v-13.85h17l.06.39c.79 5.61 1.61 11.41 7.65 11.41 6.38 0 8.56-5.95 10.6-11.8h3.6l.25-.98h-3.51c1.83-5.21 3.68-9.95 8.45-9.95 1.56 0 2.82.52 3.77 1.56 2.44 2.65 2.14 7.85 2.11 8.39h-3.15c-.21.13-.42.25-.66.34l-1 .36.08.28h13.95v-.98h-8.13zm-50.79 0c.62-1.96 3.38-9.57 9.28-9.7h.19c5.26 0 6.32 4.54 7.09 9.7z" id="path7"/><path class="st1" d="M125.32 287.42c.24-.09.45-.21.66-.34a3.6 3.6 0 001.67-3c.04-1.71-1.19-2.69-2.43-2.91-.52-.11-1.05-.16-1.57-.16l-5.31-.04-.17.68.67.08.27.06c.09.02.18.06.26.12.04.04.07.09.1.15.01.31-.02.65-.09 1v.02c-.07.4-.19.83-.33 1.27l-.71 2.72-.25.98-.57 2.19-.45 1.63-.12.38.01-.01c-.02.04-.04.08-.05.14l-.04.13c-.31 1.04-1.29 1.18-1.69 1.2l-.15.02-.07.32-.06.4 6.17.05.24-.7-.73-.05-.29-.06a.724.724 0 01-.27-.12.555.555 0 01-.22-.46c.03-.46.11-.79.23-1.2l1.1-3.86h.24c.06 0 .09 0 .13.03l1.69 6.36h4.13l.04-.64-.71-.09a1.06 1.06 0 01-.48-.25c-.1-.12-.18-.25-.24-.39-.52-1.54-.94-3.04-1.37-4.62l-.11-.4-.08-.28zm-2.61-5.33h.19c.49 0 .83.07 1.19.43.3.36.42.75.41 1.31-.01 1.06-.25 1.77-.82 2.44-.35.4-.8.68-1.3.82-.22.06-.45.1-.68.1l-.43-.01.02-.08z" id="path9"/><path class="st1" d="M102.81 287.58l-.05.02c-.32.14-.65.29-.98.46-.39.2-.76.44-1.09.72 0 0-2.21 2.09-.38 4.54.61.81 1.64 1.22 2.69 1.22h.22c1.3 0 2.17-.43 3.37-1.2l.67 1.21 2.95.02-1.77-2.72c.18-.18 1.02-1.08 1.54-1.85l-1.15-1.21c-.56 1.52-.83 1.66-1.13 1.95l-.03.04-1.9-2.7-.25-.36.05-.02c.38-.18.69-.38.96-.59.7-.56 1.04-1.23 1.01-2.02.02-.5-.15-.97-.47-1.36-.46-.55-1.21-.88-1.99-.88h-.19c-.96 0-1.86.39-2.41 1.04-.38.44-.57.98-.55 1.55-.01.45.18 1 .58 1.66.09.14.18.29.28.45zm3.1 4.72c-.27.24-.57.44-.91.59-.33.13-.68.19-1.02.19-.62 0-1.17-.22-1.57-.62-.42-.43-.64-1.01-.63-1.62.01-.6.26-1.15.69-1.55.3-.25.63-.47.99-.64l.03-.01 2.45 3.62zm-1.5-7.93c.18-.19.45-.29.73-.29.27 0 .51.1.68.27.45.48.31 1.27-.07 1.75-.11.13-.24.25-.39.34l-.54.28c-.21-.28-.4-.58-.56-.89-.28-.58-.23-1.07.15-1.46z" id="path11"/><path class="st1" d="M94.37 286.52c.09-1.54-.52-3.1-1.58-4.08-.58-.54-1.48-.99-2.34-1.17-.85-.2-1.73-.29-2.6-.29h-.16l-4.48-.04-.21.66 1.13.14c.12.02.22.06.33.13.36.34.11 1.37-.02 1.8l-.93 3.41-.27.98-1.12 4.1-.27.71c-.11.25-.27.48-.48.66-.49.36-1.5.37-1.53.32l-.11.68h5.58c.12.01.25.01.37.01 1.64 0 3.36-.41 4.6-1.09.68-.37 3.3-2.05 3.94-5.4.06-.31.09-.64.12-.98.01-.17.03-.35.03-.55zm-4.1 3.34c-.44 1.16-1.1 2.09-2 2.84-.49.4-1.38.83-2.19.83-.33 0-.62-.08-.84-.22a.37.37 0 01-.15-.3c.03-.24.54-2.51 1.11-4.94.08-.32.15-.65.23-.98.52-2.23 1.05-4.38 1.24-5.04l.01-.04.29.02c.47.01 1.04.15 1.42.35.53.32.95.81 1.19 1.39.41 1.04.46 2.23.34 3.32-.04.34-.09.66-.15.98-.14.71-.33 1.34-.5 1.79z" id="path13"/></g><path class="st0" id="key-1" d="M70.23 198.13h70.29v70.48H70.23z"/><path class="st0" id="key-2" d="M149.66 198.13h70.85v70.48h-70.85z"/><path class="st0" id="key-3" d="M230.49 197.13h69.89v70.48h-69.89z"/><path class="st0" id="key-4" d="M309.41 197.13h70.48v70.48h-70.48z"/><path class="st0" id="key-5" d="M389.15 198.13H460v70.06h-70.85z"/><path class="st0" id="key-6" d="M469.16 198.13h69.24v70.06h-69.24z"/><path class="st0" id="key-7" d="M547.99 198.13h69.71v69.71h-69.71z"/><path class="st0" id="key-8" d="M627 198.13h69.27v69.27H627z"/><path class="st0" id="key-9" d="M71.22 307.12h70.48v71.36H71.22z"/><path class="st0" id="key-10" d="M152.66 307.12h70.85v71.36h-70.85z"/><path class="st0" id="key-11" d="M231.49 307.13h70.08v71.35h-70.08z"/><path class="st0" id="key-12" d="M311.5 307.13h70.3v71.35h-70.3z"/><path class="st0" id="key-13" d="M391.12 308h70.02v70.48h-70.02z"/><path class="st0" id="key-14" d="M470.16 308h70.48v70.48h-70.48z"/><path class="st0" id="key-15" d="M549.83 308h70.48v70.48h-70.48z"/><path class="st0" id="key-16" d="M628 308h70.85v70.48H628z"/><g id="g75"><path class="st0" d="M388.76 291.62h3.17c.56 0 1.08.29 1.08 1.05s-.52 1.05-1.08 1.05h-8.5c-.56 0-1.08-.29-1.08-1.05s.52-1.05 1.08-1.05h3.17V279.5h-3.17c-.56 0-1.08-.29-1.08-1.05s.52-1.05 1.08-1.05h8.5c.56 0 1.08.29 1.08 1.05s-.52 1.05-1.08 1.05h-3.17z" id="path49"/><path class="st0" d="M403.06 291.81l-1.42 1.17c-.6.5-1.1.73-1.94.73-.73 0-1.4-.27-1.9-.8-.6-.65-.71-1.22-.71-2.06v-5.49c0-1.53.56-2.5 1.73-3.46l4.4-3.65c.56-.48 1.06-.86 1.83-.86 1.64 0 2.7 1.17 2.7 2.73v5.56c0 1.61-.43 2.54-1.7 3.61l-1.27 1.07.54 1.26h1.27c.65 0 1.16.38 1.16 1.05 0 .88-.67 1.05-1.42 1.05h-2.48zm.88-3.5l.5-.4c.99-.8 1.14-1.09 1.14-2.35v-5.22c0-.34.04-.84-.43-.84-.26 0-.41.21-.6.36l-4.34 3.65c-.73.61-.97 1.01-.97 1.95v5.43c0 .34-.02.73.47.73.24 0 .48-.17.65-.31l1.86-1.57-.56-1.38c-.13-.29-.3-.67-.3-.99 0-.57.52-1.01 1.08-1.01.84 0 .97.71 1.25 1.34z" id="path51"/><path class="st0" d="M428.03 292.52c0 .67-.29 1.04-1.04 1.04s-1.04-.38-1.04-1.04v-15.17h6.92c.96 0 1.65.15 2.4.85.9.83.98 1.6.98 2.73v2.83c0 1.06-.08 1.81-.85 2.67-.81.92-1.67 1-2.79 1h-4.56v5.09zm0-7.17h4.62c1.23 0 1.5-.31 1.5-1.5v-2.92c0-1.19-.27-1.5-1.5-1.5h-4.62z" id="path53"/><path class="st0" d="M442.66 292.62c0 .67-.29 1.04-1.04 1.04s-1.04-.38-1.04-1.04v-15.17h7c1.65 0 3.29 1.17 3.29 3.02v1.44c0 1.96-1.63 2.96-3.29 2.96h-1.92l4.69 6.71c.23.31.52.71.52 1.1 0 .58-.48.98-1.06.98-.42 0-.69-.25-.92-.58l-5.75-8.21h-.48zm0-9.83h4.62c.58 0 1.5-.04 1.5-.87v-1.44c0-.83-.85-.94-1.48-.94h-4.65v3.25z" id="path55"/><path class="st0" d="M464.94 283.31c.4.81.54 1.42.54 2.31 0 1-.27 1.62-.69 2.48l-1.92 3.83c-.5 1-1.33 1.73-2.54 1.73s-2.04-.73-2.54-1.73l-1.92-3.83c-.42-.85-.69-1.48-.69-2.48 0-.9.15-1.5.54-2.31l2.08-4.15c.5-.98 1.35-1.71 2.52-1.71s2.02.73 2.52 1.71zm-3.89-3.15c-.17-.33-.27-.62-.71-.62-.44 0-.54.29-.71.62l-1.87 3.77c-.31.6-.48 1-.48 1.69 0 .54.12.92.35 1.37l2 3.96c.15.29.29.62.71.62s.56-.33.71-.62l2-3.96c.23-.46.35-.83.35-1.37 0-.69-.17-1.08-.48-1.69z" id="path57"/><path class="st0" d="M492.31 287.89h-3.25l-1.45-6.5-1.52 11h-4.15l3.48-15.57h4.06l1.76 6.86 5.27-6.86h4.26l-2.8 15.57h-3.78l2.08-10.79z" id="path59"/><path class="st0" d="M510.16 288.95h-5.33l-1.72 3.44h-4.47l9.2-15.57h3.8l1.81 15.57h-3.21zm-.36-2.59l-.83-6.27-3.47 6.27z" id="path61"/><path class="st0" d="M518.18 289.16s.02.98 2.21.83c.89-.06 1.09-.74 1.28-1.66.19-.92-1.22-1.75-2.25-2.27s-2.48-1.63-2.82-3.64c-.34-2.02.26-3.32 1.07-4.18.81-.86 2.96-1.84 4.99-1.65 2.69.25 4.39 1.4 4.39 1.4l-1.04 2.6s-1.68-.79-3.17-.84c-1.4-.05-2.01.48-2.14 1.21-.13.73.08 1.62 1.09 2.14 1.52.77 2.49 1.4 2.91 1.88.62.71.93 1.62.93 2.73 0 1.37-.46 2.55-1.39 3.52-.93.97-2.21 1.46-3.86 1.46-1.14 0-2.94-.16-3.78-.61-.83-.45-1.67-1.55-1.3-3.22z" id="path63"/><path class="st0" d="M532.86 292.4h-3.39l2.31-12.48h-4.03l.46-3.09h12.07l-.39 3.09h-4.72z" id="path65"/><path class="st0" d="M538.79 292.4l2.77-15.57h8.83l-.46 2.6h-5.1l-.63 3.54h4.86l-.46 2.6h-4.86l-.83 4.23h5.71l-.47 2.6z" id="path67"/><path class="st0" d="M553.54 292.4h-3.73l2.77-15.57h5.88c1.01 0 1.8.12 2.36.37.56.24 1.28.76 1.63 1.41.35.65.65 1.41.65 2.4 0 1.32-.02 2.14-.69 3-.67.86-1.57 1.48-2.93 1.69.43.24.73.54 1.44 2.19s.73 4.52.73 4.52h-4.27c.09-1.01-.11-2.65-.3-3.65-.19-1.01-.76-1.91-.99-2.08-.23-.17-.73-.18-1.37-.18h-.11zm1.56-8.79h.45c1.46 0 2.44-.1 2.92-.31s1.23-.74 1.23-1.85c0-.57-.08-1.02-.47-1.3-.24-.17-.76-.26-1.56-.26h-2z" id="path69"/><path class="st0" d="M571.47 280.92l.52-2.91c2.1-.03 3.5.06 4.95-1.48h2.46l-3.32 15.85h-3.69l2.51-11.96c-.64.42-1.41.58-1.85.59-.43.01-1.58-.09-1.58-.09z" id="path71"/><path class="st0" d="M592.69 280.5s-2.08-1.14-3.79-.53c-1.66.59-2.8 1.97-3.15 3.3.52-.64 1.44-.92 2.19-.97 1.51-.12 2.57.14 3.36.97s1 2.05 1 3.48c0 1.14-.27 1.98-.82 2.99-.55 1.01-1.24 1.75-2.06 2.22-.82.47-1.69.7-2.61.7-.88 0-2.04-.37-2.74-.81-.71-.44-1.25-1.08-1.63-1.93-.38-.85-.57-1.98-.57-3.4 0-2.82.91-5.2 2.15-7.17 1.24-1.97 3.57-2.77 5.61-2.8 2.4-.03 4.08.94 4.08.94zm-7.1 7.23c0 .62.12 1.08.37 1.37.25.29.55.44.92.44.45 0 .84-.21 1.16-.63.43-.56.65-1.32.65-2.27 0-.61-.12-1.06-.36-1.35-.24-.29-.54-.44-.88-.44-.29 0-.59.11-.89.33-.3.22-.53.58-.7 1.06-.19.5-.27.99-.27 1.49z" id="path73"/></g><circle class="st2" cx="642.69" cy="286.59" r="9.87" id="circle77"/><circle class="st2" cx="664.54" cy="286.59" r="9.87" id="circle79"/><circle class="st2" cx="686.39" cy="286.59" r="9.87" id="circle81"/></g></svg>