<svg version="1.1" id="Layer_1" x="0" y="0" xml:space="preserve" width="708.2" height="306.2" xmlns="http://www.w3.org/2000/svg"><style type="text/css" id="style2">.st0{fill:#fff}.st2{fill:#febf10}.st3{fill:none}.st4{enable-background:new}</style><path id="rect4" d="M0 0h708.2v306.2H0z"/><path class="st0" id="key-1" d="M23.3 13.9h73.9V84H23.3z"/><path class="st0" id="key-2" d="M106.5 13.9h73.8V84h-73.8z"/><path class="st0" id="key-3" d="M191.1 12.8h72.3V82h-72.3z"/><path class="st0" id="key-4" d="M274.5 11.7h74V82h-74z"/><path class="st0" id="key-5" d="M358.1 13.4h72.3V82h-72.3z"/><path class="st0" id="key-6" d="M443.6 13.4h72.3V82h-72.3z"/><path class="st0" id="key-7" d="M526.8 13.4h72.3V82h-72.3z"/><path class="st0" id="key-8" d="M609.4 13.4h72.3V82h-72.3z"/><path class="st0" id="key-9" d="M189.5 120.4h73.6v68.9h-73.6z"/><path class="st0" id="key-10" d="M272.4 120.4h74.5v68.9h-74.5z"/><path class="st0" id="key-11" d="M357 120.4h73v68.9h-73z"/><path class="st0" id="key-12" d="M441 120.4h72.6v68.9H441z"/><path class="st0" id="key-13" d="M524.5 120.4h72.8v68.9h-72.8z"/><path class="st0" id="key-14" d="M607.7 120.4h72.2v67.8h-72.2z"/><path class="st0" id="key-15" d="M190.7 212h73.6v69h-73.6z"/><path class="st0" id="key-21" d="M33.8 211.9h74.5v69.2H33.8z"/><path class="st0" id="key-16" d="M275.1 211.6h73.3V281h-73.3z"/><path class="st0" id="key-17" d="M359.1 213H432v68h-72.9z"/><path class="st0" id="key-18" d="M443.9 211.6h71.2V281h-71.2z"/><path class="st0" id="key-19" d="M526.2 211.6h72.9v69.1h-72.9z"/><path class="st0" id="key-20" d="M609.4 211.6h72.7v68.7h-72.7z"/><path id="rect48" fill="#2356a7" d="M31.3 114.5h109.2V155H31.3z"/><circle class="st2" cx="36.7" cy="179.4" r="8.8" id="circle50"/><circle class="st2" cx="58.5" cy="179" r="8.5" id="circle52"/><circle class="st2" cx="78.8" cy="179" r="8.8" id="circle54"/><circle class="st2" cx="99.4" cy="178.3" r="8.8" id="circle56"/><circle class="st2" cx="119.8" cy="178.2" r="8.8" id="circle58"/><circle class="st2" cx="140.5" cy="178.2" r="8.8" id="circle60"/><path class="st3" id="rect62" d="M235.3 110.2h88.8v18.7h-88.8z"/><g class="st4" id="g74" transform="translate(-45.4 -152.6)"><path class="st0" d="M287.7 258.8h3.2c.6 0 1.1.3 1.1 1s-.5 1-1.1 1h-8.6c-.6 0-1.1-.3-1.1-1s.5-1 1.1-1h3.2v-11.2h-3.2c-.6 0-1.1-.3-1.1-1s.5-1 1.1-1h8.6c.6 0 1.1.3 1.1 1s-.5 1-1.1 1h-3.2z" id="path64"/><path class="st0" d="M300.8 259l-1.4 1.1c-.6.5-1.1.7-2 .7-.7 0-1.4-.3-1.9-.7-.6-.6-.7-1.1-.7-1.9V253c0-1.4.6-2.3 1.7-3.2l4.4-3.4c.6-.4 1.1-.8 1.9-.8 1.7 0 2.7 1.1 2.7 2.5v5.1c0 1.5-.4 2.3-1.7 3.3l-1.3 1 .5 1.2h1.3c.7 0 1.2.3 1.2 1 0 .8-.7 1-1.4 1h-2.5zm.9-3.3l.5-.4c1-.7 1.2-1 1.2-2.2v-4.8c0-.3 0-.8-.4-.8-.3 0-.4.2-.6.3l-4.4 3.4c-.7.6-1 .9-1 1.8v5c0 .3 0 .7.5.7.2 0 .5-.2.7-.3l1.9-1.5-.6-1.3c-.1-.3-.3-.6-.3-.9 0-.5.5-.9 1.1-.9.8 0 1 .7 1.3 1.2z" id="path66"/><path class="st0" d="M323.9 259.8c0 .6-.3 1-1.1 1s-1.1-.3-1.1-1v-14.1h7.2c1 0 1.7.1 2.5.8.9.8 1 1.5 1 2.5v2.6c0 1-.1 1.7-.9 2.5-.8.9-1.7.9-2.9.9h-4.8v4.8zm0-6.7h4.8c1.3 0 1.6-.3 1.6-1.4V249c0-1.1-.3-1.4-1.6-1.4h-4.8z" id="path68"/><path class="st0" d="M337.4 259.8c0 .6-.3 1-1.1 1s-1.1-.3-1.1-1v-14.1h7.3c1.7 0 3.4 1.1 3.4 2.8v1.3c0 1.8-1.7 2.7-3.4 2.7h-2l4.9 6.2c.2.3.5.7.5 1 0 .5-.5.9-1.1.9-.4 0-.7-.2-1-.5l-6-7.6h-.5v7.3zm0-9.2h4.8c.6 0 1.6 0 1.6-.8v-1.3c0-.8-.9-.9-1.5-.9h-4.9z" id="path70"/><path class="st0" d="M359 251.1c.4.8.6 1.3.6 2.1 0 .9-.3 1.5-.7 2.3l-2 3.6c-.5.9-1.4 1.6-2.7 1.6-1.3 0-2.1-.7-2.7-1.6l-2-3.6c-.4-.8-.7-1.4-.7-2.3 0-.8.2-1.4.6-2.1l2.2-3.9c.5-.9 1.4-1.6 2.6-1.6 1.2 0 2.1.7 2.6 1.6zm-4.1-2.9c-.2-.3-.3-.6-.7-.6-.5 0-.6.3-.7.6l-2 3.5c-.3.6-.5.9-.5 1.6 0 .5.1.9.4 1.3l2.1 3.7c.2.3.3.6.7.6.4 0 .6-.3.7-.6l2.1-3.7c.2-.4.4-.8.4-1.3 0-.6-.2-1-.5-1.6z" id="path72"/></g><path class="st3" id="rect76" d="M345 107h181.8v25.1H345z"/><g class="st4" id="g94" transform="translate(-45.4 -152.6)"><path class="st0" d="M507 252.9l-4.1-.1c.2-.9.8-3.2 2.2-4.9 1.3-1.6 2.6-2.3 4.3-2.4 1.7-.2 3.6.3 4.8 1.3 1.2 1 1.8 2.2 1.8 3.7 0 .8-.2 1.5-.5 2.3-.4.8-.9 1.6-1.8 2.4-.6.6-1.6 1.4-2.9 2.5-1.3 1.1-2.2 1.8-2.7 2.2-.5.4-.9.8-1.2 1.3h7.6l-.8 3.4h-13.3c.1-.9.5-1.8 1-2.7.5-.9 1.1-1.6 1.8-2.4.7-.7 2.1-1.9 4.1-3.5 1.5-1.2 2.4-2 2.8-2.4.7-.7 1.2-1.3 1.4-1.8.3-.5.4-.9.4-1.3 0-.6-.4-1.6-2.2-1.3-2 .1-2.5 2.5-2.7 3.7z" id="path78"/><path class="st0" d="M403.8 258.7h-4l-1.8-8-1.9 13.6H391l4.3-19.2h5l2.2 8.5 6.5-8.5h5.2l-3.5 19.2H406l2.6-13.3z" id="path80"/><path class="st0" d="M425.8 260h-6.6l-2.1 4.2h-5.5L423 245h4.7l2.2 19.2h-4zm-.4-3.2l-1-7.7-4.3 7.7z" id="path82"/><path class="st0" d="M435.7 260.2s0 1.2 2.7 1c1.1-.1 1.3-.9 1.6-2 .2-1.1-1.5-2.2-2.8-2.8-1.3-.6-3.1-2-3.5-4.5-.4-2.5.3-4.1 1.3-5.2 1-1.1 3.6-2.3 6.1-2 3.3.3 5.4 1.7 5.4 1.7l-1.3 3.2s-2.1-1-3.9-1c-1.7-.1-2.5.6-2.6 1.5-.1.9.1 2 1.3 2.6 1.9.9 3.1 1.7 3.6 2.3.8.9 1.1 2 1.1 3.4 0 1.7-.6 3.1-1.7 4.3-1.1 1.2-2.7 1.8-4.8 1.8-1.4 0-3.6-.2-4.7-.8-1-.6-2.1-1.9-1.6-4z" id="path84"/><path class="st0" d="M453.8 264.2h-4.2l2.8-15.4h-5l.6-3.8h14.9l-.5 3.8h-5.8z" id="path86"/><path class="st0" d="M461.1 264.2l3.4-19.2h10.9l-.6 3.2h-6.3l-.8 4.4h6l-.6 3.2h-6l-1 5.2h7l-.6 3.2z" id="path88"/><path class="st0" d="M479.3 264.2h-4.6l3.4-19.2h7.2c1.2 0 2.2.1 2.9.5.7.3 1.6.9 2 1.7.4.8.8 1.7.8 3 0 1.6 0 2.6-.9 3.7s-1.9 1.8-3.6 2.1c.5.3.9.7 1.8 2.7s.9 5.6.9 5.6H484c.1-1.2-.1-3.3-.4-4.5-.2-1.2-.9-2.4-1.2-2.6-.3-.2-.9-.2-1.7-.2h-.1zm1.9-10.8h.6c1.8 0 3-.1 3.6-.4.6-.3 1.5-.9 1.5-2.3 0-.7-.1-1.3-.6-1.6-.3-.2-.9-.3-1.9-.3h-2.5z" id="path90"/><path class="st0" d="M518.3 251.2l.6-3.4c2.4 0 4 .1 5.7-1.7h2.8l-3.8 18.3h-4.3l2.9-13.8c-.7.5-1.6.7-2.1.7s-1.8-.1-1.8-.1z" id="path92"/></g><path class="st0" id="rect96" d="M186.2 100.4h46.4v1.7h-46.4z"/><path class="st0" id="rect98" d="M318.3 100.4h18.6v1.7h-18.6z"/></svg>