<svg version="1.1" id="Layer_2_00000083050952534450709730000000682383709248658094_" x="0" y="0" xml:space="preserve" width="753.1" height="274.5" xmlns="http://www.w3.org/2000/svg"><style type="text/css" id="style2">.st0{fill:#fff}.st1{fill:#3e88c8}.st2{fill:#fcd92d}.st4{fill:#b4b4b5}.st5{fill:#ea2228}</style><path id="rect4" d="M0 0h753.1v274.5H0z"/><path class="st0" id="key-1" d="M195.6 22.5h79.5v79.4h-79.5z"/><path class="st0" id="key-2" d="M286.5 22.5H366v79.4h-79.5z"/><path class="st0" id="key-3" d="M376.6 22.5h79.5v79.4h-79.5z"/><path class="st0" id="key-4" d="M468 22.5h79.5v79.4H468z"/><path class="st0" id="key-5" d="M558.4 22.5h79.5v78.6h-79.5z"/><path class="st0" id="key-6" d="M647.9 22.5h79.5v78.6h-79.5z"/><path class="st0" id="key-9" d="M197.7 145.9h79.5v79.4h-79.5z"/><path class="st0" id="key-8" d="M108.1 145.9h79.5v79.4h-79.5z"/><path class="st0" id="key-7" d="M16.3 145.9h79.5v79.4H16.3z"/><path class="st0" id="key-10" d="M288.6 145.9h79.5v79.4h-79.5z"/><path class="st0" id="key-11" d="M378.6 145.9h79.5v79.4h-79.5z"/><path class="st0" id="key-12" d="M469.1 145.9h79.5v79.4h-79.5z"/><path class="st0" id="key-13" d="M560.4 145.9h79.5v78.6h-79.5z"/><path class="st0" id="key-14" d="M649.9 145.9h79.5v78.6h-79.5z"/><g id="g42" transform="translate(-18.4 -166.6)"><path class="st0" d="M344.7 290.9h-9.3c.1-1.2.3-8.1-3.1-11.8-1.5-1.7-3.5-2.5-6-2.5-7.3 0-10 7.2-12.5 14.4h-9.2c-.3.3-.8.5-1.2.8h-.1l.3.4h9.7c-2.5 7.2-5.1 13.8-12.3 13.8-3 0-5-1.3-6.3-4-1.2-2.5-1.7-6.1-2.3-9.6 0-.1 0-.2-.1-.3h5.8c.4-.2.9-.4 1.3-.6h.1l-.1-.1c-.2-.2-.3-.4-.3-.6h-7c-1-6.9-2.6-14-10.6-14h-.3c-4.1.1-7.7 2.6-10.6 7.3-.8 1.3-1.4 2.5-1.8 3.7v-15.1h-1.3V291h-10.1v1.3h10.4v18h1.3v-18h22.1c0 .2.1.3.1.5 1 7.3 2.1 14.8 9.9 14.8 8.3 0 11.1-7.7 13.7-15.3h4.7l.3-1.3h-4.7c2.3-6.8 4.8-12.9 11-12.9 2 0 3.7.7 4.9 2 3.1 3.5 2.8 10.2 2.7 10.9h-4.1c-.3.2-.5.3-.9.4l-1.3.4.1.3h17zm-75.3 0c.8-2.5 4.4-12.4 12-12.6h.3c6.8 0 8.2 5.9 9.2 12.6z" id="path34"/><path class="st1" d="M328.9 291.3c.3-.1.6-.3.9-.4 1.3-.9 2.2-2.3 2.2-3.9.1-2.2-1.6-3.5-3.1-3.7-.7-.2-1.4-.2-2.1-.2l-6.9-.1-.3.9.9.1.3.1c.1 0 .3.1.3.2s.1.1.1.2c0 .4 0 .9-.1 1.3-.1.5-.3 1-.4 1.7l-1 3.6-.3 1.3-.7 2.9-.6 2.1-.2.5c0 .1-.1.1-.1.2l-.1.2c-.4 1.4-1.7 1.6-2.2 1.6h-.2l-.1.4-.1.5 8 .1.3-.9-1-.1-.3-.1c-.1 0-.3-.1-.3-.2-.2-.2-.3-.3-.3-.6.1-.6.2-1 .3-1.6l1.4-5h.5l2.2 8.3h5.4l.1-.9-1-.1c-.3 0-.4-.2-.6-.3-.1-.2-.3-.3-.3-.5-.7-2-1.2-3.9-1.8-6l-.2-.5-.1-.3zm-3.3-6.9h.3c.6 0 1 .1 1.6.5.3.4.5 1 .5 1.7 0 1.4-.3 2.3-1 3.1-.4.5-1 .9-1.7 1-.3.1-.6.1-.9.1h-.5v-.1z" id="path36"/><path class="st1" d="M299.8 291.6c-.5.2-1 .4-1.3.6-.5.3-1 .5-1.4 1 0 0-2.9 2.7-.5 5.9.8 1 2.1 1.6 3.5 1.6h.3c1.7 0 2.8-.5 4.4-1.6l.9 1.6h3.8l-2.3-3.6c.3-.3 1.3-1.4 2-2.4l-1.5-1.6c-.7 2-1 2.2-1.5 2.5l-.1.1-2.4-3.5-.3-.4h.1c.5-.3.9-.5 1.2-.8.9-.7 1.4-1.6 1.3-2.6 0-.7-.2-1.3-.6-1.7-.6-.7-1.6-1.1-2.6-1.1h-.3c-1.2 0-2.4.5-3.1 1.4-.5.6-.7 1.3-.7 2 0 .6.3 1.3.8 2.2-.1-.1.1.1.3.4zm4 6.1c-.3.3-.8.5-1.1.8-.4.2-.9.3-1.3.3-.8 0-1.6-.3-2-.8-.5-.5-.9-1.3-.8-2.1 0-.8.3-1.5.9-2 .3-.3.8-.6 1.3-.9zm-1.9-10.3c.3-.3.6-.3 1-.3.3 0 .7.1.9.3.6.6.4 1.7-.1 2.3-.2.2-.3.3-.5.4l-.7.3c-.3-.3-.5-.8-.7-1.1-.6-.8-.5-1.4.1-1.9z" id="path38"/><path class="st1" d="M288.8 290.2c.1-2-.7-4-2-5.3-.8-.7-1.9-1.3-3-1.6-1.1-.3-2.3-.3-3.4-.3h-6l-.3.9 1.5.2c.2 0 .3.1.4.2.4.4.2 1.7 0 2.3l-1.2 4.4-.3 1.3-1.5 5.3-.3 1c-.2.3-.3.6-.6.9-.6.4-1.9.4-2 .4l-.2.9h7.7c2.1 0 4.4-.5 5.9-1.4.9-.5 4.3-2.6 5.1-7 .1-.4.1-.9.2-1.3v-.9zm-5.3 4.3c-.6 1.5-1.4 2.7-2.6 3.7-.6.5-1.8 1-2.9 1-.4 0-.8-.1-1.1-.3-.1-.1-.2-.3-.2-.4 0-.3.7-3.3 1.5-6.4.1-.4.2-.9.3-1.3.7-2.9 1.4-5.7 1.6-6.5v-.1h.3c.6 0 1.4.2 1.8.4.7.4 1.2 1 1.6 1.8.5 1.4.6 2.9.4 4.4-.1.4-.1.9-.2 1.3-.1 1-.3 1.8-.5 2.4z" id="path40"/></g><g id="g54" transform="translate(-18.4 -166.6)"><path class="st0" d="M461.5 294.6h3.5c.6 0 1.2.3 1.2 1.2 0 .9-.6 1.2-1.2 1.2h-9.5c-.6 0-1.2-.3-1.2-1.2 0-.9.6-1.2 1.2-1.2h3.5v-13.3h-3.5c-.6 0-1.2-.3-1.2-1.2 0-.9.6-1.2 1.2-1.2h9.5c.6 0 1.2.3 1.2 1.2 0 .9-.6 1.2-1.2 1.2h-3.5z" id="path44"/><path class="st0" d="M477.5 294.8l-1.6 1.3c-.7.6-1.3.8-2.1.8s-1.6-.3-2.1-.9c-.7-.7-.8-1.3-.8-2.3v-6c0-1.7.6-2.8 1.9-3.8l4.9-4c.6-.6 1.2-.9 2-.9 1.8 0 3 1.3 3 3v6.1c0 1.7-.5 2.8-1.9 3.9l-1.4 1.2.6 1.4h1.4c.7 0 1.3.4 1.3 1.2 0 .9-.7 1.2-1.6 1.2h-2.8zm1-3.8l.6-.5c1.1-.9 1.3-1.2 1.3-2.6v-5.8c0-.4.1-.9-.5-.9-.3 0-.5.2-.7.4l-4.8 4c-.8.6-1.1 1.1-1.1 2.1v6c0 .4 0 .8.6.8.2 0 .6-.2.7-.3l2-1.7-.6-1.5c-.2-.3-.3-.7-.3-1.1 0-.6.6-1.1 1.2-1.1.9 0 1.1.8 1.4 1.5z" id="path46"/><path class="st0" d="M506.5 295.7c0 .7-.3 1.2-1.2 1.2-.9 0-1.2-.4-1.2-1.2v-17.1h7.9c1.1 0 1.9.2 2.8 1 1.1 1 1.1 1.8 1.1 3.1v3.2c0 1.2-.1 2-1 3-1 1.1-1.9 1.1-3.2 1.1h-5.2zm0-8h5.3c1.4 0 1.7-.3 1.7-1.7v-3.3c0-1.4-.3-1.7-1.7-1.7h-5.3z" id="path48"/><path class="st0" d="M523.4 295.7c0 .7-.3 1.2-1.2 1.2-.9 0-1.2-.4-1.2-1.2v-17.1h8c1.9 0 3.8 1.3 3.8 3.4v1.6c0 2.2-1.9 3.3-3.8 3.3h-2.2l5.3 7.5c.2.3.6.8.6 1.2 0 .6-.6 1.1-1.2 1.1-.5 0-.8-.2-1.1-.6l-6.6-9.2h-.6zm0-11h5.3c.6 0 1.7-.1 1.7-1v-1.6c0-1-1-1.1-1.7-1.1h-5.3z" id="path50"/><path class="st0" d="M548.1 285.3c.5.9.6 1.6.6 2.6 0 1.1-.3 1.9-.8 2.8l-2.2 4.3c-.6 1.1-1.5 1.9-2.9 1.9s-2.3-.8-2.9-1.9l-2.2-4.3c-.5-1-.8-1.7-.8-2.8 0-1 .2-1.7.6-2.6l2.4-4.7c.6-1.1 1.5-1.9 2.9-1.9s2.3.8 2.9 1.9zm-4.4-3.6c-.2-.4-.3-.7-.8-.7s-.6.3-.8.7l-2.2 4.3c-.3.6-.6 1.1-.6 1.9 0 .6.2 1.1.4 1.5l2.3 4.5c.2.3.3.7.8.7s.6-.4.8-.7l2.3-4.5c.2-.5.4-1 .4-1.5 0-.8-.2-1.2-.6-1.9z" id="path52"/></g><circle class="st2" cx="661.8" cy="122.6" r="11.2" id="circle56"/><circle class="st2" cx="686.3" cy="122.6" r="11.2" id="circle58"/><circle class="st2" cx="711.3" cy="122.1" r="11.2" id="circle60"/><g id="g76" transform="translate(-18.4 -166.6)"><path class="st0" id="polygon62" d="M573.3 279h3.9l-2.6 14.5h6.2l-.7 3.6h-10.5z"/><path class="st0" id="polygon64" d="M612.2 279l-3.5 18.1h10.2l1-3.7h-6.3l.8-3.5h5.6l1-3.7h-5.9l.7-3.4h6.4l1-3.8z"/><path class="st0" d="M601 279h-7l-4 18.1h6.7c7.2 0 10-3.9 11.2-8.1 1.2-4.2-.3-10-6.9-10zm2 9.7c-1.4 3.4-3.2 4.5-4.6 4.5-.8 0-2.3-.1-2.9-.1l2.3-10.4h2.3c2.4 0 4.4 2.6 2.9 6z" id="path66"/><path class="st0" id="polygon68" d="M590 279l-3.5 18.1h-4.4l3.8-18.1z"/><path class="st0" d="M569.6 279.7l-.6 4.3s-4.8-2.9-6.2-1.1c-1.3 1.6 1.8 3.3 3.6 4.9 1.4 1.3 2.3 3.9 1.8 5.4-.6 2.1-2 4.1-6.6 4.1-4.3 0-5.5-1-5.5-1l.1-3.8s6.9 2.9 7.2.2c.4-3.4-6.2-3.7-6-8.5.2-3.7 2.5-5.1 5.4-5.5 3.4-.5 6.8 1 6.8 1z" id="path70"/><path class="st0" id="polygon72" d="M640.9 278.6l-9.1 1.8-.4 3.6 4.3-.5-3.3 13.6h4.3z"/><path class="st0" d="M645.6 279l-.6 3.9h7.5s-3.6 4.4-5.4 7.4c-1.8 3-2.9 6.8-2.9 6.8h4.6s1.2-4.3 3.1-7.3c1.9-3 5.6-7.6 5.6-7.6l.7-3.3z" id="path74"/></g><path id="rect78" fill="#2a2a2a" d="M53.3 9.7h117.2v32.5H53.3z"/><circle class="st2" cx="76.8" cy="120.1" r="11.4" id="key-15"/><circle class="st2" cx="115.5" cy="119.2" r="11.4" id="key-16"/><circle class="st2" cx="154.2" cy="119.2" r="11.4" id="key-17"/><g id="g98" transform="translate(-18.4 -166.6)"><path class="st0" d="M47.3 228.3c-3.2 0-5.8 2.7-5.8 6s2.6 6 5.8 6c3.2 0 5.8-2.7 5.8-6s-2.6-6-5.8-6zm0 9.3c-1.5 0-2.7-1.5-2.7-3.3 0-1.8 1.2-3.3 2.7-3.3 1.5 0 2.7 1.5 2.7 3.3 0 1.8-1.2 3.3-2.7 3.3z" id="path86"/><path class="st0" id="polygon88" d="M96.6 228.2h-2.5l-3 2.4v1.8h3v7.8h2.5z"/><path class="st0" d="M129.3 229.9v2.2h1.5s.8-1.6 2.3-1.1c1.5.6.2 2.3-1.4 3.4-1.5 1.1-2.3 3.1-2.3 3.1v2.3h7.8v-2.1h-4.6s.9-1.3 2.3-2.4c1.4-1.1 2.6-2.1 2.4-4.1-.2-1.9-1.8-2.8-4.5-2.8-2.2 0-3.5 1.5-3.5 1.5z" id="path90"/><path class="st0" d="M168.1 229.4v2h1.4s.3-.8 1.1-.8 1.7.2 1.7 1.1c0 .9-1 1.2-1.5 1.2H169v2.3h2c1 0 1.3 1 1.3 1.6 0 .6-.8 1.1-2.1 1.1s-2.1-1-2.1-1v2.9s1.6.7 3.6.4c2-.3 3.8-1.5 3.7-3.6-.1-2.1-1.7-2.7-1.7-2.7s1.9-1 1.7-2.7c-.2-1.7-1.7-2.7-4.1-2.8-2.5-.1-3.2 1-3.2 1z" id="path92"/><path class="st0" id="polygon94" d="M57.2 235.6h3.6v-2.2h-3.5v-2.2h3.5v-2.9l-7-.1v12h3.4z"/><path class="st0" id="polygon96" d="M65.5 235.6h3.6v-2.2h-3.5v-2.2h3.5v-2.9l-7-.1v12h3.4z"/></g><g id="g112" transform="translate(-18.4 -166.6)"><path class="st4" id="rect100" d="M41.5 246.8H186v2.2H41.5z"/><path class="st4" id="rect102" d="M41.5 266.3H186v2.2H41.5z"/><path class="st5" id="polygon104" d="M62.4 249h-13V266.3h13v-13.7z"/><path class="st5" id="polygon106" d="M100.9 249h-13V266.3h13v-13.7z"/><path class="st5" id="polygon108" d="M139.7 249h-13V266.3h13v-13.7z"/><path class="st5" id="polygon110" d="M165.5 249V266.3h13V249z"/></g></svg>