<svg version="1.1" id="Layer_1" x="0" y="0" xml:space="preserve" width="736.3" height="341.2" xmlns="http://www.w3.org/2000/svg"><style type="text/css" id="style367">.st0{fill:#fff}.st2{fill:#3d88c8}.st3{fill:#fdd92d}.st4{display:none}.st5{fill:#fff}.st5,.st6{display:inline}.st9{fill:#737374}.st10{fill:#fbd82b}.st11{fill:#b3b3b4}.st12{fill:#e8262a}</style><g id="Layer_2_00000128446690736954754380000006098880557323200656_" transform="translate(-27.8 -118.8)"><path id="rect369" d="M27.8 118.8h736.3V460H27.8z"/><path class="st0" id="key-1" d="M63 136.5h75.4v75.4H63z"/><path class="st0" id="key-2" d="M149.7 137.6h75.4V213h-75.4z"/><path class="st0" id="key-3" d="M234.1 137.6h75.4V213h-75.4z"/><path class="st0" id="key-4" d="M320.8 137.6h74.6V213h-74.6z"/><path class="st0" id="key-5" d="M405.2 139h75.4v73.9h-75.4z"/><path class="st0" id="key-6" d="M490.8 139h74.9v73.9h-74.9z"/><path class="st0" id="key-7" d="M575.8 139h74.6v73.7h-74.6z"/><path class="st0" id="key-8" d="M660.7 139h74.5v73.5h-74.5z"/><path class="st0" id="key-9" d="M490.8 258h73.9v73.9h-73.9z"/><path class="st0" id="key-10" d="M575.4 258H650v73.7h-74.6z"/><path class="st0" id="key-11" d="M660.1 257.1h74.5v73.5h-74.5z"/><path class="st0" id="key-12" d="M492.9 365.5h73.9v73.9h-73.9z"/><path class="st0" id="key-13" d="M577.5 365.5h74.6v73.7h-74.6z"/><path class="st0" id="key-14" d="M662.2 364.5h74.5V438h-74.5z"/><path id="rect399" fill="#3958a8" d="M59.6 237.7h112.1v53H59.6z"/><g id="g411"><path class="st0" d="M142.7 327.4c.1-1.5.4-9.5-3.7-14-1.8-2-4.2-2.9-7-2.9-8.7 0-11.8 8.5-14.8 16.9h-10.9c-.4.3-.9.6-1.5.9h-.1l.4.6h11.5c-3 8.6-6 16.4-14.4 16.4-3.5 0-5.9-1.5-7.4-4.7-1.4-3-2-7.2-2.6-11.3 0-.1 0-.2-.1-.4H99c.5-.3 1-.5 1.5-.7h.1l-.1-.1c-.2-.2-.3-.5-.4-.7H92c-1.2-8.1-3.1-16.6-12.6-16.6h-.3c-4.8.1-9.2 3.1-12.5 8.6-.9 1.5-1.6 3-2.2 4.3v-18.1h-1.5v21.7H50.8v1.5H63V350h1.5v-21.2h26c0 .2.1.4.1.6 1.2 8.6 2.5 17.5 11.7 17.5 9.8 0 13.1-9.1 16.2-18.1h5.5l.4-1.5H119c2.8-8 5.6-15.2 12.9-15.2 2.4 0 4.3.8 5.8 2.4 3.7 4.1 3.3 12 3.2 12.9h-4.8c-.3.2-.6.4-1 .5l-1.5.5.1.4h33.9l50.8-96.3h202.7v-1.4H217.8l-51 96.2h-24.1zm-77.8 0c.9-3 5.2-14.7 14.2-14.9h.3c8.1 0 9.7 7 10.9 14.9z" id="path401"/><path class="st2" d="M135.2 327.9c.4-.1.7-.3 1-.5 1.5-1 2.5-2.7 2.6-4.6.1-2.6-1.8-4.1-3.7-4.5-.8-.2-1.6-.2-2.4-.2l-8.1-.1-.3 1 1 .1.4.1c.1 0 .3.1.4.2l.2.2c0 .5 0 1-.1 1.5-.1.6-.3 1.3-.5 1.9l-1.1 4.2-.4 1.5-.9 3.4-.7 2.5-.2.6c0 .1-.1.1-.1.2l-.1.2c-.5 1.6-2 1.8-2.6 1.8h-.2l-.1.5-.1.6 9.4.1.4-1.1-1.1-.1-.4-.1c-.1 0-.3-.1-.4-.2-.2-.2-.3-.4-.3-.7 0-.7.2-1.2.4-1.8l1.7-5.9H129.5l2.6 9.8h6.3l.1-1-1.1-.1c-.3-.1-.5-.2-.7-.4-.2-.2-.3-.4-.4-.6-.8-2.4-1.4-4.7-2.1-7.1l-.2-.6-.1-.4zm-4-8.1h.3c.7 0 1.3.1 1.8.7.5.5.6 1.1.6 2 0 1.6-.4 2.7-1.3 3.7-.5.6-1.2 1-2 1.3-.3.1-.7.1-1 .1h-.7v-.1z" id="path403"/><path class="st2" d="M100.7 328.2c-.6.2-1.1.5-1.6.7-.6.3-1.2.7-1.7 1.1 0 0-3.4 3.2-.6 6.9.9 1.2 2.5 1.9 4.1 1.9h.3c2 0 3.3-.7 5.2-1.8l1 1.8h4.5l-2.7-4.2c.3-.3 1.6-1.7 2.4-2.8l-1.8-1.8c-.9 2.3-1.3 2.5-1.7 3v.1l-2.9-4.1-.4-.6h.1c.6-.3 1.1-.6 1.5-.9 1.1-.9 1.6-1.9 1.5-3.1 0-.8-.2-1.5-.7-2.1-.7-.8-1.8-1.3-3.1-1.3h-.3c-1.5 0-2.9.6-3.7 1.6-.6.7-.9 1.5-.8 2.4 0 .7.3 1.5.9 2.5.1.1.3.4.5.7zm4.7 7.2c-.4.4-.9.7-1.4.9-.5.2-1 .3-1.6.3-.9 0-1.8-.3-2.4-.9-.6-.7-1-1.5-1-2.5 0-.9.4-1.8 1.1-2.4.5-.4 1-.7 1.5-1zm-2.3-12.1c.3-.3.7-.5 1.1-.5.4 0 .8.1 1 .4.7.7.5 1.9-.1 2.7-.2.2-.4.4-.6.5l-.8.4c-.3-.4-.6-.9-.9-1.4-.3-.8-.3-1.6.3-2.1z" id="path405"/><path class="st2" d="M87.7 326.6c.1-2.4-.8-4.8-2.4-6.3-.9-.8-2.3-1.5-3.6-1.8-1.3-.3-2.6-.5-4-.5h-.2l-6.9-.1-.3 1 1.7.2c.2 0 .3.1.5.2.6.5.2 2.1 0 2.8l-1.4 5.2-.4 1.5-1.7 6.3-.4 1.1c-.2.4-.4.7-.7 1-.8.6-2.3.6-2.3.5l-.2 1h9.1c2.5 0 5.1-.6 7-1.7 1-.6 5.1-3.1 6-8.3.1-.5.1-1 .2-1.5v-.6zm-6.2 5.1c-.7 1.8-1.7 3.2-3.1 4.3-.8.6-2.1 1.3-3.4 1.3-.5 0-.9-.1-1.3-.3-.1-.1-.2-.3-.2-.5 0-.4.8-3.8 1.7-7.6.1-.5.2-1 .4-1.5.8-3.4 1.6-6.7 1.9-7.7v-.1h.4c.7 0 1.6.2 2.2.5.8.5 1.5 1.2 1.8 2.1.6 1.6.7 3.4.5 5.1-.1.5-.1 1-.2 1.5-.2 1.2-.5 2.2-.7 2.9z" id="path407"/><path class="st0" id="rect409" d="M546.9 231.1h20.6v1.5h-20.6z"/></g><circle class="st3" cx="365.5" cy="423.7" r="10.1" id="circle413"/><circle class="st3" cx="389.9" cy="423.7" r="10.1" id="circle415"/><circle class="st3" cx="413.7" cy="423.7" r="10.1" id="circle417"/><circle class="st3" cx="437.1" cy="422.6" r="10.1" id="circle419"/><circle class="st3" cx="460.8" cy="423.7" r="10.1" id="circle421"/><g id="g433"><path class="st0" d="M434.8 241.6h4.5c.8 0 1.5.4 1.5 1.5s-.7 1.5-1.5 1.5h-12c-.8 0-1.5-.4-1.5-1.5s.7-1.5 1.5-1.5h4.5v-16.9h-4.5c-.8 0-1.5-.4-1.5-1.5s.7-1.5 1.5-1.5h12c.8 0 1.5.4 1.5 1.5s-.7 1.5-1.5 1.5h-4.5z" id="path423"/><path class="st0" d="M455.1 241.9l-2 1.6c-.9.7-1.6 1-2.7 1-1 0-2-.4-2.7-1.1-.9-.9-1-1.7-1-2.9v-7.6c0-2.1.8-3.5 2.4-4.8l6.2-5.1c.8-.7 1.5-1.2 2.6-1.2 2.3 0 3.8 1.6 3.8 3.8v7.7c0 2.2-.6 3.5-2.4 5l-1.8 1.5.8 1.8h1.8c.9 0 1.7.5 1.7 1.5 0 1.2-.9 1.5-2 1.5h-3.5zm1.3-4.9l.7-.6c1.4-1.1 1.6-1.5 1.6-3.3v-7.3c0-.5.1-1.2-.6-1.2-.4 0-.6.3-.9.5l-6.1 5.1c-1 .8-1.4 1.4-1.4 2.7v7.6c0 .5 0 1 .7 1 .3 0 .7-.2.9-.4l2.6-2.2-.8-1.9c-.2-.4-.4-.9-.4-1.4 0-.8.7-1.4 1.5-1.4 1.2 0 1.4 1 1.8 1.9z" id="path425"/><path class="st0" d="M490.5 242.9c0 .9-.4 1.5-1.5 1.5s-1.5-.5-1.5-1.5v-21.1h9.8c1.4 0 2.3.2 3.4 1.2 1.3 1.2 1.4 2.2 1.4 3.8v3.9c0 1.5-.1 2.5-1.2 3.7-1.2 1.3-2.4 1.4-4 1.4h-6.5v7.1zm0-10h6.6c1.7 0 2.1-.4 2.1-2.1v-4.1c0-1.7-.4-2.1-2.1-2.1h-6.6z" id="path427"/><path class="st0" d="M511.2 243c0 .9-.4 1.5-1.5 1.5s-1.5-.5-1.5-1.5v-21.1h9.9c2.3 0 4.7 1.6 4.7 4.2v2c0 2.7-2.3 4.1-4.7 4.1h-2.7l6.6 9.3c.3.4.7 1 .7 1.5 0 .8-.7 1.4-1.5 1.4-.6 0-1-.3-1.3-.8l-8.1-11.4h-.7V243zm0-13.6h6.6c.8 0 2.1-.1 2.1-1.2v-2c0-1.2-1.2-1.3-2.1-1.3h-6.6z" id="path429"/><path class="st0" d="M542.8 230.1c.6 1.1.8 2 .8 3.2 0 1.4-.4 2.3-1 3.5l-2.7 5.3c-.7 1.4-1.9 2.4-3.6 2.4-1.7 0-2.9-1-3.6-2.4l-2.7-5.3c-.6-1.2-1-2.1-1-3.5 0-1.2.2-2.1.8-3.2l3-5.8c.7-1.4 1.9-2.4 3.6-2.4 1.7 0 2.9 1 3.6 2.4zm-5.5-4.4c-.2-.5-.4-.9-1-.9s-.8.4-1 .9l-2.7 5.3c-.4.8-.7 1.4-.7 2.3 0 .8.2 1.3.5 1.9l2.8 5.5c.2.4.4.9 1 .9s.8-.5 1-.9l2.8-5.5c.3-.6.5-1.2.5-1.9 0-1-.2-1.5-.7-2.3z" id="path431"/></g><g class="st4" id="g449"><path transform="rotate(-60 250.965 313.47)" class="st5" id="rect435" d="M249.9 302.4h2.1v22.1h-2.1z"/><g class="st6" id="g447"><g id="g445"><path class="st0" d="M211.4 311.9h-.5l-.1-2.4h.6c.1.5.3.9.4 1.1.1.3.3.4.5.5.2.1.5.1.8.1.2 0 .5 0 .7-.1.2-.1.4-.2.5-.3.1-.1.2-.3.2-.6s-.1-.6-.2-.8c-.2-.2-.4-.4-.6-.5-.2-.1-.5-.3-.8-.4-.4-.2-.7-.4-1-.5-.3-.1-.6-.4-.7-.7-.2-.3-.3-.7-.3-1.1 0-.4.1-.8.3-1 .2-.3.5-.5.9-.6.4-.1.8-.2 1.4-.2.3 0 .5 0 .7.1.2 0 .3.1.5.1.1 0 .2.1.3.1.1 0 .1 0 .2-.1s.1-.1.1-.2h.4l.1 2.4h-.5c-.2-.7-.4-1.2-.7-1.4-.3-.2-.6-.4-1.1-.4-.4 0-.7.1-.9.2-.2.1-.3.4-.3.7 0 .3.1.5.2.7.1.2.4.3.6.5.3.1.6.3.9.4.3.1.5.3.8.4.3.1.5.3.7.5.2.2.4.4.5.7.1.3.2.6.2.9 0 .5-.1.9-.4 1.2-.3.3-.6.6-1 .7-.4.1-.9.2-1.5.2-.4 0-.7 0-.8-.1-.2-.1-.4-.1-.5-.2-.1-.1-.2-.1-.3-.1-.1 0-.2 0-.3.2.1-.2 0-.1 0 0z" id="path437"/><path class="st0" d="M222.3 311.8h-3.9v-.5c.3 0 .6 0 .7-.1.1-.1.3-.2.3-.3 0-.2.1-.4.1-.8V305h-.5c-.4 0-.7 0-.9.1-.2.1-.4.3-.5.5-.1.2-.2.6-.3 1h-.6l.1-2.2h7l.1 2.2h-.6c-.1-.4-.2-.7-.3-1-.1-.3-.2-.4-.5-.5-.3-.1-.5-.1-1-.1h-.5v5.1c0 .3 0 .6.1.8.1.2.2.3.3.3.2 0 .4.1.7.1v.5z" id="path439"/><path class="st0" d="M228.6 311.8h-4.1v-.5c.3 0 .5 0 .7-.1.2 0 .3-.1.3-.3 0-.2.1-.4.1-.7v-4.4c0-.3 0-.5-.1-.6l-.3-.3c-.2 0-.4-.1-.7-.1v-.5h3.8c.7 0 1.3.1 1.7.2.4.1.7.3.9.6.2.3.3.5.3.9 0 .5-.2.9-.5 1.1-.3.3-.7.5-1.2.6v.1c.3 0 .6.1 1 .3.4.2.6.3.8.6.2.3.3.6.3 1.1 0 .7-.3 1.2-.8 1.5-.6.3-1.3.5-2.2.5zm-1.3-6.8v2.6h.6c.6 0 .9-.1 1.1-.3.2-.2.3-.5.3-1 0-.4-.1-.8-.3-1-.2-.2-.6-.3-1.2-.3h-.3-.2zm.6 6.2h.7c.2 0 .4-.1.5-.2.1-.1.3-.2.3-.4.1-.2.1-.5.1-.8 0-.5-.1-.8-.2-1-.2-.2-.4-.4-.6-.4-.2-.1-.5-.1-.8-.1h-.7v3h.3c.2-.1.3-.1.4-.1z" id="path441"/><path class="st0" d="M237.7 311.8h-4v-.5c.3 0 .6 0 .7-.1.2 0 .3-.1.3-.3 0-.2.1-.4.1-.7v-1.3l-1.5-2.6c-.2-.4-.4-.6-.5-.8-.1-.2-.3-.4-.4-.5-.1-.1-.2-.2-.3-.2h-.4v-.5h3.6v.5c-.3 0-.5 0-.6.1-.1 0-.1.1-.1.2s.1.3.2.5l1 1.7.4.9h.1l1.4-2.7s.1-.1.1-.2v-.2c0-.1 0-.2-.1-.2-.1-.1-.3-.1-.5-.1v-.5h2.6v.5c-.2 0-.4 0-.5.1-.1 0-.3.1-.4.3-.1.2-.3.3-.4.6l-1.7 3.1v1.3c0 .3 0 .6.1.7.1.2.2.2.4.3.2 0 .4.1.7.1v.5z" id="path443"/></g></g></g><g class="st4" id="g465"><path transform="rotate(-39.004 272.457 292.992)" class="st5" id="rect451" d="M271.4 282.5h2.1v21h-2.1z"/><g class="st6" id="g463"><g id="g461"><path class="st0" d="M235.8 286.3h-1l-2.4-5.9c-.2-.4-.3-.7-.5-.8-.1-.2-.3-.2-.6-.3v-.5h3.5v.5c-.3 0-.5 0-.6.1-.1.1-.1.1-.1.3 0 .1 0 .3.1.5l1.3 3.1.3.9h.1l1.3-3.2.5 1.3h-.3zm4.4 0h-1.1l-1.7-4.5-.1-.4-.4-1.1c-.1-.3-.2-.6-.3-.7-.1-.1-.2-.3-.3-.3-.1 0-.3-.1-.5-.1v-.5h3.6v.5c-.6 0-.8.1-.8.4 0 .1 0 .2.1.3 0 .1.1.2.1.3l1.1 2.9.3.9h.1l1.2-3.5c.1-.2.1-.3.1-.4v-.3c0-.3-.1-.4-.2-.5-.2-.1-.3-.1-.6-.1v-.5h2.6v.5c-.3 0-.5.1-.6.2-.1.1-.2.3-.4.6z" id="path453"/><path class="st0" d="M246 286.3h-2.6v-.5c.2 0 .4 0 .5-.1l.3-.3c.1-.2.2-.4.3-.7l2.5-5.9h1.2l2.5 5.9c.2.4.3.6.5.8.2.2.4.3.6.3v.5h-3.7v-.5h.3c.1 0 .2 0 .3-.1.1-.1.1-.1.1-.2s0-.2-.1-.4c0-.2-.1-.3-.2-.5l-.3-.8-.1-.3-1.1-3-1.2 3-.1.3-.4 1c0 .1-.1.2-.1.3 0 .1-.1.2-.1.3 0 .2.1.3.2.3s.3.1.6.1v.5zm2.5-2.4h-3l.2-.6h2.5z" id="path455"/><path class="st0" d="M256.1 286.3h-3.8v-.5c.3 0 .6 0 .7-.1l.3-.3c0-.2.1-.4.1-.7v-4.1c0-.3 0-.5-.1-.7 0-.2-.1-.3-.3-.4-.2-.1-.4-.1-.7-.1v-.5h3.8v.5c-.3 0-.6 0-.7.1-.2.1-.2.2-.3.4 0 .2-.1.4-.1.7v4.1c0 .3 0 .6.1.7 0 .2.1.3.3.3.1.1.4.1.7.1z" id="path457"/><path class="st0" d="M263.5 286.3H257v-.5c.3 0 .6 0 .7-.1.2-.1.3-.2.3-.3 0-.1.1-.4.1-.7v-4.3c0-.3 0-.5-.1-.7 0-.2-.1-.3-.3-.3-.2-.1-.4-.1-.7-.1v-.5h3.9v.5c-.3 0-.6 0-.7.1-.2.1-.3.2-.3.3 0 .1-.1.4-.1.7v4.5c0 .3.1.5.2.5s.3.1.7.1h.7c.3 0 .6 0 .8-.1.2-.1.4-.1.5-.3.1-.1.2-.3.3-.5.1-.2.2-.5.3-.8h.6z" id="path459"/></g></g></g><g class="st4" id="g481"><path class="st5" id="rect467" d="M303.4 268.9h2.1v24.7h-2.1z"/><g class="st6" id="g479"><g id="g477"><path class="st0" d="M293.6 266.2h-4v-.5c.3 0 .6 0 .7-.1.1-.1.3-.1.3-.3 0-.2.1-.4.1-.7v-1.3l-1.5-2.6c-.2-.4-.4-.6-.5-.8-.1-.2-.3-.4-.4-.5-.1-.1-.2-.2-.3-.2h-.4v-.5h3.6v.5c-.3 0-.5 0-.6.1-.1 0-.1.1-.1.2s.1.3.2.5l1 1.7.4.9h.1l1.4-2.7s.1-.1.1-.2v-.2c0-.1 0-.2-.1-.2-.1-.1-.3-.1-.5-.1v-.5h2.6v.5c-.2 0-.4 0-.5.1-.1 0-.3.1-.4.3-.1.2-.3.3-.4.6l-1.7 3.1v1.3c0 .3 0 .6.1.7.1.2.2.2.4.3.2 0 .4.1.7.1v.5z" id="path469"/><path class="st0" d="M302.4 266.2h-6.6v-.5c.3 0 .5 0 .6-.1.2 0 .3-.1.3-.3.1-.1.1-.3.1-.6v-4.5c0-.3 0-.5-.1-.6 0-.1-.1-.2-.3-.3-.2-.1-.4-.1-.7-.1v-.5h6.5l.1 2h-.6c-.1-.3-.1-.6-.2-.8-.1-.2-.3-.3-.5-.4-.2-.1-.5-.1-1-.1h-1.5v2.6h1c.4 0 .7 0 .8-.1.2 0 .3-.1.3-.3 0-.2.1-.3.1-.6h.5v2.6h-.5c0-.3 0-.5-.1-.7-.1-.2-.2-.2-.3-.3-.2 0-.5-.1-.8-.1h-1v2.8h1.4c.4 0 .7 0 .9-.1.2-.1.4-.1.6-.2.1-.1.3-.3.4-.5.1-.2.2-.5.3-.8h.6z" id="path471"/><path class="st0" d="M309.9 266.2h-6.5v-.5c.3 0 .6 0 .7-.1.2-.1.3-.2.3-.3 0-.1.1-.4.1-.7v-4.3c0-.3 0-.5-.1-.7 0-.2-.1-.3-.3-.3-.2-.1-.4-.1-.7-.1v-.5h3.9v.5c-.3 0-.6 0-.7.1-.2.1-.3.2-.3.3 0 .1-.1.4-.1.7v4.5c0 .3.1.5.2.5s.3.1.7.1h.7c.3 0 .6 0 .8-.1.2-.1.4-.1.5-.3.1-.1.2-.3.3-.5.1-.2.2-.5.3-.8h.6z" id="path473"/><path class="st0" d="M314.9 266.2h-4.1v-.5c.3 0 .6 0 .7-.1l.3-.3c0-.2.1-.4.1-.7v-4.5c0-.4-.1-.6-.2-.7-.2-.1-.4-.2-.8-.2v-.5h3.7c.4 0 .8 0 1.1.1.4.1.7.2 1 .3.3.1.5.3.7.6.2.3.2.6.2 1 0 .5-.1.8-.3 1.1-.2.3-.4.5-.7.7-.3.2-.6.3-1 .4-.4.1-.8.1-1.2.1h-.4c-.2 0-.3-.1-.4-.1v1.7c0 .3 0 .5.1.7 0 .1.2.2.4.3.2 0 .5.1.9.1v.5zm-.7-3.7c.4 0 .6 0 .9-.1.2-.1.4-.2.5-.5.1-.2.2-.6.2-1 0-.5-.1-.9-.4-1.1-.2-.2-.7-.4-1.3-.4h-.6v3h.2c.2.1.3.1.5.1z" id="path475"/></g></g></g><g class="st4" id="g503"><path transform="rotate(-56.365 334.369 288.558)" class="st5" id="rect483" d="M322.6 287.5h23.5v2.1h-23.5z"/><g class="st6" id="g501"><g id="g499"><path class="st0" d="M342.7 283.8h-.5l-.1-2.4h.6c.1.5.3.9.4 1.1.1.3.3.4.5.5.2.1.5.1.8.1.2 0 .5 0 .7-.1.2-.1.4-.2.5-.3.1-.1.2-.3.2-.6s-.1-.6-.2-.8c-.1-.2-.4-.4-.6-.5-.3-.1-.5-.3-.8-.4-.4-.2-.7-.4-1-.5-.3-.2-.6-.4-.7-.7-.2-.3-.3-.7-.3-1.1 0-.4.1-.8.3-1 .2-.3.5-.5.9-.6.4-.1.8-.2 1.4-.2.3 0 .5 0 .7.1.2 0 .3.1.5.1.1 0 .2.1.3.1.1 0 .1 0 .2-.1s.1-.1.1-.2h.4l.1 2.4h-.5c-.2-.7-.4-1.2-.7-1.4-.3-.2-.6-.4-1.1-.4-.4 0-.7.1-.9.2-.2.1-.3.4-.3.7 0 .3.1.5.2.7.1.2.4.3.6.5.3.1.6.3.9.4.3.1.5.3.8.4.3.1.5.3.7.5.2.2.4.4.5.7.1.3.2.6.2.9 0 .5-.1.9-.4 1.2-.2.3-.6.6-1 .7-.4.1-.9.2-1.5.2-.4 0-.7 0-.8-.1-.2-.1-.4-.1-.5-.2-.1-.1-.2-.1-.3-.1-.1 0-.2 0-.2.1s-.1 0-.1.1z" id="path485"/><path class="st0" d="M353.5 283.6h-3.9v-.5c.3 0 .6 0 .7-.1.1-.1.3-.2.3-.3 0-.2.1-.4.1-.8v-5.1h-.5c-.4 0-.7 0-.9.1-.2.1-.4.3-.5.5-.1.2-.2.6-.3 1h-.6l.1-2.2h7l.1 2.2h-.6c-.1-.4-.2-.7-.3-1-.1-.3-.2-.4-.5-.5-.3-.1-.5-.1-1-.1h-.5v5.1c0 .3 0 .6.1.8 0 .2.2.3.3.3.2 0 .4.1.7.1v.5z" id="path487"/><path class="st0" d="M359.5 283.6h-3.8v-.5c.3 0 .6 0 .7-.1l.3-.3c0-.2.1-.4.1-.7v-4.1c0-.3 0-.5-.1-.7 0-.2-.1-.3-.3-.4-.2-.1-.4-.1-.7-.1v-.5h3.8v.5c-.3 0-.6 0-.7.1-.2.1-.2.2-.3.4 0 .2-.1.4-.1.7v4.1c0 .3 0 .6.1.7 0 .2.1.3.3.3.1.1.4.1.7.1z" id="path489"/><path class="st0" d="M367.9 283.7h-1.3l-4.4-5.8h-.4l-.3-.6c-.1-.2-.3-.3-.4-.4-.1-.1-.2-.1-.4-.2h-.4v-.5h2.8l4 5.3h.1v-3.4c0-.3 0-.5-.1-.8 0-.2-.1-.4-.3-.5-.2-.1-.4-.2-.8-.2v-.5h2.9v.5c-.3 0-.6.1-.7.2-.1.1-.2.3-.3.5 0 .2-.1.5-.1.8zm-4.8-.1h-2.9v-.5c.3 0 .5-.1.7-.3.2-.2.3-.5.3-.8.1-.3.1-.7.1-1.1V277h.8v4.7c0 .4 0 .7.1.9.1.2.2.3.3.4.2.1.4.1.7.1v.5z" id="path491"/><path class="st0" d="M373.4 283.8c-1.3 0-2.3-.3-2.9-1-.6-.7-.9-1.6-.9-2.8 0-.9.2-1.6.5-2.2.3-.6.8-1 1.4-1.3.6-.3 1.2-.4 2-.4.4 0 .7 0 1 .1.2.1.4.1.6.2.1.1.3.1.4.1.1 0 .2 0 .3-.1 0-.1.1-.2.1-.3h.5v2.7h-.6c-.1-.7-.4-1.3-.8-1.6-.4-.3-.9-.5-1.5-.5-.7 0-1.2.3-1.6.8-.3.5-.5 1.3-.5 2.3 0 1.1.2 1.9.5 2.5.3.6.8.8 1.6.8.3 0 .6 0 .8-.1.2-.1.4-.2.7-.4v-1c0-.3 0-.5-.1-.6 0-.1-.1-.2-.3-.3-.1 0-.4-.1-.6-.1v-.5h3.2v.5c-.3 0-.5.1-.6.2-.1.1-.1.3-.1.7v1.5c-.4.2-.9.4-1.3.6-.6.1-1.1.2-1.8.2z" id="path493"/><path class="st0" d="M384.6 283.6H378v-.5c.3 0 .5 0 .6-.1.2 0 .3-.1.3-.3.1-.1.1-.3.1-.6v-4.5c0-.3 0-.5-.1-.6 0-.1-.1-.2-.3-.3-.2-.1-.4-.1-.7-.1v-.5h6.5l.1 2h-.6c-.1-.3-.1-.6-.2-.8-.1-.2-.3-.3-.5-.4-.2-.1-.5-.1-1-.1h-1.5v2.6h1c.4 0 .7 0 .8-.1.2 0 .3-.1.3-.3 0-.2.1-.3.1-.6h.5v2.6h-.4c0-.3 0-.5-.1-.7-.1-.2-.2-.2-.3-.3-.2 0-.5-.1-.8-.1h-1v2.8h1.4c.4 0 .7 0 .9-.1.2-.1.4-.1.6-.2.1-.1.3-.3.4-.5.1-.2.2-.5.3-.8h.6z" id="path495"/><path class="st0" d="M389.5 283.6h-3.9v-.5c.3 0 .5 0 .7-.1.2 0 .3-.1.3-.3.1-.2.1-.4.1-.7v-4.5c0-.2 0-.4-.1-.5 0-.1-.2-.2-.3-.3-.2-.1-.4-.1-.7-.1v-.5h3.7c.5 0 1 .1 1.5.2s.8.3 1.1.6c.3.3.4.7.4 1.1 0 .4-.1.7-.3 1-.2.3-.4.5-.7.6-.3.1-.6.3-.9.3v.1c.1.1.3.2.4.4.1.2.3.4.6.7.3.3.6.8 1 1.4l.5.5c.2.1.4.1.7.1v.5H391c-.3-.5-.5-.8-.6-1.1-.2-.3-.3-.5-.4-.7-.1-.2-.2-.4-.3-.5-.1-.1-.2-.3-.3-.5-.1-.2-.2-.3-.3-.3-.1 0-.3-.1-.5-.1h-.2v1.7c0 .3 0 .5.1.7l.3.3c.2 0 .4.1.7.1zm-1.2-3.8h.4c.4 0 .7-.1 1-.2.3-.1.5-.3.6-.5.1-.2.2-.5.2-1 0-.4-.1-.8-.4-1-.2-.3-.6-.4-1.2-.4h-.7z" id="path497"/></g></g></g><g class="st4" id="g531"><path transform="rotate(-27.675 362.07 315.336)" class="st5" id="rect505" d="M350.3 314.3h23.5v2.1h-23.5z"/><g class="st6" id="g529"><g id="g527"><path class="st0" d="M378.5 311.9h-3.8v-.5c.3 0 .6 0 .7-.1l.3-.3c0-.2.1-.4.1-.7v-4.1c0-.3 0-.5-.1-.7 0-.2-.1-.3-.3-.4-.2-.1-.4-.1-.7-.1v-.5h3.8v.5c-.3 0-.6 0-.7.1-.2.1-.2.2-.3.4 0 .2-.1.4-.1.7v4.1c0 .3 0 .6.1.7 0 .2.1.3.3.3.1.1.4.1.7.1z" id="path507"/><path class="st0" d="M386.8 312h-1.3l-4.4-5.8h-.4l-.3-.6c-.1-.2-.3-.3-.4-.4-.1-.1-.2-.1-.4-.2h-.4v-.5h2.8l4 5.3h.1v-3.4c0-.3 0-.5-.1-.8 0-.2-.1-.4-.3-.5-.2-.1-.4-.2-.8-.2v-.5h2.9v.5c-.3 0-.6.1-.7.2-.1.1-.2.3-.3.5 0 .2-.1.5-.1.8zm-4.7-.1h-2.9v-.5c.3 0 .5-.1.7-.3.2-.2.3-.5.3-.8.1-.3.1-.7.1-1.1v-3.9h.8v4.7c0 .4 0 .7.1.9.1.2.2.3.3.4.2.1.4.1.7.1v.5z" id="path509"/><path class="st0" d="M393.8 311.9h-3.9v-.5c.3 0 .6 0 .7-.1.1-.1.3-.2.3-.3 0-.2.1-.4.1-.8v-5.1h-.5c-.4 0-.7 0-.9.1-.2.1-.4.3-.5.5-.1.2-.2.6-.3 1h-.6l.1-2.2h7l.1 2.2h-.6c-.1-.4-.2-.7-.3-1-.1-.3-.2-.4-.5-.5-.3-.1-.5-.1-1-.1h-.5v5.1c0 .3 0 .6.1.8.1.2.2.3.3.3.2 0 .4.1.7.1v.5z" id="path511"/><path class="st0" d="M402.6 311.9H396v-.5c.3 0 .5 0 .6-.1.2 0 .3-.1.3-.3.1-.1.1-.3.1-.6V306c0-.3 0-.5-.1-.6 0-.1-.1-.2-.3-.3-.2-.1-.4-.1-.7-.1v-.5h6.5l.1 2h-.6c-.1-.3-.1-.6-.2-.8-.1-.2-.3-.3-.5-.4-.2-.1-.5-.1-1-.1h-1.5v2.6h1c.4 0 .7 0 .8-.1.2 0 .3-.1.3-.3 0-.1.1-.3.1-.6h.5v2.6h-.5c0-.3 0-.5-.1-.7l-.3-.3c-.2 0-.5-.1-.8-.1h-1v2.8h1.4c.4 0 .7 0 .9-.1.2 0 .4-.1.6-.2.2-.1.3-.3.4-.5.1-.2.2-.5.3-.8h.6z" id="path513"/><path class="st0" d="M407.5 311.9h-3.9v-.5c.3 0 .5 0 .7-.1.2-.1.3-.1.3-.3.1-.2.1-.4.1-.7v-4.5c0-.2 0-.4-.1-.5 0-.1-.2-.2-.3-.3-.2-.1-.4-.1-.7-.1v-.5h3.7c.5 0 1 .1 1.5.2s.8.3 1.1.6c.3.3.4.7.4 1.1 0 .4-.1.7-.3 1-.2.3-.4.5-.7.6-.3.1-.6.3-.9.3v.1c.1.1.3.2.4.4.1.2.3.4.6.7.2.3.6.8 1 1.4l.5.5c.2.1.4.1.7.1v.5H409c-.3-.5-.5-.8-.6-1.1-.2-.3-.3-.5-.4-.7-.1-.2-.2-.4-.3-.5-.1-.2-.2-.3-.3-.5-.1-.2-.2-.3-.3-.3-.1 0-.3-.1-.5-.1h-.2v1.7c0 .3 0 .5.1.7.1.2.2.2.3.3.2 0 .4.1.7.1zm-1.1-3.8h.4c.4 0 .7-.1 1-.2.3-.1.5-.3.6-.5.1-.2.2-.5.2-1 0-.4-.1-.8-.4-1-.2-.3-.6-.4-1.2-.4h-.7z" id="path515"/><path class="st0" d="M418.4 312c-.8 0-1.5-.2-2.1-.5-.5-.3-.9-.8-1.2-1.3-.3-.6-.4-1.2-.4-1.9 0-.9.2-1.6.5-2.2.3-.6.8-1 1.4-1.3.6-.3 1.3-.4 2-.4.4 0 .7 0 1 .1.3.1.4.1.6.2.1.1.3.1.4.1.1 0 .2 0 .3-.1 0-.1.1-.2.1-.2h.5v2.8h-.6c-.2-.7-.4-1.2-.8-1.6-.4-.4-.8-.6-1.4-.6-.7 0-1.2.3-1.6.8-.3.5-.5 1.3-.5 2.2 0 .7.1 1.3.3 1.7.2.4.4.8.8 1 .4.2.8.3 1.3.3.6 0 1-.1 1.4-.3.4-.2.7-.5 1-.8l.4.3c-.3.4-.5.7-.8 1-.3.3-.6.5-1 .7-.5-.1-1 0-1.6 0z" id="path517"/><path class="st0" d="M429 311.9h-6.5v-.5c.3 0 .6 0 .7-.1.2-.1.3-.2.3-.3 0-.1.1-.4.1-.7V306c0-.3 0-.5-.1-.7-.1-.2-.1-.3-.3-.3-.2-.1-.4-.1-.7-.1v-.5h3.9v.5c-.3 0-.6 0-.7.1-.2.1-.3.2-.3.3 0 .1-.1.4-.1.7v4.5c0 .3.1.5.2.5.1.1.3.1.7.1h.7c.3 0 .6 0 .8-.1.2-.1.4-.1.5-.3.1-.2.2-.3.3-.5.1-.2.2-.5.3-.8h.6z" id="path519"/><path class="st0" d="M436.5 311.9H430v-.5c.3 0 .5 0 .6-.1.2 0 .3-.1.3-.3.1-.1.1-.3.1-.6V306c0-.3 0-.5-.1-.6 0-.1-.1-.2-.3-.3-.2-.1-.4-.1-.7-.1v-.5h6.5l.1 2h-.6c-.1-.3-.1-.6-.2-.8-.1-.2-.3-.3-.5-.4-.2-.1-.5-.1-1-.1h-1.5v2.6h1c.4 0 .7 0 .8-.1.2 0 .3-.1.3-.3 0-.2.1-.3.1-.6h.5v2.6h-.4c0-.3 0-.5-.1-.7-.1-.2-.2-.2-.3-.3-.2 0-.5-.1-.8-.1h-1v2.8h1.4c.4 0 .7 0 .9-.1.2-.1.4-.1.6-.2.1-.1.3-.3.4-.5.1-.2.2-.5.3-.8h.6z" id="path521"/><path class="st0" d="M439.8 311.9h-2.6v-.5c.2 0 .4 0 .5-.1l.3-.3c.1-.2.2-.4.3-.7l2.5-5.9h1.2l2.5 5.9c.2.4.3.6.5.8.2.2.4.3.6.3v.5h-3.7v-.5h.3c.1 0 .2 0 .3-.1.1-.1.1-.1.1-.2s0-.2-.1-.4-.1-.3-.2-.5l-.3-.8-.1-.3-1.1-3-1.2 3-.1.3-.4 1c0 .1-.1.2-.1.3 0 .1-.1.2-.1.3 0 .2.1.3.2.3s.3.1.6.1v.5zm2.5-2.4h-3l.2-.6h2.5z" id="path523"/><path class="st0" d="M450 311.9h-3.9v-.5c.3 0 .5 0 .7-.1.2-.1.3-.1.3-.3.1-.2.1-.4.1-.7v-4.5c0-.2 0-.4-.1-.5 0-.1-.2-.2-.3-.3-.2-.1-.4-.1-.7-.1v-.5h3.7c.5 0 1 .1 1.5.2s.8.3 1.1.6c.3.3.4.7.4 1.1 0 .4-.1.7-.3 1-.2.3-.4.5-.7.6-.3.1-.6.3-.9.3v.1c.1.1.3.2.4.4.1.2.3.4.6.7.2.3.6.8 1 1.4l.5.5c.2.1.4.1.7.1v.5h-2.6c-.3-.5-.5-.8-.6-1.1-.2-.3-.3-.5-.4-.7-.1-.2-.2-.4-.3-.5-.1-.2-.2-.3-.3-.5-.1-.2-.2-.3-.3-.3-.1 0-.3-.1-.5-.1h-.2v1.7c0 .3 0 .5.1.7.1.2.2.2.3.3.2 0 .4.1.7.1zm-1.1-3.8h.4c.4 0 .7-.1 1-.2.3-.1.5-.3.6-.5.1-.2.2-.5.2-1 0-.4-.1-.8-.4-1-.2-.3-.6-.4-1.2-.4h-.7z" id="path525"/></g></g></g><g class="st4" id="g551"><path class="st5" id="rect533" d="M355.4 344.9h25.8v2.1h-25.8z"/><g class="st6" id="g549"><g id="g547"><path class="st0" d="M387.3 349.6h-3.8v-.5c.3 0 .6 0 .7-.1l.3-.3c0-.2.1-.4.1-.7v-4.1c0-.3 0-.5-.1-.7 0-.2-.1-.3-.3-.4-.2-.1-.4-.1-.7-.1v-.5h3.9v.5c-.3 0-.6 0-.7.1-.1.1-.2.2-.3.4-.1.2-.1.4-.1.7v1.7h3.3v-1.7c0-.3 0-.5-.1-.7 0-.2-.1-.3-.3-.4-.2-.1-.4-.1-.7-.1v-.5h3.9v.5c-.3 0-.6 0-.7.1-.2.1-.2.2-.3.4-.1.2-.1.4-.1.7v4.1c0 .3 0 .6.1.7.1.1.1.3.3.3.2.1.4.1.7.1v.5h-3.9v-.5c.3 0 .6 0 .7-.1.2-.1.2-.2.3-.3 0-.2.1-.4.1-.7v-1.8h-3.3v1.8c0 .3 0 .6.1.7 0 .2.1.3.3.3.1.1.4.1.7.1v.5z" id="path535"/><path class="st0" d="M397 349.6h-3.8v-.5c.3 0 .6 0 .7-.1l.3-.3c0-.2.1-.4.1-.7v-4.1c0-.3 0-.5-.1-.7 0-.2-.1-.3-.3-.4-.2-.1-.4-.1-.7-.1v-.5h3.8v.5c-.3 0-.6 0-.7.1-.2.1-.2.2-.3.4 0 .2-.1.4-.1.7v4.1c0 .3 0 .6.1.7 0 .2.1.3.3.3.1.1.4.1.7.1z" id="path537"/><path class="st0" d="M400.6 347.2h-2.7v-1h2.7z" id="path539"/><path class="st0" d="M407.9 349.6h-6.5v-.5c.3 0 .6 0 .7-.1.2-.1.3-.2.3-.3 0-.1.1-.4.1-.7v-4.3c0-.3 0-.5-.1-.7 0-.2-.1-.3-.3-.3-.2 0-.4-.1-.7-.1v-.5h3.9v.5c-.3 0-.6 0-.7.1-.2.1-.3.2-.3.3 0 .2-.1.4-.1.7v4.5c0 .3.1.5.2.5.1.1.3.1.7.1h.7c.3 0 .6 0 .8-.1.2-.1.4-.1.5-.3.1-.2.2-.3.3-.5.1-.2.2-.5.3-.8h.6z" id="path541"/><path class="st0" d="M412.7 349.7c-.8 0-1.5-.2-2-.5-.6-.3-1-.7-1.3-1.3-.3-.6-.4-1.3-.4-2.1s.1-1.5.4-2c.3-.6.7-1 1.3-1.3.6-.3 1.2-.5 2-.5s1.5.1 2 .4c.5.3 1 .7 1.3 1.3.3.6.4 1.2.4 2s-.1 1.5-.4 2.1c-.3.6-.7 1-1.3 1.4-.6.4-1.2.5-2 .5zm.1-.6c.7 0 1.2-.3 1.5-.8.3-.5.5-1.4.5-2.5 0-.7-.1-1.3-.2-1.8-.2-.5-.4-.8-.7-1.1-.3-.2-.7-.4-1.1-.4-.6 0-1.1.3-1.4.8-.3.5-.5 1.3-.5 2.4 0 1.1.2 1.9.5 2.5.3.6.7.9 1.4.9z" id="path543"/><path class="st0" d="M421.6 349.6h-1l-2.4-5.9c-.2-.4-.3-.7-.5-.8-.2-.1-.3-.2-.6-.3v-.5h3.5v.5c-.3 0-.5 0-.6.1-.1.1-.1.1-.1.3 0 .1 0 .3.1.5l1.3 3.1.3.9h.1l1.3-3.2.5 1.3h-.3zm4.3 0h-1.1l-1.7-4.5-.1-.4-.4-1.1c-.1-.3-.2-.6-.3-.7-.1-.1-.2-.3-.3-.3-.1 0-.3-.1-.5-.1v-.5h3.6v.5c-.6 0-.8.1-.8.4 0 .1 0 .2.1.3 0 .1.1.2.1.3l1.1 2.9.3.9h.1l1.2-3.5c.1-.2.1-.3.1-.4v-.3c0-.3-.1-.4-.2-.5-.1-.1-.3-.1-.6-.1v-.5h2.6v.5c-.3 0-.5.1-.6.2-.1.1-.2.3-.3.6z" id="path545"/></g></g></g><g class="st4" id="g569"><path transform="rotate(-60 363.12 370.444)" class="st5" id="rect553" d="M362.1 357.5h2.1v25.8h-2.1z"/><g class="st6" id="g567"><g id="g565"><path class="st0" d="M382.9 382.5H379v-.5c.3 0 .5 0 .7-.1.2 0 .3-.1.3-.3.1-.2.1-.4.1-.7v-4.5c0-.2 0-.4-.1-.5 0-.1-.2-.2-.3-.3-.2-.1-.4-.1-.7-.1v-.5h3.7c.5 0 1 .1 1.5.2s.8.3 1.1.6c.3.3.4.7.4 1.1 0 .4-.1.7-.3 1-.2.3-.4.5-.7.6-.3.1-.6.3-.9.3v.1c.1.1.3.2.4.4.1.2.3.4.6.7.2.3.6.8 1 1.4l.5.5c.1.1.4.1.7.1v.5h-2.6c-.3-.5-.5-.8-.6-1.1-.2-.3-.3-.5-.4-.7-.1-.2-.2-.4-.3-.5-.1-.2-.2-.3-.3-.5-.1-.2-.2-.3-.3-.3-.1 0-.3-.1-.5-.1h-.2v1.7c0 .3 0 .5.1.7.1.2.2.2.3.3.2 0 .4.1.7.1zm-1.2-3.8h.4c.4 0 .7-.1 1-.2.3-.1.5-.3.6-.5.1-.2.2-.5.2-1 0-.4-.1-.8-.4-1-.2-.3-.6-.4-1.2-.4h-.7z" id="path555"/><path class="st0" d="M389.6 382.5H387v-.5c.2 0 .4 0 .5-.1l.3-.3c.1-.2.2-.4.3-.7l2.5-5.9h1.2l2.5 5.9c.2.4.3.6.5.8.2.2.4.3.6.3v.5h-3.7v-.5h.3c.1 0 .2 0 .3-.1.1-.1.1-.1.1-.2s0-.2-.1-.4-.1-.3-.2-.5l-.3-.8-.1-.3-1.1-3-1.2 3-.1.3-.4 1c0 .1-.1.2-.1.3 0 .1-.1.2-.1.3 0 .2.1.3.2.3s.3.1.6.1v.5zm2.5-2.4h-3l.2-.6h2.5z" id="path557"/><path class="st0" d="M399.3 382.5h-3.4v-.5c.3 0 .5 0 .7-.1.2 0 .3-.1.3-.3 0-.1.1-.4.1-.7v-4.4c0-.3 0-.5-.1-.6l-.3-.3c-.2 0-.4-.1-.6-.1v-.5h3.3c.6 0 1.1 0 1.7.1.5.1 1 .3 1.5.5.4.3.8.6 1 1.1.3.5.4 1.1.4 1.8s-.1 1.3-.4 1.8c-.3.5-.6.9-1 1.2-.4.3-.9.5-1.4.6-.5.1-1.2.4-1.8.4zm-.1-.7c.6 0 1.1-.1 1.5-.2.4-.1.7-.5 1-.9.2-.4.3-1.1.3-1.9 0-1-.2-1.7-.7-2.3-.5-.6-1.2-.8-2.2-.8h-.4v6.1h.5z" id="path559"/><path class="st0" d="M408.5 382.5h-3.8v-.5c.3 0 .6 0 .7-.1l.3-.3c0-.2.1-.4.1-.7v-4.1c0-.3 0-.5-.1-.7-.1-.2-.1-.3-.3-.4-.2-.1-.4-.1-.7-.1v-.5h3.8v.5c-.3 0-.6 0-.7.1-.2.1-.2.2-.3.4 0 .2-.1.4-.1.7v4.1c0 .3 0 .6.1.7 0 .2.1.3.3.3.1.1.4.1.7.1z" id="path561"/><path class="st0" d="M413.3 382.6c-.8 0-1.5-.2-2-.5-.6-.3-1-.7-1.3-1.3-.3-.6-.4-1.3-.4-2.1s.1-1.5.4-2c.3-.6.7-1 1.3-1.3.6-.3 1.2-.5 2-.5s1.5.1 2 .4c.5.3 1 .7 1.3 1.3.3.6.4 1.2.4 2s-.1 1.5-.4 2.1c-.3.6-.7 1-1.3 1.4-.6.4-1.2.5-2 .5zm0-.6c.7 0 1.2-.3 1.5-.8.3-.5.5-1.4.5-2.5 0-.7-.1-1.3-.2-1.8-.2-.5-.4-.8-.7-1.1-.3-.2-.7-.4-1.1-.4-.6 0-1.1.3-1.4.8-.3.5-.5 1.3-.5 2.4 0 1.1.2 1.9.5 2.5.3.6.7.9 1.4.9z" id="path563"/></g></g></g><g class="st4" id="g583"><path class="st5" id="rect571" d="M227.5 343.5h24.7v2.1h-24.7z"/><g class="st6" id="g581"><g id="g579"><path class="st0" d="M203.3 348.8c-.8 0-1.4-.2-1.9-.5s-.9-.8-1.2-1.4c-.3-.6-.4-1.3-.4-2.2 0-.8.1-1.5.4-2.1.3-.6.7-1 1.2-1.4.5-.3 1.2-.5 1.9-.5.8 0 1.4.2 1.9.5s.9.7 1.2 1.3c.3.6.4 1.3.4 2.1s-.1 1.6-.4 2.2c-.3.6-.7 1.1-1.2 1.4-.5.5-1.1.6-1.9.6zm0-.6c.6 0 1.1-.3 1.4-.8.3-.6.5-1.4.5-2.6 0-.7-.1-1.3-.2-1.8s-.4-.9-.7-1.1c-.3-.2-.6-.4-1-.4-.6 0-1 .3-1.4.9-.4.6-.5 1.4-.5 2.5s.2 1.9.5 2.6c.3.4.8.7 1.4.7z" id="path573"/><path class="st0" d="M211.5 348.7h-3.7v-.5c.3 0 .5 0 .6-.1.1 0 .2-.1.3-.3.1-.1.1-.4.1-.6v-4.7c0-.3 0-.5-.1-.6l-.3-.3c-.1 0-.4-.1-.6-.1v-.5h6.1l.1 2.1h-.6c0-.3-.1-.5-.1-.7 0-.2-.1-.3-.2-.4-.1-.1-.3-.2-.5-.2s-.5-.1-.8-.1h-1.3v2.7h.8c.3 0 .6 0 .7-.1.2 0 .3-.2.4-.3.1-.2.1-.4.1-.7h.5v2.7h-.5c0-.3 0-.5-.1-.7-.1-.1-.2-.2-.4-.3-.2 0-.4-.1-.7-.1h-.8v2.1c0 .3 0 .5.1.6l.3.3c.2 0 .4.1.7.1v.7z" id="path575"/><path class="st0" d="M218.2 348.7h-3.7v-.5c.3 0 .5 0 .6-.1.1 0 .2-.1.3-.3.1-.1.1-.4.1-.6v-4.7c0-.3 0-.5-.1-.6l-.3-.3c-.1 0-.4-.1-.6-.1v-.5h6.1l.1 2.1h-.6c0-.3-.1-.5-.1-.7 0-.2-.1-.3-.2-.4-.1-.1-.3-.2-.5-.2s-.5-.1-.8-.1h-1.3v2.7h.8c.3 0 .6 0 .7-.1.2 0 .3-.2.4-.3.1-.2.1-.4.1-.7h.5v2.7h-.5c0-.3 0-.5-.1-.7-.1-.1-.2-.2-.4-.3-.2 0-.4-.1-.7-.1h-.8v2.1c0 .3 0 .5.1.6l.3.3c.2 0 .4.1.7.1v.7z" id="path577"/></g></g></g><g id="g613"><path class="st0" d="M585.4 219.7c.7 0 1.8.5 2.6 1.6s1.2 2.3 1.2 3.3c0 .7-.1 1.4-.2 2-.2.6-.4 1.2-.7 1.7-.3.5-.7.9-1.1 1.2-.4.3-1.8.9-2.3 1 0 0 .6.4 1 1.3s.6 2.3.7 3.3c0 1 .4 4 .8 4.8h-3.9s-.9-.8-.7-4.5c.1-1.6 0-1.9-.3-2.4-.3-.6-.8-.6-1.1-.6H580l-1.1 7.5h-4.2l3.4-20.1zm-1.5 7.8c.8-.4 1-1.5.9-2.4-.1-.9-.7-1.5-1-1.5h-2.4l-.9 4.9c.1 0 2.7-.7 3.4-1z" id="path585"/><path class="st0" d="M589.9 230c.3-1.1.7-2.2 1.3-3 .6-.9 1.3-1.5 2.1-2s1.7-.8 2.8-.8c.8 0 1.5.1 2.2.4.7.3 1.2.7 1.7 1.2s.8 1.2 1.1 2c.3.8.4 1.8.4 2.9 0 1.3-.2 2.6-.5 3.8-.3 1.2-.7 2.2-1.3 3-.6.9-1.3 1.5-2.1 2s-1.8.7-2.8.7c-1.6 0-2.9-.5-3.9-1.6s-1.4-2.7-1.4-4.9c-.1-1.3.1-2.5.4-3.7zm3.3 4.6c.1.3.2.6.3.8.1.2.3.4.5.6.2.1.5.2.8.2.5 0 .8-.2 1.2-.5.3-.3.6-.7.8-1.2.2-.5.4-1 .5-1.6.1-.6.2-1.1.2-1.6 0-.8-.1-1.4-.4-1.9-.3-.5-.7-.7-1.4-.7-.4 0-.8.2-1.2.5-.3.3-.6.7-.8 1.2-.2.5-.4 1-.5 1.6-.1.6-.2 1.1-.2 1.6.1.3.2.6.2 1z" id="path587"/><path class="st0" d="M611.1 225.3l-.3 3.5h-2.7l-1.3 6.6s-.2.9.6.8c.8-.1 1.9-.5 1.9-.5l-.5 3.9s-1.3.8-2.4.8c-1.1 0-2.7-.3-3.3-1.5-.6-1.2-.1-3-.1-3l1.2-7.1h-1.7l.3-3.5h2s.3-2.3.4-2.8c.3-1.2 3.8-1.7 3.8-1.7l-.7 4.5z" id="path589"/><path class="st0" d="M629.7 225l-.1 1.7s.3-.9 1.1-1.5c.7-.5 2.9-.2 3.2-.1l-.7 4.6s-.9-.7-1.8-.5c-.9.2-1.4.7-1.9 2s-1.8 8.3-1.8 8.3l-3.8.1 2-14.6z" id="path591"/><path class="st0" d="M637 244.3c-.3.4-.7.8-1.1 1-.4.2-.8.4-1.3.5-.5.1-1.1.1-1.8.1-.3 0-.6 0-.9-.1-.3 0-.6-.1-1-.1l.2-3.8c.3.1 1.2.5 1.8.4.6-.1 1.1-.4 1.6-.9.5-.6.9-1.4.9-1.4l-1.3-15.1h3.7l.6 9.1 4.2-9.1h3.8l-8.4 17.7c-.3.8-.6 1.3-1 1.7z" id="path593"/><path class="st0" d="M670.7 218.3s-2.7 12.9-3 17.3c-.1 1.2 2.4.4 2.4.4l-.3 3.1s-2.8 1.9-5 .5c-2.8-1.8 2.4-21.4 2.4-21.4z" id="path595"/><path class="st0" d="M676.5 225.3s-1.7 7.3-1.5 10.4c.1 1.1 1.7.3 1.7.3l-.2 3.6s-1.8 1.5-4.1.1c-2.8-1.7.5-14.3.5-14.3h3.6z" id="path597"/><path class="st0" d="M685.5 237.5c-.4.8-.9 1.7-1.5 2-.6.4-1.3.7-2.3.5-1.1-.2-1.7-.5-2.5-1.5s-1.3-2.8-1.3-4.6c0-1.2.2-2.8.9-4.6.7-1.8 2.7-3.9 4.4-4.3 1.7-.4 2.5-.4 3.6.1l1.3-6.8h3.9l-3.4 21.1h-3.5zm-1.7-8.8c-.3.3-.6.7-.8 1.2-.2.5-.4 1-.6 1.6-.2.6-.3 1.2-.3 1.7 0 .4-.1.7 0 1.1 0 .3.1.6.2.9.1.3.2.5.4.7.2.2.4.3.6.3.4 0 .7-.1 1-.4.3-.3.6-.7.8-1.2.2-.5.5-1.1.6-1.7.1-.6.3-1.2.3-1.7.1-.8.1-1.5-.1-2s-.5-.8-1-.9c-.4 0-.7.1-1.1.4z" id="path599"/><path class="st0" d="M712.5 239.5l2.7-15-3.5.5.6-3.8 4.8-1.8 2.9-.3-3 20.4z" id="path601"/><path class="st0" d="M734.6 232l-.7 4h-2.1l-.5 3.6h-3.9l.6-3.6h-6.4l.8-4.3 9.1-12h3.1l-2 12.4zm-5.1-4.7l-3.7 4.7h3z" id="path603"/><ellipse class="st0" cx="675.3" cy="220.7" rx="2.3" ry="2.9" id="ellipse605"/><path class="st0" d="M623.6 226.4c-.3-1.2-2.8-1.8-4.7-1.9-1.9-.1-4.4 1-5.4 2s-1.5 1.7-2 3.8c-.6 2.2-.7 4.9-.3 6.5.4 1.7 1.6 3 2.8 3.2 1.2.3 2.1 0 2.7-.3.7-.5.9-1.1 1.4-1.7l-.1 1.5h4.3c-.1-.3-.1-.6-.1-.8v-1c0-.4.1-.7.1-1l1-5.9c0-.9.5-3.5.3-4.4zm-5.5 6.6c-.1 2.4-1.7 3.4-2.5 3-.4-.2-.8-1.2-.4-3.5.8-5.2 4.2-3.8 4.2-3.8s-1.1.5-1.3 4.3z" id="path607"/><path class="st0" d="M663.9 220.7l-.8 3.6s-3.4-1.5-4.6-.8c-1.3.7-1.4 2.1.3 3.6 1.5 1.4 4.3 2.9 3.8 7.4-.4 4.5-2.8 5.7-5.7 5.7-2.9-.1-5.5-1.6-5.5-1.6l.6-4.7s4.8 4 6.2 1.1c1.1-2.2-3.5-3.8-4.8-6.6-1.3-2.8-.3-6 1.1-7.7 1.4-1.8 4.7-1.8 6.6-1.4 1.9.4 2.8 1.4 2.8 1.4z" id="path609"/><path class="st0" d="M701.9 226.4c-1.8-2.2-5.2-1.8-7.4-.3-1.7 1.2-3.5 4.4-3.4 7.4.1 3.1 1.6 6.8 5.5 6.7 3.9 0 4.4-1.8 4.4-1.8l-.1-4s-1.6 1.7-3.7 1.7-1.8-1.4-1.8-1.4 3.8-.6 5.6-2c2.8-1.9 2.2-4.8.9-6.3zm-3.7 4.5c-1.1.7-3 .4-3 .4s.3-1.5 1.1-2.4c.8-.9 2.4-.8 2.7-.3.4.5.4 1.6-.8 2.3z" id="path611"/></g><g id="g667"><circle class="st3" cx="335.9" cy="288.4" r="10.1" id="key-21"/><circle class="st3" cx="249.9" cy="311.3" id="key-18" r="10.1"/><circle class="st3" cx="240.5" cy="344.5" r="10.1" id="key-17"/><circle class="st3" cx="273.4" cy="288.4" r="10.1" id="key-19"/><circle class="st3" cx="304.6" cy="280.5" r="10.1" id="key-20"/><circle class="st3" cx="360.3" cy="312.6" r="10.1" id="key-22"/><circle class="st3" cx="368.8" cy="344.6" r="10.1" id="key-23"/><circle class="st3" cx="359.4" cy="378" r="10.1" id="key-24"/><g id="g665"><circle cx="305.1" cy="344.5" r="48.5" id="circle631" fill="#bbb"/><g id="g635"><path class="st9" d="M304.6 306.4h2.4v-10.3h-4.7v10.3h2.3z" id="path633"/></g><g id="g639"><path class="st9" d="M266.9 344.7v-2.4h-10.3v4.7h10.3v-2.3z" id="path637"/></g><g id="g643"><path class="st9" d="M353.5 344.7v-2.4h-10.3v4.7h10.3v-2.3z" id="path641"/></g><g id="g647"><path class="st9" d="M272.4 325c.4-.7.9-1.4 1.3-2.1l-8.9-5.3-2.4 4 8.9 5.3c.3-.5.7-1.2 1.1-1.9z" id="path645"/></g><g id="g651"><path class="st9" d="M346.2 370.2c.4-.7.9-1.4 1.3-2.1l-8.8-5.4-2.5 4 8.8 5.4c.4-.6.8-1.3 1.2-1.9z" id="path649"/></g><g id="g655"><path class="st9" d="M328.3 301.9c-.7-.4-1.4-.7-2.1-1.1l-4.9 9.1 4.1 2.3 4.9-9.1c-.6-.4-1.3-.8-2-1.2z" id="path653"/></g><g id="g659"><path class="st9" d="M286 311.5l2.1-1.2-5.1-8.9-4 2.3 5.1 8.9c.5-.3 1.2-.7 1.9-1.1z" id="path657"/></g><g id="g663"><path class="st9" d="M347.2 320.2l-1.2-2.1-8.9 5.1 2.3 4 8.9-5.1c-.3-.5-.7-1.2-1.1-1.9z" id="path661"/></g></g></g></g><g id="g704" transform="translate(-27.8 -118.8)"><circle class="st10" cx="112.3" cy="428.2" r="10.2" id="key-25"/><circle class="st10" cx="146.9" cy="427.4" r="10.2" id="key-26"/><circle class="st10" cx="181.5" cy="427.4" r="10.2" id="key-27"/><g id="g688"><path class="st0" d="M69.5 376c-2.9 0-5.2 2.4-5.2 5.4 0 3 2.3 5.4 5.2 5.4 2.9 0 5.2-2.4 5.2-5.4 0-3-2.4-5.4-5.2-5.4zm0 8.3c-1.3 0-2.4-1.3-2.4-3s1.1-3 2.4-3c1.3 0 2.4 1.3 2.4 3s-1.1 3-2.4 3z" id="path676"/><path class="st0" id="polygon678" d="M113.6 375.9h-2.3l-2.7 2.1v1.7h2.7v6.9h2.3z"/><path class="st0" d="M142.8 377.4v2h1.3s.7-1.4 2.1-1c1.3.5.2 2.1-1.3 3-1.3 1-2.1 2.8-2.1 2.8v2.1h7v-1.9h-4.1s.8-1.2 2.1-2.1c1.3-1 2.3-1.9 2.1-3.7-.2-1.7-1.6-2.5-4-2.5-1.9 0-3.1 1.3-3.1 1.3z" id="path680"/><path class="st0" d="M177.5 377v1.8h1.3s.3-.7 1-.7 1.5.2 1.5 1-.9 1.1-1.3 1.1h-1.6v2.1h1.8c.9 0 1.2.9 1.2 1.4 0 .5-.7 1-1.9 1s-1.9-.9-1.9-.9v2.6s1.4.6 3.2.4c1.8-.3 3.4-1.3 3.3-3.2-.1-1.9-1.5-2.4-1.5-2.4s1.7-.9 1.5-2.4c-.2-1.5-1.5-2.4-3.7-2.5-2.3-.3-2.9.7-2.9.7z" id="path682"/><path class="st0" id="polygon684" d="M78.3 382.5h3.2v-1.9h-3.1v-2h3.1V376l-6.2-.1v10.7h3z"/><path class="st0" id="polygon686" d="M85.7 382.5H89v-1.9h-3.2v-2H89V376l-6.3-.1v10.7h3z"/></g><g id="g702"><path class="st11" id="rect690" d="M64.3 392.5h129.2v2H64.3z"/><path class="st11" id="rect692" d="M64.3 410h129.2v2H64.3z"/><path class="st12" id="polygon694" d="M83 394.5H71.3V410H83v-12.3z"/><path class="st12" id="polygon696" d="M117.4 394.5h-11.6V410h11.6v-12.3z"/><path class="st12" id="polygon698" d="M152.1 394.5h-11.6V410h11.6v-12.3z"/><path class="st12" id="polygon700" d="M175.2 394.5V410h11.6v-15.5z"/></g></g></svg>